{"asset":{"generator":"glTF-Transform v4.0.2","version":"2.0"},"accessors":[{"type":"SCALAR","componentType":5125,"count":570048,"bufferView":0,"byteOffset":0},{"type":"VEC3","componentType":5126,"count":138245,"bufferView":1,"byteOffset":0},{"type":"VEC3","componentType":5126,"count":138245,"max":[0.4720558822154999,0.24628320336341858,0.025102533400058746],"min":[-0.4720267057418823,-0.24628320336341858,-0.025136500597000122],"bufferView":1,"byteOffset":12},{"type":"VEC2","componentType":5126,"count":138245,"bufferView":1,"byteOffset":24}],"bufferViews":[{"buffer":0,"byteOffset":0,"byteLength":2280192,"target":34963},{"buffer":0,"byteOffset":2280192,"byteLength":4423840,"byteStride":32,"target":34962}],"samplers":[{"magFilter":9729,"minFilter":9729,"wrapS":10497,"wrapT":10497}],"textures":[{"sampler":0,"extensions":{"EXT_texture_webp":{"source":0}}}],"images":[{"name":"Normal","mimeType":"image/webp","uri":"normal_1.webp"}],"buffers":[{"uri":"Asset1.bin","byteLength":6704032}],"materials":[{"doubleSided":true,"pbrMetallicRoughness":{"baseColorFactor":[0.21223075740342198,0.21223075740342198,0.21223075740342198,1],"roughnessFactor":0.403921568627451,"metallicFactor":0},"normalTexture":{"index":0}}],"meshes":[{"primitives":[{"attributes":{"NORMAL":1,"POSITION":2,"TEXCOORD_0":3},"mode":4,"material":0,"indices":0}]}],"nodes":[{"mesh":0}],"scenes":[{"nodes":[0]}],"extensionsUsed":["EXT_texture_webp"],"extensionsRequired":["EXT_texture_webp"]}