{"asset":{"generator":"glTF-Transform v3.10.0","version":"2.0"},"accessors":[{"type":"SCALAR","componentType":5125,"count":19842,"bufferView":0,"byteOffset":0},{"type":"SCALAR","componentType":5125,"count":276,"bufferView":0,"byteOffset":79368},{"type":"SCALAR","componentType":5125,"count":15150,"bufferView":0,"byteOffset":80472},{"type":"SCALAR","componentType":5125,"count":9402,"bufferView":0,"byteOffset":141072},{"type":"SCALAR","componentType":5125,"count":9444,"bufferView":0,"byteOffset":178680},{"type":"SCALAR","componentType":5125,"count":25104,"bufferView":0,"byteOffset":216456},{"type":"SCALAR","componentType":5125,"count":732,"bufferView":0,"byteOffset":316872},{"type":"SCALAR","componentType":5125,"count":13380,"bufferView":0,"byteOffset":319800},{"type":"SCALAR","componentType":5125,"count":7554,"bufferView":0,"byteOffset":373320},{"type":"SCALAR","componentType":5125,"count":1758,"bufferView":0,"byteOffset":403536},{"type":"SCALAR","componentType":5125,"count":34344,"bufferView":0,"byteOffset":410568},{"type":"SCALAR","componentType":5125,"count":2928,"bufferView":0,"byteOffset":547944},{"type":"SCALAR","componentType":5125,"count":32808,"bufferView":0,"byteOffset":559656},{"type":"VEC3","componentType":5126,"count":3827,"max":[-0.03859773650765419,0.008532395586371422,0.0716392770409584],"min":[-0.04111606627702713,0.006015208084136248,-0.0716392770409584],"bufferView":1,"byteOffset":0},{"type":"VEC3","componentType":5126,"count":3827,"bufferView":1,"byteOffset":12},{"type":"VEC2","componentType":5126,"count":3827,"bufferView":1,"byteOffset":24},{"type":"VEC3","componentType":5126,"count":88,"max":[-0.03882954269647598,0.004121457692235708,0.0716392770409584],"min":[-0.04086196422576904,-0.007057057227939367,-0.0716392770409584],"bufferView":2,"byteOffset":0},{"type":"VEC3","componentType":5126,"count":88,"bufferView":2,"byteOffset":12},{"type":"VEC2","componentType":5126,"count":88,"bufferView":2,"byteOffset":24},{"type":"VEC3","componentType":5126,"count":2933,"max":[0.006459128111600876,-0.001348911551758647,0.0716392770409584],"min":[0.0017245578346773982,-0.005809791851788759,-0.0716392770409584],"bufferView":3,"byteOffset":0},{"type":"VEC3","componentType":5126,"count":2933,"bufferView":3,"byteOffset":12},{"type":"VEC2","componentType":5126,"count":2933,"bufferView":3,"byteOffset":24},{"type":"VEC3","componentType":5126,"count":1846,"max":[0.045650336891412735,0.008971458300948143,0.0716392770409584],"min":[0.041054245084524155,-0.009851588867604733,-0.0716392770409584],"bufferView":4,"byteOffset":0},{"type":"VEC3","componentType":5126,"count":1846,"bufferView":4,"byteOffset":12},{"type":"VEC2","componentType":5126,"count":1846,"bufferView":4,"byteOffset":24},{"type":"VEC3","componentType":5126,"count":1853,"max":[-0.020353958010673523,0.008971458300948143,0.0716392770409584],"min":[-0.024973098188638687,-0.009851588867604733,-0.0716392770409584],"bufferView":5,"byteOffset":0},{"type":"VEC3","componentType":5126,"count":1853,"bufferView":5,"byteOffset":12},{"type":"VEC2","componentType":5126,"count":1853,"bufferView":5,"byteOffset":24},{"type":"VEC3","componentType":5126,"count":4876,"max":[0.027128854766488075,0.004352317191660404,0.0716392770409584],"min":[0.018306197598576546,-0.007287916727364063,-0.0716392770409584],"bufferView":6,"byteOffset":0},{"type":"VEC3","componentType":5126,"count":4876,"bufferView":6,"byteOffset":12},{"type":"VEC2","componentType":5126,"count":4876,"bufferView":6,"byteOffset":24},{"type":"VEC3","componentType":5126,"count":224,"max":[-0.04305591061711311,0.008509348146617413,0.0716392770409584],"min":[-0.05143969878554344,-0.007057057227939367,-0.0716392770409584],"bufferView":7,"byteOffset":0},{"type":"VEC3","componentType":5126,"count":224,"bufferView":7,"byteOffset":12},{"type":"VEC2","componentType":5126,"count":224,"bufferView":7,"byteOffset":24},{"type":"VEC3","componentType":5126,"count":2643,"max":[0.038976315408945084,0.009340989403426647,0.0716392770409584],"min":[0.029460884630680084,-0.007057057693600655,-0.0716392770409584],"bufferView":8,"byteOffset":0},{"type":"VEC3","componentType":5126,"count":2643,"bufferView":8,"byteOffset":12},{"type":"VEC2","componentType":5126,"count":2643,"bufferView":8,"byteOffset":24},{"type":"VEC3","componentType":5126,"count":1556,"max":[0.016966940835118294,0.007331613916903734,0.0716392770409584],"min":[0.010338620282709599,-0.007287916727364063,-0.0716392770409584],"bufferView":9,"byteOffset":0},{"type":"VEC3","componentType":5126,"count":1556,"bufferView":9,"byteOffset":12},{"type":"VEC2","componentType":5126,"count":1556,"bufferView":9,"byteOffset":24},{"type":"VEC3","componentType":5126,"count":443,"max":[-0.026727786287665367,0.004121457692235708,0.0716392770409584],"min":[-0.03695923089981079,-0.007057057693600655,-0.0716392770409584],"bufferView":10,"byteOffset":0},{"type":"VEC3","componentType":5126,"count":443,"bufferView":10,"byteOffset":12},{"type":"VEC2","componentType":5126,"count":443,"bufferView":10,"byteOffset":24},{"type":"VEC3","componentType":5126,"count":6678,"max":[0.008606979623436928,0.004375364165753126,0.0716392770409584],"min":[-0.00030786418938077986,-0.007310963701456785,-0.0716392770409584],"bufferView":11,"byteOffset":0},{"type":"VEC3","componentType":5126,"count":6678,"bufferView":11,"byteOffset":12},{"type":"VEC2","componentType":5126,"count":6678,"bufferView":11,"byteOffset":24},{"type":"VEC3","componentType":5126,"count":686,"max":[-0.0005383328534662724,0.008509348146617413,0.0716392770409584],"min":[-0.01954594999551773,-0.007057057227939367,-0.0716392770409584],"bufferView":12,"byteOffset":0},{"type":"VEC3","componentType":5126,"count":686,"bufferView":12,"byteOffset":12},{"type":"VEC2","componentType":5126,"count":686,"bufferView":12,"byteOffset":24},{"type":"VEC3","componentType":5126,"count":7606,"max":[0.06493768841028214,0.06493116915225983,0.0716392770409584],"min":[-0.06493768841028214,-0.06493116915225983,-0.0716392770409584],"bufferView":13,"byteOffset":0},{"type":"VEC3","componentType":5126,"count":7606,"bufferView":13,"byteOffset":12},{"type":"VEC2","componentType":5126,"count":7606,"bufferView":13,"byteOffset":24}],"bufferViews":[{"buffer":0,"byteOffset":0,"byteLength":690888,"target":34963},{"buffer":0,"byteOffset":690888,"byteLength":122464,"byteStride":32,"target":34962},{"buffer":0,"byteOffset":813352,"byteLength":2816,"byteStride":32,"target":34962},{"buffer":0,"byteOffset":816168,"byteLength":93856,"byteStride":32,"target":34962},{"buffer":0,"byteOffset":910024,"byteLength":59072,"byteStride":32,"target":34962},{"buffer":0,"byteOffset":969096,"byteLength":59296,"byteStride":32,"target":34962},{"buffer":0,"byteOffset":1028392,"byteLength":156032,"byteStride":32,"target":34962},{"buffer":0,"byteOffset":1184424,"byteLength":7168,"byteStride":32,"target":34962},{"buffer":0,"byteOffset":1191592,"byteLength":84576,"byteStride":32,"target":34962},{"buffer":0,"byteOffset":1276168,"byteLength":49792,"byteStride":32,"target":34962},{"buffer":0,"byteOffset":1325960,"byteLength":14176,"byteStride":32,"target":34962},{"buffer":0,"byteOffset":1340136,"byteLength":213696,"byteStride":32,"target":34962},{"buffer":0,"byteOffset":1553832,"byteLength":21952,"byteStride":32,"target":34962},{"buffer":0,"byteOffset":1575784,"byteLength":243392,"byteStride":32,"target":34962}],"samplers":[{"magFilter":9729,"minFilter":9729,"wrapS":10497,"wrapT":10497}],"textures":[{"source":0,"sampler":0},{"source":1,"sampler":0},{"source":2,"sampler":0},{"source":3,"sampler":0}],"images":[{"name":"BaseColor","mimeType":"image/png","uri":"baseColor_1.png"},{"name":"Normal","mimeType":"image/png","uri":"normal_1.png"},{"name":"MetallicRoughness","mimeType":"image/png","uri":"metallicRoughness_1.png"},{"name":"BaseColor","mimeType":"image/png","uri":"baseColor_2.png"}],"buffers":[{"uri":"Asset5.bin","byteLength":1819176}],"materials":[{"doubleSided":true,"pbrMetallicRoughness":{"baseColorTexture":{"index":0},"metallicRoughnessTexture":{"index":2}},"normalTexture":{"index":1}},{"doubleSided":true,"pbrMetallicRoughness":{"baseColorTexture":{"index":3},"metallicRoughnessTexture":{"index":2}},"normalTexture":{"index":1}}],"meshes":[{"primitives":[{"attributes":{"NORMAL":14,"POSITION":13,"TEXCOORD_0":15},"mode":4,"material":0,"indices":0}]},{"primitives":[{"attributes":{"NORMAL":17,"POSITION":16,"TEXCOORD_0":18},"mode":4,"material":0,"indices":1}]},{"primitives":[{"attributes":{"NORMAL":20,"POSITION":19,"TEXCOORD_0":21},"mode":4,"material":0,"indices":2}]},{"primitives":[{"attributes":{"NORMAL":23,"POSITION":22,"TEXCOORD_0":24},"mode":4,"material":0,"indices":3}]},{"primitives":[{"attributes":{"NORMAL":26,"POSITION":25,"TEXCOORD_0":27},"mode":4,"material":0,"indices":4}]},{"primitives":[{"attributes":{"NORMAL":29,"POSITION":28,"TEXCOORD_0":30},"mode":4,"material":0,"indices":5}]},{"primitives":[{"attributes":{"NORMAL":32,"POSITION":31,"TEXCOORD_0":33},"mode":4,"material":0,"indices":6}]},{"primitives":[{"attributes":{"NORMAL":35,"POSITION":34,"TEXCOORD_0":36},"mode":4,"material":0,"indices":7}]},{"primitives":[{"attributes":{"NORMAL":38,"POSITION":37,"TEXCOORD_0":39},"mode":4,"material":0,"indices":8}]},{"primitives":[{"attributes":{"NORMAL":41,"POSITION":40,"TEXCOORD_0":42},"mode":4,"material":0,"indices":9}]},{"primitives":[{"attributes":{"NORMAL":44,"POSITION":43,"TEXCOORD_0":45},"mode":4,"material":0,"indices":10}]},{"primitives":[{"attributes":{"NORMAL":47,"POSITION":46,"TEXCOORD_0":48},"mode":4,"material":0,"indices":11}]},{"primitives":[{"attributes":{"NORMAL":50,"POSITION":49,"TEXCOORD_0":51},"mode":4,"material":1,"indices":12}]}],"nodes":[{"mesh":0},{"mesh":1},{"mesh":2},{"mesh":3},{"mesh":4},{"mesh":5},{"mesh":6},{"mesh":7},{"mesh":8},{"mesh":9},{"mesh":10},{"mesh":11},{"mesh":12}],"scenes":[{"nodes":[0,1,2,3,4,5,6,7,8,9,10,11,12]}]}