{"asset":{"generator":"glTF-Transform v3.10.0","version":"2.0"},"accessors":[{"type":"SCALAR","componentType":5125,"count":42492,"bufferView":0,"byteOffset":0},{"type":"SCALAR","componentType":5125,"count":43890,"bufferView":0,"byteOffset":169968},{"type":"SCALAR","componentType":5125,"count":43896,"bufferView":0,"byteOffset":345528},{"type":"SCALAR","componentType":5125,"count":45156,"bufferView":0,"byteOffset":521112},{"type":"SCALAR","componentType":5125,"count":50142,"bufferView":0,"byteOffset":701736},{"type":"SCALAR","componentType":5125,"count":50238,"bufferView":0,"byteOffset":902304},{"type":"SCALAR","componentType":5125,"count":54006,"bufferView":0,"byteOffset":1103256},{"type":"SCALAR","componentType":5125,"count":52008,"bufferView":0,"byteOffset":1319280},{"type":"SCALAR","componentType":5125,"count":55194,"bufferView":0,"byteOffset":1527312},{"type":"SCALAR","componentType":5125,"count":52704,"bufferView":0,"byteOffset":1748088},{"type":"SCALAR","componentType":5125,"count":53268,"bufferView":0,"byteOffset":1958904},{"type":"SCALAR","componentType":5125,"count":52632,"bufferView":0,"byteOffset":2171976},{"type":"SCALAR","componentType":5125,"count":55224,"bufferView":0,"byteOffset":2382504},{"type":"SCALAR","componentType":5125,"count":108324,"bufferView":0,"byteOffset":2603400},{"type":"VEC3","componentType":5126,"count":7984,"max":[-0.018074603751301765,0.0031148437410593033,0.004584200214594603],"min":[-0.024429820477962494,-0.0004207031161058694,-0.004584200214594603],"bufferView":1,"byteOffset":0},{"type":"VEC3","componentType":5126,"count":7984,"bufferView":1,"byteOffset":12},{"type":"VEC2","componentType":5126,"count":7984,"bufferView":1,"byteOffset":24},{"type":"VEC3","componentType":5126,"count":7984,"max":[0.04082402586936951,0.0031148437410593033,0.004584200214594603],"min":[0.03446881100535393,-0.0004207031161058694,-0.004584200214594603],"bufferView":2,"byteOffset":0},{"type":"VEC3","componentType":5126,"count":7984,"bufferView":2,"byteOffset":12},{"type":"VEC3","componentType":5126,"count":8355,"max":[-0.03995714336633682,0.00912304688245058,0.003785973647609353],"min":[-0.04265306144952774,0.006428124848753214,-0.003785973647609353],"bufferView":3,"byteOffset":0},{"type":"VEC3","componentType":5126,"count":8355,"bufferView":3,"byteOffset":12},{"type":"VEC2","componentType":5126,"count":8355,"bufferView":3,"byteOffset":24},{"type":"VEC3","componentType":5126,"count":8348,"max":[0.028261974453926086,0.0030406250152736902,0.006480050273239613],"min":[0.020992638543248177,-0.006206640508025885,-0.006480050273239613],"bufferView":4,"byteOffset":0},{"type":"VEC3","componentType":5126,"count":8348,"bufferView":4,"byteOffset":12},{"type":"VEC2","componentType":5126,"count":8348,"bufferView":4,"byteOffset":24},{"type":"VEC3","componentType":5126,"count":8652,"max":[-0.0402052104473114,0.0044007813557982445,0.003962980583310127],"min":[-0.04238118603825569,-0.007566405925899744,-0.003962980583310127],"bufferView":5,"byteOffset":0},{"type":"VEC3","componentType":5126,"count":8652,"bufferView":5,"byteOffset":12},{"type":"VEC2","componentType":5126,"count":8652,"bufferView":5,"byteOffset":24},{"type":"VEC3","componentType":5126,"count":10057,"max":[0.05902212858200073,0.009592968970537186,0.003701241686940193],"min":[0.054101817309856415,-0.010558202862739563,-0.003701241686940193],"bufferView":6,"byteOffset":0},{"type":"VEC3","componentType":5126,"count":10057,"bufferView":6,"byteOffset":12},{"type":"VEC2","componentType":5126,"count":10057,"bufferView":6,"byteOffset":24},{"type":"VEC3","componentType":5126,"count":10065,"max":[-0.008555603213608265,0.009592968970537186,0.003716245060786605],"min":[-0.013500720262527466,-0.010558202862739563,-0.003716245060786605],"bufferView":7,"byteOffset":0},{"type":"VEC3","componentType":5126,"count":10065,"bufferView":7,"byteOffset":12},{"type":"VEC2","componentType":5126,"count":10065,"bufferView":7,"byteOffset":24},{"type":"VEC3","componentType":5126,"count":11165,"max":[0.030487170442938805,0.004672656301409006,0.003995961043983698],"min":[0.018792247399687767,-0.007838280871510506,-0.003995961043983698],"bufferView":8,"byteOffset":0},{"type":"VEC3","componentType":5126,"count":11165,"bufferView":8,"byteOffset":12},{"type":"VEC2","componentType":5126,"count":11165,"bufferView":8,"byteOffset":24},{"type":"VEC3","componentType":5126,"count":10556,"max":[-0.028015758842229843,0.004648046568036079,0.003988219425082207],"min":[-0.037460681051015854,-0.007813671603798866,-0.003988219425082207],"bufferView":9,"byteOffset":0},{"type":"VEC3","componentType":5126,"count":10556,"bufferView":9,"byteOffset":12},{"type":"VEC2","componentType":5126,"count":10556,"bufferView":9,"byteOffset":24},{"type":"VEC3","componentType":5126,"count":11479,"max":[0.04292486608028412,0.004672656301409006,0.004038844723254442],"min":[0.032367248088121414,-0.007813671603798866,-0.004038844723254442],"bufferView":10,"byteOffset":0},{"type":"VEC3","componentType":5126,"count":11479,"bufferView":10,"byteOffset":12},{"type":"VEC2","componentType":5126,"count":11479,"bufferView":10,"byteOffset":24},{"type":"VEC3","componentType":5126,"count":11479,"max":[-0.015973767265677452,0.004672656301409006,0.004038844723254442],"min":[-0.026531383395195007,-0.007813671603798866,-0.004038844723254442],"bufferView":11,"byteOffset":0},{"type":"VEC3","componentType":5126,"count":11479,"bufferView":11,"byteOffset":12},{"type":"VEC3","componentType":5126,"count":10746,"max":[0.0526176393032074,0.004672656301409006,0.003920966759324074],"min":[0.04477974772453308,-0.007813671603798866,-0.003920966759324074],"bufferView":12,"byteOffset":0},{"type":"VEC3","componentType":5126,"count":10746,"bufferView":12,"byteOffset":12},{"type":"VEC2","componentType":5126,"count":10746,"bufferView":12,"byteOffset":24},{"type":"VEC3","componentType":5126,"count":10920,"max":[0.003065685974434018,0.009370312094688416,0.003996540792286396],"min":[-0.007022204343229532,-0.007813671603798866,-0.003996540792286396],"bufferView":13,"byteOffset":0},{"type":"VEC3","componentType":5126,"count":10920,"bufferView":13,"byteOffset":12},{"type":"VEC2","componentType":5126,"count":10920,"bufferView":13,"byteOffset":24},{"type":"VEC3","componentType":5126,"count":10724,"max":[0.01612135022878647,0.00998867116868496,0.004125489387661219],"min":[0.005934435874223709,-0.007566405925899744,-0.004125489387661219],"bufferView":14,"byteOffset":0},{"type":"VEC3","componentType":5126,"count":10724,"bufferView":14,"byteOffset":12},{"type":"VEC2","componentType":5126,"count":10724,"bufferView":14,"byteOffset":24},{"type":"VEC3","componentType":5126,"count":11426,"max":[-0.046313025057315826,0.009098437614738941,0.004135724622756243],"min":[-0.05882415547966957,-0.007566405925899744,-0.004135724622756243],"bufferView":15,"byteOffset":0},{"type":"VEC3","componentType":5126,"count":11426,"bufferView":15,"byteOffset":12},{"type":"VEC2","componentType":5126,"count":11426,"bufferView":15,"byteOffset":24},{"type":"VEC3","componentType":5126,"count":21378,"max":[0.094875767827034,0.0948757752776146,0.0576719306409359],"min":[-0.094875767827034,-0.0948757752776146,-0.0576719306409359],"bufferView":16,"byteOffset":0},{"type":"VEC3","componentType":5126,"count":21378,"bufferView":16,"byteOffset":12},{"type":"VEC2","componentType":5126,"count":21378,"bufferView":16,"byteOffset":24}],"bufferViews":[{"buffer":0,"byteOffset":0,"byteLength":3036696,"target":34963},{"buffer":0,"byteOffset":3036696,"byteLength":255488,"byteStride":32,"target":34962},{"buffer":0,"byteOffset":3292184,"byteLength":191616,"byteStride":24,"target":34962},{"buffer":0,"byteOffset":3483800,"byteLength":267360,"byteStride":32,"target":34962},{"buffer":0,"byteOffset":3751160,"byteLength":267136,"byteStride":32,"target":34962},{"buffer":0,"byteOffset":4018296,"byteLength":276864,"byteStride":32,"target":34962},{"buffer":0,"byteOffset":4295160,"byteLength":321824,"byteStride":32,"target":34962},{"buffer":0,"byteOffset":4616984,"byteLength":322080,"byteStride":32,"target":34962},{"buffer":0,"byteOffset":4939064,"byteLength":357280,"byteStride":32,"target":34962},{"buffer":0,"byteOffset":5296344,"byteLength":337792,"byteStride":32,"target":34962},{"buffer":0,"byteOffset":5634136,"byteLength":367328,"byteStride":32,"target":34962},{"buffer":0,"byteOffset":6001464,"byteLength":275496,"byteStride":24,"target":34962},{"buffer":0,"byteOffset":6276960,"byteLength":343872,"byteStride":32,"target":34962},{"buffer":0,"byteOffset":6620832,"byteLength":349440,"byteStride":32,"target":34962},{"buffer":0,"byteOffset":6970272,"byteLength":343168,"byteStride":32,"target":34962},{"buffer":0,"byteOffset":7313440,"byteLength":365632,"byteStride":32,"target":34962},{"buffer":0,"byteOffset":7679072,"byteLength":684096,"byteStride":32,"target":34962}],"samplers":[{"magFilter":9729,"minFilter":9729,"wrapS":10497,"wrapT":10497}],"textures":[{"source":0,"sampler":0},{"source":1,"sampler":0},{"source":2,"sampler":0},{"source":3,"sampler":0}],"images":[{"name":"BaseColor","mimeType":"image/png","uri":"baseColor_1.png"},{"name":"Normal","mimeType":"image/png","uri":"normal_1.png"},{"name":"MetallicRoughness","mimeType":"image/png","uri":"metallicRoughness_1.png"},{"name":"BaseColor","mimeType":"image/png","uri":"baseColor_2.png"}],"buffers":[{"uri":"Asset7.bin","byteLength":8363168}],"materials":[{"doubleSided":true,"pbrMetallicRoughness":{"baseColorTexture":{"index":0},"metallicRoughnessTexture":{"index":2}},"normalTexture":{"index":1}},{"doubleSided":true,"pbrMetallicRoughness":{"baseColorTexture":{"index":3},"metallicRoughnessTexture":{"index":2}},"normalTexture":{"index":1}}],"meshes":[{"primitives":[{"attributes":{"NORMAL":15,"POSITION":14,"TEXCOORD_0":16},"mode":4,"material":0,"indices":0}]},{"primitives":[{"attributes":{"NORMAL":18,"POSITION":17,"TEXCOORD_0":16},"mode":4,"material":0,"indices":0}]},{"primitives":[{"attributes":{"NORMAL":20,"POSITION":19,"TEXCOORD_0":21},"mode":4,"material":0,"indices":1}]},{"primitives":[{"attributes":{"NORMAL":23,"POSITION":22,"TEXCOORD_0":24},"mode":4,"material":0,"indices":2}]},{"primitives":[{"attributes":{"NORMAL":26,"POSITION":25,"TEXCOORD_0":27},"mode":4,"material":0,"indices":3}]},{"primitives":[{"attributes":{"NORMAL":29,"POSITION":28,"TEXCOORD_0":30},"mode":4,"material":0,"indices":4}]},{"primitives":[{"attributes":{"NORMAL":32,"POSITION":31,"TEXCOORD_0":33},"mode":4,"material":0,"indices":5}]},{"primitives":[{"attributes":{"NORMAL":35,"POSITION":34,"TEXCOORD_0":36},"mode":4,"material":0,"indices":6}]},{"primitives":[{"attributes":{"NORMAL":38,"POSITION":37,"TEXCOORD_0":39},"mode":4,"material":0,"indices":7}]},{"primitives":[{"attributes":{"NORMAL":41,"POSITION":40,"TEXCOORD_0":42},"mode":4,"material":0,"indices":8}]},{"primitives":[{"attributes":{"NORMAL":44,"POSITION":43,"TEXCOORD_0":42},"mode":4,"material":0,"indices":8}]},{"primitives":[{"attributes":{"NORMAL":46,"POSITION":45,"TEXCOORD_0":47},"mode":4,"material":0,"indices":9}]},{"primitives":[{"attributes":{"NORMAL":49,"POSITION":48,"TEXCOORD_0":50},"mode":4,"material":0,"indices":10}]},{"primitives":[{"attributes":{"NORMAL":52,"POSITION":51,"TEXCOORD_0":53},"mode":4,"material":0,"indices":11}]},{"primitives":[{"attributes":{"NORMAL":55,"POSITION":54,"TEXCOORD_0":56},"mode":4,"material":0,"indices":12}]},{"primitives":[{"attributes":{"NORMAL":58,"POSITION":57,"TEXCOORD_0":59},"mode":4,"material":1,"indices":13}]}],"nodes":[{"mesh":0},{"mesh":1},{"mesh":2},{"mesh":3},{"mesh":4},{"mesh":5},{"mesh":6},{"mesh":7},{"mesh":8},{"mesh":9},{"mesh":10},{"mesh":11},{"mesh":12},{"mesh":13},{"mesh":14},{"mesh":15}],"scenes":[{"nodes":[0,1,2,3,4,5,6,7,8,9,10,11,12,13,14,15]}]}