{"asset":{"generator":"glTF-Transform v3.10.0","version":"2.0"},"accessors":[{"type":"SCALAR","componentType":5125,"count":9120,"bufferView":0,"byteOffset":0},{"type":"SCALAR","componentType":5125,"count":108,"bufferView":0,"byteOffset":36480},{"type":"SCALAR","componentType":5125,"count":6984,"bufferView":0,"byteOffset":36912},{"type":"SCALAR","componentType":5125,"count":4320,"bufferView":0,"byteOffset":64848},{"type":"SCALAR","componentType":5125,"count":4332,"bufferView":0,"byteOffset":82128},{"type":"SCALAR","componentType":5125,"count":11610,"bufferView":0,"byteOffset":99456},{"type":"SCALAR","componentType":5125,"count":312,"bufferView":0,"byteOffset":145896},{"type":"SCALAR","componentType":5125,"count":6156,"bufferView":0,"byteOffset":147144},{"type":"SCALAR","componentType":5125,"count":3486,"bufferView":0,"byteOffset":171768},{"type":"SCALAR","componentType":5125,"count":792,"bufferView":0,"byteOffset":185712},{"type":"SCALAR","componentType":5125,"count":15876,"bufferView":0,"byteOffset":188880},{"type":"SCALAR","componentType":5125,"count":1332,"bufferView":0,"byteOffset":252384},{"type":"SCALAR","componentType":5125,"count":12144,"bufferView":0,"byteOffset":257712},{"type":"VEC3","componentType":5126,"count":2295,"max":[-0.06616776436567307,0.010799700394272804,0.06322035938501358],"min":[-0.0704846978187561,0.0064836847595870495,-0.06800244748592377],"bufferView":1,"byteOffset":0},{"type":"VEC3","componentType":5126,"count":2295,"bufferView":1,"byteOffset":12},{"type":"VEC2","componentType":5126,"count":2295,"bufferView":1,"byteOffset":24},{"type":"VEC3","componentType":5126,"count":48,"max":[-0.06656478345394135,0.0032371999695897102,0.06317958235740662],"min":[-0.07004915177822113,-0.01592607982456684,-0.06800244748592377],"bufferView":2,"byteOffset":0},{"type":"VEC3","componentType":5126,"count":48,"bufferView":2,"byteOffset":12},{"type":"VEC2","componentType":5126,"count":48,"bufferView":2,"byteOffset":24},{"type":"VEC3","componentType":5126,"count":1761,"max":[0.011080140247941017,-0.006140480749309063,0.06335461139678955],"min":[0.0029633434023708105,-0.013788189738988876,-0.06800244748592377],"bufferView":3,"byteOffset":0},{"type":"VEC3","componentType":5126,"count":1761,"bufferView":3,"byteOffset":12},{"type":"VEC2","componentType":5126,"count":1761,"bufferView":3,"byteOffset":24},{"type":"VEC3","componentType":5126,"count":1107,"max":[0.07827193289995193,0.011551653034985065,0.06315036863088608],"min":[0.07039263844490051,-0.020716706290841103,-0.06800244748592377],"bufferView":4,"byteOffset":0},{"type":"VEC3","componentType":5126,"count":1107,"bufferView":4,"byteOffset":12},{"type":"VEC2","componentType":5126,"count":1107,"bufferView":4,"byteOffset":24},{"type":"VEC3","componentType":5126,"count":1110,"max":[-0.03488938882946968,0.011551653034985065,0.06315228343009949],"min":[-0.04280814155936241,-0.020716706290841103,-0.06800244748592377],"bufferView":5,"byteOffset":0},{"type":"VEC3","componentType":5126,"count":1110,"bufferView":5,"byteOffset":12},{"type":"VEC2","componentType":5126,"count":1110,"bufferView":5,"byteOffset":24},{"type":"VEC3","componentType":5126,"count":2933,"max":[0.04651685804128647,0.003633294254541397,0.06318282335996628],"min":[0.03139225021004677,-0.016322173178195953,-0.06800244748592377],"bufferView":6,"byteOffset":0},{"type":"VEC3","componentType":5126,"count":2933,"bufferView":6,"byteOffset":12},{"type":"VEC2","componentType":5126,"count":2933,"bufferView":6,"byteOffset":24},{"type":"VEC3","componentType":5126,"count":124,"max":[-0.07381165027618408,0.010759858414530754,0.06317763775587082],"min":[-0.08818431198596954,-0.01592608168721199,-0.06800244748592377],"bufferView":7,"byteOffset":0},{"type":"VEC3","componentType":5126,"count":124,"bufferView":7,"byteOffset":12},{"type":"VEC2","componentType":5126,"count":124,"bufferView":7,"byteOffset":24},{"type":"VEC3","componentType":5126,"count":1580,"max":[0.06682896614074707,0.012185247614979744,0.06320223957300186],"min":[0.05051646754145622,-0.01592607982456684,-0.06800244748592377],"bufferView":8,"byteOffset":0},{"type":"VEC3","componentType":5126,"count":1580,"bufferView":8,"byteOffset":12},{"type":"VEC2","componentType":5126,"count":1580,"bufferView":8,"byteOffset":24},{"type":"VEC3","componentType":5126,"count":927,"max":[0.029095765203237534,0.008740715682506561,0.06318329274654388],"min":[0.01773209311068058,-0.016322173178195953,-0.06800244748592377],"bufferView":9,"byteOffset":0},{"type":"VEC3","componentType":5126,"count":927,"bufferView":9,"byteOffset":12},{"type":"VEC2","componentType":5126,"count":927,"bufferView":9,"byteOffset":24},{"type":"VEC3","componentType":5126,"count":259,"max":[-0.04581790417432785,0.0032371999695897102,0.063189797103405],"min":[-0.06335774809122086,-0.01592607982456684,-0.06800244748592377],"bufferView":10,"byteOffset":0},{"type":"VEC3","componentType":5126,"count":259,"bufferView":10,"byteOffset":12},{"type":"VEC2","componentType":5126,"count":259,"bufferView":10,"byteOffset":24},{"type":"VEC3","componentType":5126,"count":4009,"max":[0.014762171544134617,0.0036727474071085453,0.0631960853934288],"min":[-0.0005206404603086412,-0.016361627727746964,-0.06800244748592377],"bufferView":11,"byteOffset":0},{"type":"VEC3","componentType":5126,"count":4009,"bufferView":11,"byteOffset":12},{"type":"VEC2","componentType":5126,"count":4009,"bufferView":11,"byteOffset":24},{"type":"VEC3","componentType":5126,"count":402,"max":[-0.0009182968642562628,0.01075985562056303,0.06320880353450775],"min":[-0.03350384160876274,-0.01592608168721199,-0.06800244748592377],"bufferView":12,"byteOffset":0},{"type":"VEC3","componentType":5126,"count":402,"bufferView":12,"byteOffset":12},{"type":"VEC2","componentType":5126,"count":402,"bufferView":12,"byteOffset":24},{"type":"VEC3","componentType":5126,"count":3453,"max":[0.2444668859243393,0.050737008452415466,0.06800244748592377],"min":[-0.2444668859243393,-0.050737008452415466,-0.06800244748592377],"bufferView":13,"byteOffset":0},{"type":"VEC3","componentType":5126,"count":3453,"bufferView":13,"byteOffset":12},{"type":"VEC2","componentType":5126,"count":3453,"bufferView":13,"byteOffset":24}],"bufferViews":[{"buffer":0,"byteOffset":0,"byteLength":306288,"target":34963},{"buffer":0,"byteOffset":306288,"byteLength":73440,"byteStride":32,"target":34962},{"buffer":0,"byteOffset":379728,"byteLength":1536,"byteStride":32,"target":34962},{"buffer":0,"byteOffset":381264,"byteLength":56352,"byteStride":32,"target":34962},{"buffer":0,"byteOffset":437616,"byteLength":35424,"byteStride":32,"target":34962},{"buffer":0,"byteOffset":473040,"byteLength":35520,"byteStride":32,"target":34962},{"buffer":0,"byteOffset":508560,"byteLength":93856,"byteStride":32,"target":34962},{"buffer":0,"byteOffset":602416,"byteLength":3968,"byteStride":32,"target":34962},{"buffer":0,"byteOffset":606384,"byteLength":50560,"byteStride":32,"target":34962},{"buffer":0,"byteOffset":656944,"byteLength":29664,"byteStride":32,"target":34962},{"buffer":0,"byteOffset":686608,"byteLength":8288,"byteStride":32,"target":34962},{"buffer":0,"byteOffset":694896,"byteLength":128288,"byteStride":32,"target":34962},{"buffer":0,"byteOffset":823184,"byteLength":12864,"byteStride":32,"target":34962},{"buffer":0,"byteOffset":836048,"byteLength":110496,"byteStride":32,"target":34962}],"samplers":[{"magFilter":9729,"minFilter":9729,"wrapS":10497,"wrapT":10497}],"textures":[{"source":0,"sampler":0},{"source":1,"sampler":0},{"source":2,"sampler":0},{"source":3,"sampler":0},{"source":4,"sampler":0}],"images":[{"name":"BaseColor","mimeType":"image/png","uri":"baseColor_1.png"},{"name":"Normal","mimeType":"image/png","uri":"normal_1.png"},{"name":"AO","mimeType":"image/png","uri":"occlusion_1.png"},{"name":"MetallicRoughness","mimeType":"image/png","uri":"metallicRoughness_1.png"},{"name":"BaseColor","mimeType":"image/png","uri":"baseColor_2.png"}],"buffers":[{"uri":"Asset9.bin","byteLength":946544}],"materials":[{"doubleSided":true,"pbrMetallicRoughness":{"baseColorTexture":{"index":0},"metallicRoughnessTexture":{"index":3}},"normalTexture":{"index":1},"occlusionTexture":{"index":2}},{"doubleSided":true,"pbrMetallicRoughness":{"baseColorTexture":{"index":4},"metallicRoughnessTexture":{"index":3}},"normalTexture":{"index":1},"occlusionTexture":{"index":2}}],"meshes":[{"primitives":[{"attributes":{"NORMAL":14,"POSITION":13,"TEXCOORD_0":15},"mode":4,"material":0,"indices":0}]},{"primitives":[{"attributes":{"NORMAL":17,"POSITION":16,"TEXCOORD_0":18},"mode":4,"material":0,"indices":1}]},{"primitives":[{"attributes":{"NORMAL":20,"POSITION":19,"TEXCOORD_0":21},"mode":4,"material":0,"indices":2}]},{"primitives":[{"attributes":{"NORMAL":23,"POSITION":22,"TEXCOORD_0":24},"mode":4,"material":0,"indices":3}]},{"primitives":[{"attributes":{"NORMAL":26,"POSITION":25,"TEXCOORD_0":27},"mode":4,"material":0,"indices":4}]},{"primitives":[{"attributes":{"NORMAL":29,"POSITION":28,"TEXCOORD_0":30},"mode":4,"material":0,"indices":5}]},{"primitives":[{"attributes":{"NORMAL":32,"POSITION":31,"TEXCOORD_0":33},"mode":4,"material":0,"indices":6}]},{"primitives":[{"attributes":{"NORMAL":35,"POSITION":34,"TEXCOORD_0":36},"mode":4,"material":0,"indices":7}]},{"primitives":[{"attributes":{"NORMAL":38,"POSITION":37,"TEXCOORD_0":39},"mode":4,"material":0,"indices":8}]},{"primitives":[{"attributes":{"NORMAL":41,"POSITION":40,"TEXCOORD_0":42},"mode":4,"material":0,"indices":9}]},{"primitives":[{"attributes":{"NORMAL":44,"POSITION":43,"TEXCOORD_0":45},"mode":4,"material":0,"indices":10}]},{"primitives":[{"attributes":{"NORMAL":47,"POSITION":46,"TEXCOORD_0":48},"mode":4,"material":0,"indices":11}]},{"primitives":[{"attributes":{"NORMAL":50,"POSITION":49,"TEXCOORD_0":51},"mode":4,"material":1,"indices":12}]}],"nodes":[{"mesh":0},{"mesh":1},{"mesh":2},{"mesh":3},{"mesh":4},{"mesh":5},{"mesh":6},{"mesh":7},{"mesh":8},{"mesh":9},{"mesh":10},{"mesh":11},{"mesh":12}],"scenes":[{"nodes":[0,1,2,3,4,5,6,7,8,9,10,11,12]}]}