{"asset":{"generator":"glTF-Transform v3.10.0","version":"2.0"},"accessors":[{"type":"SCALAR","componentType":5125,"count":3324,"bufferView":0,"byteOffset":0},{"type":"SCALAR","componentType":5125,"count":7134,"bufferView":0,"byteOffset":13296},{"type":"SCALAR","componentType":5125,"count":84,"bufferView":0,"byteOffset":41832},{"type":"SCALAR","componentType":5125,"count":3594,"bufferView":0,"byteOffset":42168},{"type":"SCALAR","componentType":5125,"count":3612,"bufferView":0,"byteOffset":56544},{"type":"SCALAR","componentType":5125,"count":14850,"bufferView":0,"byteOffset":70992},{"type":"SCALAR","componentType":5125,"count":11958,"bufferView":0,"byteOffset":130392},{"type":"SCALAR","componentType":5125,"count":300,"bufferView":0,"byteOffset":178224},{"type":"SCALAR","componentType":5125,"count":10482,"bufferView":0,"byteOffset":179424},{"type":"SCALAR","componentType":5125,"count":444,"bufferView":0,"byteOffset":221352},{"type":"SCALAR","componentType":5125,"count":2994,"bufferView":0,"byteOffset":223128},{"type":"SCALAR","componentType":5125,"count":13482,"bufferView":0,"byteOffset":235104},{"type":"VEC3","componentType":5126,"count":1012,"max":[-0.04096883535385132,-0.0023757305461913347,0.014149326831102371],"min":[-0.048051878809928894,-0.006316398270428181,-0.014149326831102371],"bufferView":1,"byteOffset":0},{"type":"VEC3","componentType":5126,"count":1012,"bufferView":1,"byteOffset":12},{"type":"VEC2","componentType":5126,"count":1012,"bufferView":1,"byteOffset":24},{"type":"VEC3","componentType":5126,"count":1012,"max":[0.02373507060110569,-0.0023757305461913347,0.014149326831102371],"min":[0.016652027145028114,-0.006316398270428181,-0.014149326831102371],"bufferView":2,"byteOffset":0},{"type":"VEC3","componentType":5126,"count":1012,"bufferView":2,"byteOffset":12},{"type":"VEC3","componentType":5126,"count":1995,"max":[-0.013027062639594078,-0.0024580880999565125,0.017355455085635185],"min":[-0.021128131076693535,-0.012764760293066502,-0.017355455085635185],"bufferView":3,"byteOffset":0},{"type":"VEC3","componentType":5126,"count":1995,"bufferView":3,"byteOffset":12},{"type":"VEC2","componentType":5126,"count":1995,"bufferView":3,"byteOffset":24},{"type":"VEC3","componentType":5126,"count":48,"max":[-0.026695284992456436,0.005285256542265415,0.012981550768017769],"min":[-0.02912028506398201,-0.014280368573963642,-0.012981550768017769],"bufferView":4,"byteOffset":0},{"type":"VEC3","componentType":5126,"count":48,"bufferView":4,"byteOffset":12},{"type":"VEC2","componentType":5126,"count":48,"bufferView":4,"byteOffset":24},{"type":"VEC3","componentType":5126,"count":48,"max":[-0.033198606222867966,0.005285256542265415,0.012981550768017769],"min":[-0.03562360629439354,-0.014280368573963642,-0.012981550768017769],"bufferView":5,"byteOffset":0},{"type":"VEC3","componentType":5126,"count":48,"bufferView":5,"byteOffset":12},{"type":"VEC3","componentType":5126,"count":1107,"max":[0.05683048814535141,0.004844593815505505,0.012663181871175766],"min":[0.05134650692343712,-0.01761474460363388,-0.012663181871175766],"bufferView":6,"byteOffset":0},{"type":"VEC3","componentType":5126,"count":1107,"bufferView":6,"byteOffset":12},{"type":"VEC2","componentType":5126,"count":1107,"bufferView":6,"byteOffset":24},{"type":"VEC3","componentType":5126,"count":1110,"max":[-0.0022245326545089483,0.004844713490456343,0.012684009969234467],"min":[-0.007736093830317259,-0.01761476881802082,-0.012684009969234467],"bufferView":7,"byteOffset":0},{"type":"VEC3","componentType":5126,"count":1110,"bufferView":7,"byteOffset":12},{"type":"VEC2","componentType":5126,"count":1110,"bufferView":7,"byteOffset":24},{"type":"VEC3","componentType":5126,"count":4469,"max":[-0.010546909645199776,-0.0006392342038452625,0.013030989095568657],"min":[-0.023581508547067642,-0.01458361279219389,-0.013030989095568657],"bufferView":8,"byteOffset":0},{"type":"VEC3","componentType":5126,"count":4469,"bufferView":8,"byteOffset":12},{"type":"VEC2","componentType":5126,"count":4469,"bufferView":8,"byteOffset":24},{"type":"VEC3","componentType":5126,"count":3631,"max":[0.0260758139193058,-0.0006393344374373555,0.012917920015752316],"min":[0.014309613034129143,-0.014554492197930813,-0.012917920015752316],"bufferView":9,"byteOffset":0},{"type":"VEC3","componentType":5126,"count":3631,"bufferView":9,"byteOffset":12},{"type":"VEC2","componentType":5126,"count":3631,"bufferView":9,"byteOffset":24},{"type":"VEC3","componentType":5126,"count":3631,"max":[-0.03862809017300606,-0.0006393344374373555,0.012917920015752316],"min":[-0.050394292920827866,-0.014554492197930813,-0.012917920015752316],"bufferView":10,"byteOffset":0},{"type":"VEC3","componentType":5126,"count":152,"max":[-0.053508177399635315,0.004293459467589855,0.012981549836695194],"min":[-0.06731442362070084,-0.014280368573963642,-0.012981549836695194],"bufferView":11,"byteOffset":0},{"type":"VEC3","componentType":5126,"count":152,"bufferView":11,"byteOffset":12},{"type":"VEC2","componentType":5126,"count":152,"bufferView":11,"byteOffset":24},{"type":"VEC3","componentType":5126,"count":3175,"max":[0.049692992120981216,-0.0006393531803041697,0.012953302823007107],"min":[0.04095705598592758,-0.01455575879663229,-0.012953302823007107],"bufferView":12,"byteOffset":0},{"type":"VEC3","componentType":5126,"count":3175,"bufferView":12,"byteOffset":12},{"type":"VEC2","componentType":5126,"count":3175,"bufferView":12,"byteOffset":24},{"type":"VEC3","componentType":5126,"count":208,"max":[0.013538111932575703,0.004293459001928568,0.01333257183432579],"min":[0.00042072919313795865,-0.014280368573963642,-0.01333257183432579],"bufferView":13,"byteOffset":0},{"type":"VEC3","componentType":5126,"count":208,"bufferView":13,"byteOffset":12},{"type":"VEC2","componentType":5126,"count":208,"bufferView":13,"byteOffset":24},{"type":"VEC3","componentType":5126,"count":947,"max":[0.03985510393977165,-0.0009424783056601882,0.013307634741067886],"min":[0.02731643244624138,-0.02037060260772705,-0.013307634741067886],"bufferView":14,"byteOffset":0},{"type":"VEC3","componentType":5126,"count":947,"bufferView":14,"byteOffset":12},{"type":"VEC2","componentType":5126,"count":947,"bufferView":14,"byteOffset":24},{"type":"VEC3","componentType":5126,"count":4367,"max":[0.15883000195026398,0.11411289125680923,0.09497957676649094],"min":[-0.15883000195026398,-0.11411289125680923,-0.09497957676649094],"bufferView":15,"byteOffset":0},{"type":"VEC3","componentType":5126,"count":4367,"bufferView":15,"byteOffset":12},{"type":"VEC2","componentType":5126,"count":4367,"bufferView":15,"byteOffset":24}],"bufferViews":[{"buffer":0,"byteOffset":0,"byteLength":289032,"target":34963},{"buffer":0,"byteOffset":289032,"byteLength":32384,"byteStride":32,"target":34962},{"buffer":0,"byteOffset":321416,"byteLength":24288,"byteStride":24,"target":34962},{"buffer":0,"byteOffset":345704,"byteLength":63840,"byteStride":32,"target":34962},{"buffer":0,"byteOffset":409544,"byteLength":1536,"byteStride":32,"target":34962},{"buffer":0,"byteOffset":411080,"byteLength":1152,"byteStride":24,"target":34962},{"buffer":0,"byteOffset":412232,"byteLength":35424,"byteStride":32,"target":34962},{"buffer":0,"byteOffset":447656,"byteLength":35520,"byteStride":32,"target":34962},{"buffer":0,"byteOffset":483176,"byteLength":143008,"byteStride":32,"target":34962},{"buffer":0,"byteOffset":626184,"byteLength":116192,"byteStride":32,"target":34962},{"buffer":0,"byteOffset":742376,"byteLength":43572,"byteStride":12,"target":34962},{"buffer":0,"byteOffset":785948,"byteLength":4864,"byteStride":32,"target":34962},{"buffer":0,"byteOffset":790812,"byteLength":101600,"byteStride":32,"target":34962},{"buffer":0,"byteOffset":892412,"byteLength":6656,"byteStride":32,"target":34962},{"buffer":0,"byteOffset":899068,"byteLength":30304,"byteStride":32,"target":34962},{"buffer":0,"byteOffset":929372,"byteLength":139744,"byteStride":32,"target":34962}],"samplers":[{"magFilter":9729,"minFilter":9729,"wrapS":10497,"wrapT":10497}],"textures":[{"source":0,"sampler":0},{"source":1,"sampler":0},{"source":2,"sampler":0},{"source":3,"sampler":0}],"images":[{"name":"BaseColor","mimeType":"image/png","uri":"baseColor_1.png"},{"name":"Normal","mimeType":"image/png","uri":"normal_1.png"},{"name":"MetallicRoughness","mimeType":"image/png","uri":"metallicRoughness_1.png"},{"name":"BaseColor","mimeType":"image/png","uri":"baseColor_2.png"}],"buffers":[{"uri":"Asset3.bin","byteLength":1069116}],"materials":[{"doubleSided":true,"pbrMetallicRoughness":{"baseColorTexture":{"index":0},"metallicRoughnessTexture":{"index":2}},"normalTexture":{"index":1}},{"doubleSided":true,"pbrMetallicRoughness":{"baseColorTexture":{"index":3},"metallicRoughnessTexture":{"index":2}},"normalTexture":{"index":1}}],"meshes":[{"primitives":[{"attributes":{"NORMAL":13,"POSITION":12,"TEXCOORD_0":14},"mode":4,"material":0,"indices":0}]},{"primitives":[{"attributes":{"NORMAL":16,"POSITION":15,"TEXCOORD_0":14},"mode":4,"material":0,"indices":0}]},{"primitives":[{"attributes":{"NORMAL":18,"POSITION":17,"TEXCOORD_0":19},"mode":4,"material":0,"indices":1}]},{"primitives":[{"attributes":{"NORMAL":21,"POSITION":20,"TEXCOORD_0":22},"mode":4,"material":0,"indices":2}]},{"primitives":[{"attributes":{"NORMAL":24,"POSITION":23,"TEXCOORD_0":22},"mode":4,"material":0,"indices":2}]},{"primitives":[{"attributes":{"NORMAL":26,"POSITION":25,"TEXCOORD_0":27},"mode":4,"material":0,"indices":3}]},{"primitives":[{"attributes":{"NORMAL":29,"POSITION":28,"TEXCOORD_0":30},"mode":4,"material":0,"indices":4}]},{"primitives":[{"attributes":{"NORMAL":32,"POSITION":31,"TEXCOORD_0":33},"mode":4,"material":0,"indices":5}]},{"primitives":[{"attributes":{"NORMAL":35,"POSITION":34,"TEXCOORD_0":36},"mode":4,"material":0,"indices":6}]},{"primitives":[{"attributes":{"POSITION":37,"NORMAL":35,"TEXCOORD_0":36},"mode":4,"material":0,"indices":6}]},{"primitives":[{"attributes":{"NORMAL":39,"POSITION":38,"TEXCOORD_0":40},"mode":4,"material":0,"indices":7}]},{"primitives":[{"attributes":{"NORMAL":42,"POSITION":41,"TEXCOORD_0":43},"mode":4,"material":0,"indices":8}]},{"primitives":[{"attributes":{"NORMAL":45,"POSITION":44,"TEXCOORD_0":46},"mode":4,"material":0,"indices":9}]},{"primitives":[{"attributes":{"NORMAL":48,"POSITION":47,"TEXCOORD_0":49},"mode":4,"material":0,"indices":10}]},{"primitives":[{"attributes":{"NORMAL":51,"POSITION":50,"TEXCOORD_0":52},"mode":4,"material":1,"indices":11}]}],"nodes":[{"mesh":0},{"mesh":1},{"mesh":2},{"mesh":3},{"mesh":4},{"mesh":5},{"mesh":6},{"mesh":7},{"mesh":8},{"mesh":9},{"mesh":10},{"mesh":11},{"mesh":12},{"mesh":13},{"mesh":14}],"scenes":[{"nodes":[0,1,2,3,4,5,6,7,8,9,10,11,12,13,14]}]}