{"asset":{"generator":"glTF-Transform v4.0.2","version":"2.0"},"accessors":[{"type":"SCALAR","componentType":5123,"count":9426,"bufferView":0,"byteOffset":0},{"type":"VEC3","componentType":5126,"count":4701,"bufferView":1,"byteOffset":0},{"type":"VEC3","componentType":5126,"count":4701,"max":[0.12984980642795563,0.07956284284591675,0.08857640624046326],"min":[-0.12984980642795563,-0.07956284284591675,-0.08857640624046326],"bufferView":1,"byteOffset":12},{"type":"VEC2","componentType":5126,"count":4701,"bufferView":1,"byteOffset":24}],"bufferViews":[{"buffer":0,"byteOffset":0,"byteLength":18852,"target":34963},{"buffer":0,"byteOffset":18852,"byteLength":150432,"byteStride":32,"target":34962}],"samplers":[{"magFilter":9729,"minFilter":9729,"wrapS":10497,"wrapT":10497}],"textures":[{"sampler":0,"extensions":{"EXT_texture_webp":{"source":0}}},{"sampler":0,"extensions":{"EXT_texture_webp":{"source":1}}},{"sampler":0,"extensions":{"EXT_texture_webp":{"source":2}}}],"images":[{"name":"BaseColor","mimeType":"image/webp","uri":"baseColor_1.webp"},{"name":"Normal","mimeType":"image/webp","uri":"normal_1.webp"},{"name":"MetallicRoughness","mimeType":"image/webp","uri":"metallicRoughness_1.webp"}],"buffers":[{"uri":"key.bin","byteLength":169284}],"materials":[{"doubleSided":true,"pbrMetallicRoughness":{"baseColorTexture":{"index":0},"metallicRoughnessTexture":{"index":2}},"normalTexture":{"index":1}}],"meshes":[{"primitives":[{"attributes":{"NORMAL":1,"POSITION":2,"TEXCOORD_0":3},"mode":4,"material":0,"indices":0}]}],"nodes":[{"mesh":0}],"scenes":[{"nodes":[0]}],"extensionsUsed":["EXT_texture_webp"],"extensionsRequired":["EXT_texture_webp"]}