{
	"asset":{
		"generator":"Khronos glTF Blender I/O v4.2.60",
		"version":"2.0"
	},
	"extensionsUsed":[
		"EXT_texture_webp"
	],
	"extensionsRequired":[
		"EXT_texture_webp"
	],
	"scene":0,
	"scenes":[
		{
			"name":"Scene",
			"nodes":[
				0
			]
		}
	],
	"nodes":[
		{
			"mesh":0,
			"name":"Mesh_0.004"
		}
	],
	"materials":[
		{
			"doubleSided":true,
			"name":"Material_0.004",
			"normalTexture":{
				"index":0
			},
			"pbrMetallicRoughness":{
				"baseColorTexture":{
					"index":1
				},
				"metallicRoughnessTexture":{
					"index":2
				}
			}
		}
	],
	"meshes":[
		{
			"name":"Mesh_0.004",
			"primitives":[
				{
					"attributes":{
						"POSITION":0,
						"NORMAL":1,
						"TEXCOORD_0":2
					},
					"indices":3,
					"material":0
				}
			]
		}
	],
	"textures":[
		{
			"extensions":{
				"EXT_texture_webp":{
					"source":0
				}
			},
			"sampler":0
		},
		{
			"extensions":{
				"EXT_texture_webp":{
					"source":1
				}
			},
			"sampler":0
		},
		{
			"extensions":{
				"EXT_texture_webp":{
					"source":2
				}
			},
			"sampler":0
		}
	],
	"images":[
		{
			"mimeType":"image/webp",
			"name":"Normal",
			"uri":"Normal.webp"
		},
		{
			"mimeType":"image/webp",
			"name":"BaseColor",
			"uri":"BaseColor.webp"
		},
		{
			"mimeType":"image/webp",
			"name":"MetallicRoughness",
			"uri":"MetallicRoughness.webp"
		}
	],
	"accessors":[
		{
			"bufferView":0,
			"componentType":5126,
			"count":5487,
			"max":[
				0.12984980642795563,
				0.07956284284591675,
				0.08857640624046326
			],
			"min":[
				-0.12984980642795563,
				-0.07956284284591675,
				-0.08874355256557465
			],
			"type":"VEC3"
		},
		{
			"bufferView":1,
			"componentType":5126,
			"count":5487,
			"type":"VEC3"
		},
		{
			"bufferView":2,
			"componentType":5126,
			"count":5487,
			"type":"VEC2"
		},
		{
			"bufferView":3,
			"componentType":5123,
			"count":7080,
			"type":"SCALAR"
		}
	],
	"bufferViews":[
		{
			"buffer":0,
			"byteLength":65844,
			"byteOffset":0,
			"target":34962
		},
		{
			"buffer":0,
			"byteLength":65844,
			"byteOffset":65844,
			"target":34962
		},
		{
			"buffer":0,
			"byteLength":43896,
			"byteOffset":131688,
			"target":34962
		},
		{
			"buffer":0,
			"byteLength":14160,
			"byteOffset":175584,
			"target":34963
		}
	],
	"samplers":[
		{
			"magFilter":9729,
			"minFilter":9987
		}
	],
	"buffers":[
		{
			"byteLength":189744,
			"uri":"key.bin"
		}
	]
}
