{
	"asset":{
		"generator":"Khronos glTF Blender I/O v4.2.60",
		"version":"2.0"
	},
	"extensionsUsed":[
		"EXT_texture_webp"
	],
	"extensionsRequired":[
		"EXT_texture_webp"
	],
	"scene":0,
	"scenes":[
		{
			"name":"Scene",
			"nodes":[
				0
			]
		}
	],
	"nodes":[
		{
			"mesh":0,
			"name":"Mesh_0.011"
		}
	],
	"materials":[
		{
			"doubleSided":true,
			"name":"Material_0.011",
			"normalTexture":{
				"index":0
			},
			"pbrMetallicRoughness":{
				"baseColorTexture":{
					"index":1
				},
				"metallicRoughnessTexture":{
					"index":2
				}
			}
		}
	],
	"meshes":[
		{
			"name":"Mesh_0.011",
			"primitives":[
				{
					"attributes":{
						"POSITION":0,
						"NORMAL":1,
						"TEXCOORD_0":2
					},
					"indices":3,
					"material":0
				}
			]
		}
	],
	"textures":[
		{
			"extensions":{
				"EXT_texture_webp":{
					"source":0
				}
			},
			"sampler":0
		},
		{
			"extensions":{
				"EXT_texture_webp":{
					"source":1
				}
			},
			"sampler":0
		},
		{
			"extensions":{
				"EXT_texture_webp":{
					"source":2
				}
			},
			"sampler":0
		}
	],
	"images":[
		{
			"mimeType":"image/webp",
			"name":"Normal",
			"uri":"Normal.webp"
		},
		{
			"mimeType":"image/webp",
			"name":"BaseColor",
			"uri":"BaseColor.webp"
		},
		{
			"mimeType":"image/webp",
			"name":"MetallicRoughness",
			"uri":"MetallicRoughness.webp"
		}
	],
	"accessors":[
		{
			"bufferView":0,
			"componentType":5126,
			"count":2518,
			"max":[
				0.03892235457897186,
				0.08073686063289642,
				0.03894595056772232
			],
			"min":[
				-0.039070211350917816,
				-0.08073686063289642,
				-0.03900660574436188
			],
			"type":"VEC3"
		},
		{
			"bufferView":1,
			"componentType":5126,
			"count":2518,
			"type":"VEC3"
		},
		{
			"bufferView":2,
			"componentType":5126,
			"count":2518,
			"type":"VEC2"
		},
		{
			"bufferView":3,
			"componentType":5123,
			"count":14028,
			"type":"SCALAR"
		}
	],
	"bufferViews":[
		{
			"buffer":0,
			"byteLength":30216,
			"byteOffset":0,
			"target":34962
		},
		{
			"buffer":0,
			"byteLength":30216,
			"byteOffset":30216,
			"target":34962
		},
		{
			"buffer":0,
			"byteLength":20144,
			"byteOffset":60432,
			"target":34962
		},
		{
			"buffer":0,
			"byteLength":28056,
			"byteOffset":80576,
			"target":34963
		}
	],
	"samplers":[
		{
			"magFilter":9729,
			"minFilter":9987
		}
	],
	"buffers":[
		{
			"byteLength":108632,
			"uri":"screw_2.bin"
		}
	]
}
