{
	"asset":{
		"generator":"Khronos glTF Blender I/O v4.2.60",
		"version":"2.0"
	},
	"extensionsUsed":[
		"EXT_texture_webp"
	],
	"extensionsRequired":[
		"EXT_texture_webp"
	],
	"scene":0,
	"scenes":[
		{
			"name":"Scene",
			"nodes":[
				0
			]
		}
	],
	"nodes":[
		{
			"mesh":0,
			"name":"Mesh_0.002"
		}
	],
	"materials":[
		{
			"doubleSided":true,
			"name":"Material_0.002",
			"normalTexture":{
				"index":0
			},
			"pbrMetallicRoughness":{
				"baseColorTexture":{
					"index":1
				},
				"metallicRoughnessTexture":{
					"index":2
				}
			}
		}
	],
	"meshes":[
		{
			"name":"Mesh_0.002",
			"primitives":[
				{
					"attributes":{
						"POSITION":0,
						"NORMAL":1,
						"TEXCOORD_0":2
					},
					"indices":3,
					"material":0
				}
			]
		}
	],
	"textures":[
		{
			"extensions":{
				"EXT_texture_webp":{
					"source":0
				}
			},
			"sampler":0
		},
		{
			"extensions":{
				"EXT_texture_webp":{
					"source":1
				}
			},
			"sampler":0
		},
		{
			"extensions":{
				"EXT_texture_webp":{
					"source":2
				}
			},
			"sampler":0
		}
	],
	"images":[
		{
			"mimeType":"image/webp",
			"name":"Normal",
			"uri":"Normal.webp"
		},
		{
			"mimeType":"image/webp",
			"name":"BaseColor",
			"uri":"BaseColor.webp"
		},
		{
			"mimeType":"image/webp",
			"name":"MetallicRoughness",
			"uri":"MetallicRoughness.webp"
		}
	],
	"accessors":[
		{
			"bufferView":0,
			"componentType":5126,
			"count":28113,
			"max":[
				0.13490226864814758,
				0.07920174300670624,
				0.04978465661406517
			],
			"min":[
				-0.13484372198581696,
				-0.07932320982217789,
				-0.04970725253224373
			],
			"type":"VEC3"
		},
		{
			"bufferView":1,
			"componentType":5126,
			"count":28113,
			"type":"VEC3"
		},
		{
			"bufferView":2,
			"componentType":5126,
			"count":28113,
			"type":"VEC2"
		},
		{
			"bufferView":3,
			"componentType":5123,
			"count":67176,
			"type":"SCALAR"
		}
	],
	"bufferViews":[
		{
			"buffer":0,
			"byteLength":337356,
			"byteOffset":0,
			"target":34962
		},
		{
			"buffer":0,
			"byteLength":337356,
			"byteOffset":337356,
			"target":34962
		},
		{
			"buffer":0,
			"byteLength":224904,
			"byteOffset":674712,
			"target":34962
		},
		{
			"buffer":0,
			"byteLength":134352,
			"byteOffset":899616,
			"target":34963
		}
	],
	"samplers":[
		{
			"magFilter":9729,
			"minFilter":9987
		}
	],
	"buffers":[
		{
			"byteLength":1033968,
			"uri":"hammer.bin"
		}
	]
}
