{"asset":{"generator":"glTF-Transform v3.10.0","version":"2.0"},"accessors":[{"type":"SCALAR","componentType":5125,"count":9216,"bufferView":0,"byteOffset":0},{"type":"VEC3","componentType":5126,"count":2572,"max":[0.1372832953929901,0.10371659696102142,0.025644810870289803],"min":[-0.1372832953929901,-0.10371659696102142,-0.025644810870289803],"bufferView":1,"byteOffset":0},{"type":"VEC3","componentType":5126,"count":2572,"bufferView":1,"byteOffset":12},{"type":"VEC2","componentType":5126,"count":2572,"bufferView":1,"byteOffset":24}],"bufferViews":[{"buffer":0,"byteOffset":0,"byteLength":36864,"target":34963},{"buffer":0,"byteOffset":36864,"byteLength":82304,"byteStride":32,"target":34962}],"samplers":[{"magFilter":9729,"minFilter":9729,"wrapS":10497,"wrapT":10497}],"textures":[{"source":0,"sampler":0},{"source":1,"sampler":0},{"source":2,"sampler":0},{"source":3,"sampler":0}],"images":[{"name":"BaseColor","mimeType":"image/png","uri":"baseColor_1.png"},{"name":"Normal","mimeType":"image/png","uri":"normal_1.png"},{"name":"AO","mimeType":"image/png","uri":"occlusion_1.png"},{"name":"MetallicRoughness","mimeType":"image/png","uri":"metallicRoughness_1.png"}],"buffers":[{"uri":"Asset8.bin","byteLength":119168}],"materials":[{"doubleSided":true,"pbrMetallicRoughness":{"baseColorTexture":{"index":0},"metallicRoughnessTexture":{"index":3}},"normalTexture":{"index":1},"occlusionTexture":{"index":2}}],"meshes":[{"primitives":[{"attributes":{"NORMAL":2,"POSITION":1,"TEXCOORD_0":3},"mode":4,"material":0,"indices":0}]}],"nodes":[{"mesh":0}],"scenes":[{"nodes":[0]}]}