{"asset":{"generator":"glTF-Transform v3.10.0","version":"2.0"},"accessors":[{"type":"SCALAR","componentType":5125,"count":42048,"bufferView":0,"byteOffset":0},{"type":"SCALAR","componentType":5125,"count":42216,"bufferView":0,"byteOffset":168192},{"type":"SCALAR","componentType":5125,"count":41928,"bufferView":0,"byteOffset":337056},{"type":"SCALAR","componentType":5125,"count":51144,"bufferView":0,"byteOffset":504768},{"type":"SCALAR","componentType":5125,"count":50898,"bufferView":0,"byteOffset":709344},{"type":"SCALAR","componentType":5125,"count":51414,"bufferView":0,"byteOffset":912936},{"type":"SCALAR","componentType":5125,"count":52476,"bufferView":0,"byteOffset":1118592},{"type":"SCALAR","componentType":5125,"count":55080,"bufferView":0,"byteOffset":1328496},{"type":"SCALAR","componentType":5125,"count":55428,"bufferView":0,"byteOffset":1548816},{"type":"SCALAR","componentType":5125,"count":56190,"bufferView":0,"byteOffset":1770528},{"type":"SCALAR","componentType":5125,"count":61968,"bufferView":0,"byteOffset":1995288},{"type":"SCALAR","componentType":5125,"count":59436,"bufferView":0,"byteOffset":2243160},{"type":"SCALAR","componentType":5125,"count":62148,"bufferView":0,"byteOffset":2480904},{"type":"SCALAR","componentType":5125,"count":66918,"bufferView":0,"byteOffset":2729496},{"type":"VEC3","componentType":5126,"count":7832,"max":[-0.03712240979075432,0.011141161434352398,0.005775877740234137],"min":[-0.043818797916173935,0.0063065430149436,-0.005775877740234137],"bufferView":1,"byteOffset":0},{"type":"VEC3","componentType":5126,"count":7832,"bufferView":1,"byteOffset":12},{"type":"VEC2","componentType":5126,"count":7832,"bufferView":1,"byteOffset":24},{"type":"VEC3","componentType":5126,"count":7864,"max":[0.03596869856119156,0.011141161434352398,0.005764087662100792],"min":[0.029001805931329727,0.0063065430149436,-0.005764087662100792],"bufferView":2,"byteOffset":0},{"type":"VEC3","componentType":5126,"count":7864,"bufferView":2,"byteOffset":12},{"type":"VEC2","componentType":5126,"count":7864,"bufferView":2,"byteOffset":24},{"type":"VEC3","componentType":5126,"count":7810,"max":[-0.006763525307178497,0.011141161434352398,0.007521230727434158],"min":[-0.013459911569952965,-0.0032717285212129354,-0.007521230727434158],"bufferView":3,"byteOffset":0},{"type":"VEC3","componentType":5126,"count":7810,"bufferView":3,"byteOffset":12},{"type":"VEC2","componentType":5126,"count":7810,"bufferView":3,"byteOffset":24},{"type":"VEC3","componentType":5126,"count":10320,"max":[-0.01727270521223545,0.020000195130705833,0.004683254286646843],"min":[-0.024630125612020493,-0.004022509790956974,-0.004683254286646843],"bufferView":4,"byteOffset":0},{"type":"VEC3","componentType":5126,"count":10320,"bufferView":4,"byteOffset":12},{"type":"VEC2","componentType":5126,"count":10320,"bufferView":4,"byteOffset":24},{"type":"VEC3","componentType":5126,"count":10320,"max":[-0.026101410388946533,0.020000215619802475,0.004683259408921003],"min":[-0.03345884010195732,-0.004022533539682627,-0.004683255217969418],"bufferView":5,"byteOffset":0},{"type":"VEC3","componentType":5126,"count":10320,"bufferView":5,"byteOffset":12},{"type":"VEC3","componentType":5126,"count":10313,"max":[0.07539643347263336,0.020000195130705833,0.004683758597820997],"min":[0.06912094354629517,-0.010028808377683163,-0.004683758597820997],"bufferView":6,"byteOffset":0},{"type":"VEC3","componentType":5126,"count":10313,"bufferView":6,"byteOffset":12},{"type":"VEC2","componentType":5126,"count":10313,"bufferView":6,"byteOffset":24},{"type":"VEC3","componentType":5126,"count":10397,"max":[0.005158642306923866,0.020000195130705833,0.004683699458837509],"min":[-0.0011175292311236262,-0.010028808377683163,-0.004683699458837509],"bufferView":7,"byteOffset":0},{"type":"VEC3","componentType":5126,"count":10397,"bufferView":7,"byteOffset":12},{"type":"VEC2","componentType":5126,"count":10397,"bufferView":7,"byteOffset":24},{"type":"VEC3","componentType":5126,"count":10758,"max":[-0.004511181730777025,0.011891943402588367,0.004681865684688091],"min":[-0.015711668878793716,-0.004022509790956974,-0.004681865684688091],"bufferView":8,"byteOffset":0},{"type":"VEC3","componentType":5126,"count":10758,"bufferView":8,"byteOffset":12},{"type":"VEC2","componentType":5126,"count":10758,"bufferView":8,"byteOffset":24},{"type":"VEC3","componentType":5126,"count":11442,"max":[0.06734946370124817,0.011891943402588367,0.004769139923155308],"min":[0.054707467555999756,-0.004052831791341305,-0.004769139923155308],"bufferView":9,"byteOffset":0},{"type":"VEC3","componentType":5126,"count":11442,"bufferView":9,"byteOffset":12},{"type":"VEC2","componentType":5126,"count":11442,"bufferView":9,"byteOffset":24},{"type":"VEC3","componentType":5126,"count":11566,"max":[-0.03487006574869156,0.011891943402588367,0.004705503582954407],"min":[-0.046070557087659836,-0.004022509790956974,-0.004705503582954407],"bufferView":10,"byteOffset":0},{"type":"VEC3","componentType":5126,"count":11566,"bufferView":10,"byteOffset":12},{"type":"VEC2","componentType":5126,"count":11566,"bufferView":10,"byteOffset":24},{"type":"VEC3","componentType":5126,"count":11737,"max":[0.03825083002448082,0.011891943402588367,0.004659614525735378],"min":[0.025428662076592445,-0.004022509790956974,-0.004659614525735378],"bufferView":11,"byteOffset":0},{"type":"VEC3","componentType":5126,"count":11737,"bufferView":11,"byteOffset":12},{"type":"VEC2","componentType":5126,"count":11737,"bufferView":11,"byteOffset":24},{"type":"VEC3","componentType":5126,"count":13306,"max":[-0.04733256623148918,0.020000195130705833,0.004811212420463562],"min":[-0.06574008613824844,-0.004022509790956974,-0.004811212420463562],"bufferView":12,"byteOffset":0},{"type":"VEC3","componentType":5126,"count":13306,"bufferView":12,"byteOffset":12},{"type":"VEC2","componentType":5126,"count":13306,"bufferView":12,"byteOffset":24},{"type":"VEC3","componentType":5126,"count":12604,"max":[0.05440659075975418,0.012312792241573334,0.004704351536929607],"min":[0.03993247076869011,-0.010028808377683163,-0.004704351536929607],"bufferView":13,"byteOffset":0},{"type":"VEC3","componentType":5126,"count":12604,"bufferView":13,"byteOffset":12},{"type":"VEC2","componentType":5126,"count":12604,"bufferView":13,"byteOffset":24},{"type":"VEC3","componentType":5126,"count":13356,"max":[0.02906186506152153,0.020000195130705833,0.004825108218938112],"min":[0.0058494629338383675,-0.004022509790956974,-0.004825108218938112],"bufferView":14,"byteOffset":0},{"type":"VEC3","componentType":5126,"count":13356,"bufferView":14,"byteOffset":12},{"type":"VEC2","componentType":5126,"count":13356,"bufferView":14,"byteOffset":24},{"type":"VEC3","componentType":5126,"count":13669,"max":[0.17347407341003418,0.1016775369644165,0.07269018888473511],"min":[-0.17347407341003418,-0.1016775369644165,-0.07269018888473511],"bufferView":15,"byteOffset":0},{"type":"VEC3","componentType":5126,"count":13669,"bufferView":15,"byteOffset":12},{"type":"VEC2","componentType":5126,"count":13669,"bufferView":15,"byteOffset":24}],"bufferViews":[{"buffer":0,"byteOffset":0,"byteLength":2997168,"target":34963},{"buffer":0,"byteOffset":2997168,"byteLength":250624,"byteStride":32,"target":34962},{"buffer":0,"byteOffset":3247792,"byteLength":251648,"byteStride":32,"target":34962},{"buffer":0,"byteOffset":3499440,"byteLength":249920,"byteStride":32,"target":34962},{"buffer":0,"byteOffset":3749360,"byteLength":330240,"byteStride":32,"target":34962},{"buffer":0,"byteOffset":4079600,"byteLength":247680,"byteStride":24,"target":34962},{"buffer":0,"byteOffset":4327280,"byteLength":330016,"byteStride":32,"target":34962},{"buffer":0,"byteOffset":4657296,"byteLength":332704,"byteStride":32,"target":34962},{"buffer":0,"byteOffset":4990000,"byteLength":344256,"byteStride":32,"target":34962},{"buffer":0,"byteOffset":5334256,"byteLength":366144,"byteStride":32,"target":34962},{"buffer":0,"byteOffset":5700400,"byteLength":370112,"byteStride":32,"target":34962},{"buffer":0,"byteOffset":6070512,"byteLength":375584,"byteStride":32,"target":34962},{"buffer":0,"byteOffset":6446096,"byteLength":425792,"byteStride":32,"target":34962},{"buffer":0,"byteOffset":6871888,"byteLength":403328,"byteStride":32,"target":34962},{"buffer":0,"byteOffset":7275216,"byteLength":427392,"byteStride":32,"target":34962},{"buffer":0,"byteOffset":7702608,"byteLength":437408,"byteStride":32,"target":34962}],"samplers":[{"magFilter":9729,"minFilter":9729,"wrapS":10497,"wrapT":10497}],"textures":[{"source":0,"sampler":0},{"source":1,"sampler":0},{"source":2,"sampler":0},{"source":3,"sampler":0}],"images":[{"name":"BaseColor","mimeType":"image/png","uri":"baseColor_1.png"},{"name":"Normal","mimeType":"image/png","uri":"normal_1.png"},{"name":"MetallicRoughness","mimeType":"image/png","uri":"metallicRoughness_1.png"},{"name":"BaseColor","mimeType":"image/png","uri":"baseColor_2.png"}],"buffers":[{"uri":"Asset4.bin","byteLength":8140016}],"materials":[{"doubleSided":true,"pbrMetallicRoughness":{"baseColorTexture":{"index":0},"metallicRoughnessTexture":{"index":2}},"normalTexture":{"index":1}},{"doubleSided":true,"pbrMetallicRoughness":{"baseColorTexture":{"index":3},"metallicRoughnessTexture":{"index":2}},"normalTexture":{"index":1}}],"meshes":[{"primitives":[{"attributes":{"NORMAL":15,"POSITION":14,"TEXCOORD_0":16},"mode":4,"material":0,"indices":0}]},{"primitives":[{"attributes":{"NORMAL":18,"POSITION":17,"TEXCOORD_0":19},"mode":4,"material":0,"indices":1}]},{"primitives":[{"attributes":{"NORMAL":21,"POSITION":20,"TEXCOORD_0":22},"mode":4,"material":0,"indices":2}]},{"primitives":[{"attributes":{"NORMAL":24,"POSITION":23,"TEXCOORD_0":25},"mode":4,"material":0,"indices":3}]},{"primitives":[{"attributes":{"NORMAL":27,"POSITION":26,"TEXCOORD_0":25},"mode":4,"material":0,"indices":3}]},{"primitives":[{"attributes":{"NORMAL":29,"POSITION":28,"TEXCOORD_0":30},"mode":4,"material":0,"indices":4}]},{"primitives":[{"attributes":{"NORMAL":32,"POSITION":31,"TEXCOORD_0":33},"mode":4,"material":0,"indices":5}]},{"primitives":[{"attributes":{"NORMAL":35,"POSITION":34,"TEXCOORD_0":36},"mode":4,"material":0,"indices":6}]},{"primitives":[{"attributes":{"NORMAL":38,"POSITION":37,"TEXCOORD_0":39},"mode":4,"material":0,"indices":7}]},{"primitives":[{"attributes":{"NORMAL":41,"POSITION":40,"TEXCOORD_0":42},"mode":4,"material":0,"indices":8}]},{"primitives":[{"attributes":{"NORMAL":44,"POSITION":43,"TEXCOORD_0":45},"mode":4,"material":0,"indices":9}]},{"primitives":[{"attributes":{"NORMAL":47,"POSITION":46,"TEXCOORD_0":48},"mode":4,"material":0,"indices":10}]},{"primitives":[{"attributes":{"NORMAL":50,"POSITION":49,"TEXCOORD_0":51},"mode":4,"material":0,"indices":11}]},{"primitives":[{"attributes":{"NORMAL":53,"POSITION":52,"TEXCOORD_0":54},"mode":4,"material":0,"indices":12}]},{"primitives":[{"attributes":{"NORMAL":56,"POSITION":55,"TEXCOORD_0":57},"mode":4,"material":1,"indices":13}]}],"nodes":[{"mesh":0},{"mesh":1},{"mesh":2},{"mesh":3},{"mesh":4},{"mesh":5},{"mesh":6},{"mesh":7},{"mesh":8},{"mesh":9},{"mesh":10},{"mesh":11},{"mesh":12},{"mesh":13},{"mesh":14}],"scenes":[{"nodes":[0,1,2,3,4,5,6,7,8,9,10,11,12,13,14]}]}