{"asset":{"generator":"glTF-Transform v3.10.0","version":"2.0"},"accessors":[{"type":"SCALAR","componentType":5125,"count":4596,"bufferView":0,"byteOffset":0},{"type":"VEC3","componentType":5126,"count":1288,"max":[0.012923339381814003,0.012923241592943668,0.22795386612415314],"min":[-0.012923339381814003,-0.012923241592943668,-0.22795386612415314],"bufferView":1,"byteOffset":0},{"type":"VEC3","componentType":5126,"count":1288,"bufferView":1,"byteOffset":12},{"type":"VEC2","componentType":5126,"count":1288,"bufferView":1,"byteOffset":24}],"bufferViews":[{"buffer":0,"byteOffset":0,"byteLength":18384,"target":34963},{"buffer":0,"byteOffset":18384,"byteLength":41216,"byteStride":32,"target":34962}],"samplers":[{"magFilter":9729,"minFilter":9729,"wrapS":10497,"wrapT":10497}],"textures":[{"source":0,"sampler":0}],"images":[{"name":"BaseColor","mimeType":"image/png","uri":"baseColor.png"}],"buffers":[{"uri":"Asset11.bin","byteLength":59600}],"materials":[{"doubleSided":true,"pbrMetallicRoughness":{"roughnessFactor":0.4000000059604645,"metallicFactor":0,"baseColorTexture":{"index":0}}}],"meshes":[{"primitives":[{"attributes":{"NORMAL":2,"POSITION":1,"TEXCOORD_0":3},"mode":4,"material":0,"indices":0}]}],"nodes":[{"mesh":0}],"scenes":[{"nodes":[0]}]}