{"asset":{"generator":"glTF-Transform v4.0.2","version":"2.0"},"accessors":[{"type":"SCALAR","componentType":5123,"count":41112,"bufferView":0,"byteOffset":0},{"type":"VEC3","componentType":5126,"count":16337,"bufferView":1,"byteOffset":0},{"type":"VEC3","componentType":5126,"count":16337,"max":[0.0935133770108223,0.08893656730651855,0.05516277998685837],"min":[-0.0935133770108223,-0.08893656730651855,-0.05516277998685837],"bufferView":1,"byteOffset":12},{"type":"VEC2","componentType":5126,"count":16337,"bufferView":1,"byteOffset":24}],"bufferViews":[{"buffer":0,"byteOffset":0,"byteLength":82224,"target":34963},{"buffer":0,"byteOffset":82224,"byteLength":522784,"byteStride":32,"target":34962}],"samplers":[{"magFilter":9729,"minFilter":9729,"wrapS":10497,"wrapT":10497}],"textures":[{"sampler":0,"extensions":{"EXT_texture_webp":{"source":0}}},{"sampler":0,"extensions":{"EXT_texture_webp":{"source":1}}},{"sampler":0,"extensions":{"EXT_texture_webp":{"source":2}}}],"images":[{"name":"BaseColor","mimeType":"image/webp","uri":"baseColor_1.webp"},{"name":"Normal","mimeType":"image/webp","uri":"normal_1.webp"},{"name":"MetallicRoughness","mimeType":"image/webp","uri":"metallicRoughness_1.webp"}],"buffers":[{"uri":"clothes2.bin","byteLength":605008}],"materials":[{"doubleSided":true,"pbrMetallicRoughness":{"baseColorTexture":{"index":0},"metallicRoughnessTexture":{"index":2}},"normalTexture":{"index":1}}],"meshes":[{"primitives":[{"attributes":{"NORMAL":1,"POSITION":2,"TEXCOORD_0":3},"mode":4,"material":0,"indices":0}]}],"nodes":[{"mesh":0}],"scenes":[{"nodes":[0]}],"extensionsUsed":["EXT_texture_webp"],"extensionsRequired":["EXT_texture_webp"]}