{
	"asset":{
		"generator":"Khronos glTF Blender I/O v4.2.60",
		"version":"2.0"
	},
	"extensionsUsed":[
		"EXT_texture_webp"
	],
	"extensionsRequired":[
		"EXT_texture_webp"
	],
	"scene":0,
	"scenes":[
		{
			"name":"Scene",
			"nodes":[
				0
			]
		}
	],
	"nodes":[
		{
			"mesh":0,
			"name":"Mesh_0.009"
		}
	],
	"materials":[
		{
			"doubleSided":true,
			"name":"Material_0.009",
			"normalTexture":{
				"index":0
			},
			"pbrMetallicRoughness":{
				"baseColorTexture":{
					"index":1
				},
				"metallicFactor":0,
				"roughnessFactor":0.800000011920929
			}
		}
	],
	"meshes":[
		{
			"name":"Mesh_0.009",
			"primitives":[
				{
					"attributes":{
						"POSITION":0,
						"NORMAL":1,
						"TEXCOORD_0":2
					},
					"indices":3,
					"material":0
				}
			]
		}
	],
	"textures":[
		{
			"extensions":{
				"EXT_texture_webp":{
					"source":0
				}
			},
			"sampler":0
		},
		{
			"extensions":{
				"EXT_texture_webp":{
					"source":1
				}
			},
			"sampler":0
		}
	],
	"images":[
		{
			"mimeType":"image/webp",
			"name":"Normal",
			"uri":"Normal.webp"
		},
		{
			"mimeType":"image/webp",
			"name":"BaseColor",
			"uri":"BaseColor.webp"
		}
	],
	"accessors":[
		{
			"bufferView":0,
			"componentType":5126,
			"count":23875,
			"max":[
				0.09559783339500427,
				0.030981209129095078,
				0.004196404945105314
			],
			"min":[
				-0.09563123434782028,
				-0.031010447070002556,
				-0.004193834960460663
			],
			"type":"VEC3"
		},
		{
			"bufferView":1,
			"componentType":5126,
			"count":23875,
			"type":"VEC3"
		},
		{
			"bufferView":2,
			"componentType":5126,
			"count":23875,
			"type":"VEC2"
		},
		{
			"bufferView":3,
			"componentType":5123,
			"count":29067,
			"type":"SCALAR"
		}
	],
	"bufferViews":[
		{
			"buffer":0,
			"byteLength":286500,
			"byteOffset":0,
			"target":34962
		},
		{
			"buffer":0,
			"byteLength":286500,
			"byteOffset":286500,
			"target":34962
		},
		{
			"buffer":0,
			"byteLength":191000,
			"byteOffset":573000,
			"target":34962
		},
		{
			"buffer":0,
			"byteLength":58134,
			"byteOffset":764000,
			"target":34963
		}
	],
	"samplers":[
		{
			"magFilter":9729,
			"minFilter":9987
		}
	],
	"buffers":[
		{
			"byteLength":822136,
			"uri":"rin_2.bin"
		}
	]
}
