{"asset":{"generator":"glTF-Transform v4.0.2","version":"2.0"},"accessors":[{"type":"SCALAR","componentType":5123,"count":8916,"bufferView":0,"byteOffset":0},{"type":"VEC3","componentType":5126,"count":4525,"bufferView":1,"byteOffset":0},{"type":"VEC3","componentType":5126,"count":4525,"max":[0.13413222134113312,0.09636855125427246,0.07898789644241333],"min":[-0.13413222134113312,-0.09636855125427246,-0.07898789644241333],"bufferView":1,"byteOffset":12},{"type":"VEC2","componentType":5126,"count":4525,"bufferView":1,"byteOffset":24}],"bufferViews":[{"buffer":0,"byteOffset":0,"byteLength":17832,"target":34963},{"buffer":0,"byteOffset":17832,"byteLength":144800,"byteStride":32,"target":34962}],"samplers":[{"magFilter":9729,"minFilter":9729,"wrapS":10497,"wrapT":10497}],"textures":[{"sampler":0,"extensions":{"EXT_texture_webp":{"source":0}}},{"sampler":0,"extensions":{"EXT_texture_webp":{"source":1}}}],"images":[{"name":"BaseColor","mimeType":"image/webp","uri":"baseColor_1.webp"},{"name":"Normal","mimeType":"image/webp","uri":"normal_1.webp"}],"buffers":[{"uri":"rin.bin","byteLength":162632}],"materials":[{"doubleSided":true,"pbrMetallicRoughness":{"roughnessFactor":0.8,"metallicFactor":0,"baseColorTexture":{"index":0}},"normalTexture":{"index":1}}],"meshes":[{"primitives":[{"attributes":{"NORMAL":1,"POSITION":2,"TEXCOORD_0":3},"mode":4,"material":0,"indices":0}]}],"nodes":[{"mesh":0}],"scenes":[{"nodes":[0]}],"extensionsUsed":["EXT_texture_webp"],"extensionsRequired":["EXT_texture_webp"]}