{
	"asset":{
		"generator":"Khronos glTF Blender I/O v4.2.60",
		"version":"2.0"
	},
	"extensionsUsed":[
		"EXT_texture_webp"
	],
	"extensionsRequired":[
		"EXT_texture_webp"
	],
	"scene":0,
	"scenes":[
		{
			"name":"Scene",
			"nodes":[
				0
			]
		}
	],
	"nodes":[
		{
			"mesh":0,
			"name":"Mesh_0.008"
		}
	],
	"materials":[
		{
			"doubleSided":true,
			"name":"Material_0.008",
			"normalTexture":{
				"index":0
			},
			"pbrMetallicRoughness":{
				"baseColorTexture":{
					"index":1
				},
				"metallicFactor":0,
				"roughnessFactor":0.800000011920929
			}
		}
	],
	"meshes":[
		{
			"name":"Mesh_0.008",
			"primitives":[
				{
					"attributes":{
						"POSITION":0,
						"NORMAL":1,
						"TEXCOORD_0":2
					},
					"indices":3,
					"material":0
				}
			]
		}
	],
	"textures":[
		{
			"extensions":{
				"EXT_texture_webp":{
					"source":0
				}
			},
			"sampler":0
		},
		{
			"extensions":{
				"EXT_texture_webp":{
					"source":1
				}
			},
			"sampler":0
		}
	],
	"images":[
		{
			"mimeType":"image/webp",
			"name":"Normal",
			"uri":"Normal.webp"
		},
		{
			"mimeType":"image/webp",
			"name":"BaseColor",
			"uri":"BaseColor.webp"
		}
	],
	"accessors":[
		{
			"bufferView":0,
			"componentType":5126,
			"count":4631,
			"max":[
				0.13413222134113312,
				0.09636855125427246,
				0.07898789644241333
			],
			"min":[
				-0.13413222134113312,
				-0.09636855125427246,
				-0.07898789644241333
			],
			"type":"VEC3"
		},
		{
			"bufferView":1,
			"componentType":5126,
			"count":4631,
			"type":"VEC3"
		},
		{
			"bufferView":2,
			"componentType":5126,
			"count":4631,
			"type":"VEC2"
		},
		{
			"bufferView":3,
			"componentType":5123,
			"count":8280,
			"type":"SCALAR"
		}
	],
	"bufferViews":[
		{
			"buffer":0,
			"byteLength":55572,
			"byteOffset":0,
			"target":34962
		},
		{
			"buffer":0,
			"byteLength":55572,
			"byteOffset":55572,
			"target":34962
		},
		{
			"buffer":0,
			"byteLength":37048,
			"byteOffset":111144,
			"target":34962
		},
		{
			"buffer":0,
			"byteLength":16560,
			"byteOffset":148192,
			"target":34963
		}
	],
	"samplers":[
		{
			"magFilter":9729,
			"minFilter":9987
		}
	],
	"buffers":[
		{
			"byteLength":164752,
			"uri":"rin.bin"
		}
	]
}
