{"asset":{"generator":"glTF-Transform v3.10.0","version":"2.0"},"accessors":[{"type":"SCALAR","componentType":5125,"count":3324,"bufferView":0,"byteOffset":0},{"type":"SCALAR","componentType":5125,"count":7578,"bufferView":0,"byteOffset":13296},{"type":"SCALAR","componentType":5125,"count":7134,"bufferView":0,"byteOffset":43608},{"type":"SCALAR","componentType":5125,"count":84,"bufferView":0,"byteOffset":72144},{"type":"SCALAR","componentType":5125,"count":3594,"bufferView":0,"byteOffset":72480},{"type":"SCALAR","componentType":5125,"count":3612,"bufferView":0,"byteOffset":86856},{"type":"SCALAR","componentType":5125,"count":14850,"bufferView":0,"byteOffset":101304},{"type":"SCALAR","componentType":5125,"count":9684,"bufferView":0,"byteOffset":160704},{"type":"SCALAR","componentType":5125,"count":11958,"bufferView":0,"byteOffset":199440},{"type":"SCALAR","componentType":5125,"count":10482,"bufferView":0,"byteOffset":247272},{"type":"SCALAR","componentType":5125,"count":9762,"bufferView":0,"byteOffset":289200},{"type":"SCALAR","componentType":5125,"count":5124,"bufferView":0,"byteOffset":328248},{"type":"SCALAR","componentType":5125,"count":864,"bufferView":0,"byteOffset":348744},{"type":"SCALAR","componentType":5125,"count":18666,"bufferView":0,"byteOffset":352200},{"type":"VEC3","componentType":5126,"count":1012,"max":[-0.07679647207260132,-0.0771884024143219,0.016513992100954056],"min":[-0.08387969434261322,-0.0811290293931961,-0.016513992100954056],"bufferView":1,"byteOffset":0},{"type":"VEC3","componentType":5126,"count":1012,"bufferView":1,"byteOffset":12},{"type":"VEC2","componentType":5126,"count":1012,"bufferView":1,"byteOffset":24},{"type":"VEC3","componentType":5126,"count":1012,"max":[-0.011155457235872746,-0.0771884024143219,0.016513992100954056],"min":[-0.01823868229985237,-0.0811290293931961,-0.016513992100954056],"bufferView":2,"byteOffset":0},{"type":"VEC3","componentType":5126,"count":1012,"bufferView":2,"byteOffset":12},{"type":"VEC3","componentType":5126,"count":2073,"max":[-0.1011846661567688,-0.07049191743135452,0.015973754227161407],"min":[-0.10418946295976639,-0.07349543273448944,-0.015973754227161407],"bufferView":3,"byteOffset":0},{"type":"VEC3","componentType":5126,"count":2073,"bufferView":3,"byteOffset":12},{"type":"VEC2","componentType":5126,"count":2073,"bufferView":3,"byteOffset":24},{"type":"VEC3","componentType":5126,"count":1981,"max":[-0.025155479088425636,-0.07727082073688507,0.01890731044113636],"min":[-0.03325652331113815,-0.0875774621963501,-0.01890731044113636],"bufferView":4,"byteOffset":0},{"type":"VEC3","componentType":5126,"count":1981,"bufferView":4,"byteOffset":12},{"type":"VEC2","componentType":5126,"count":1981,"bufferView":4,"byteOffset":24},{"type":"VEC3","componentType":5126,"count":48,"max":[-0.10146133601665497,-0.07575520128011703,0.015642184764146805],"min":[-0.10388633608818054,-0.08909308910369873,-0.015642184764146805],"bufferView":5,"byteOffset":0},{"type":"VEC3","componentType":5126,"count":48,"bufferView":5,"byteOffset":12},{"type":"VEC2","componentType":5126,"count":48,"bufferView":5,"byteOffset":24},{"type":"VEC3","componentType":5126,"count":1107,"max":[0.009125770069658756,-0.0699680894613266,0.01540452241897583],"min":[0.00364178535528481,-0.09242746233940125,-0.01540452241897583],"bufferView":6,"byteOffset":0},{"type":"VEC3","componentType":5126,"count":1107,"bufferView":6,"byteOffset":12},{"type":"VEC2","componentType":5126,"count":1107,"bufferView":6,"byteOffset":24},{"type":"VEC3","componentType":5126,"count":1110,"max":[-0.06618829071521759,-0.0699680894613266,0.015420065261423588],"min":[-0.07169961929321289,-0.09242746233940125,-0.015420065261423588],"bufferView":7,"byteOffset":0},{"type":"VEC3","componentType":5126,"count":1110,"bufferView":7,"byteOffset":12},{"type":"VEC2","componentType":5126,"count":1110,"bufferView":7,"byteOffset":24},{"type":"VEC3","componentType":5126,"count":4469,"max":[-0.022675400599837303,-0.07545207440853119,0.015679065138101578],"min":[-0.03570977598428726,-0.08939621597528458,-0.015679065138101578],"bufferView":8,"byteOffset":0},{"type":"VEC3","componentType":5126,"count":4469,"bufferView":8,"byteOffset":12},{"type":"VEC2","componentType":5126,"count":4469,"bufferView":8,"byteOffset":24},{"type":"VEC3","componentType":5126,"count":2936,"max":[-0.08787540346384048,-0.07547980546951294,0.01566852442920208],"min":[-0.09840235114097595,-0.08936847746372223,-0.01566852442920208],"bufferView":9,"byteOffset":0},{"type":"VEC3","componentType":5126,"count":2936,"bufferView":9,"byteOffset":12},{"type":"VEC2","componentType":5126,"count":2936,"bufferView":9,"byteOffset":24},{"type":"VEC3","componentType":5126,"count":3631,"max":[-0.07445571571588516,-0.07545207440853119,0.015594681724905968],"min":[-0.08622188121080399,-0.08936720341444016,-0.015594681724905968],"bufferView":10,"byteOffset":0},{"type":"VEC3","componentType":5126,"count":3631,"bufferView":10,"byteOffset":12},{"type":"VEC2","componentType":5126,"count":3631,"bufferView":10,"byteOffset":24},{"type":"VEC3","componentType":5126,"count":3631,"max":[-0.00881471112370491,-0.07545207440853119,0.015594663098454475],"min":[-0.020580876618623734,-0.08936719596385956,-0.015594680793583393],"bufferView":11,"byteOffset":0},{"type":"VEC3","componentType":5126,"count":3631,"bufferView":11,"byteOffset":12},{"type":"VEC3","componentType":5126,"count":3175,"max":[0.0019886603113263845,-0.07545207440853119,0.015621096827089787],"min":[-0.006747276987880468,-0.08936847746372223,-0.015621096827089787],"bufferView":12,"byteOffset":0},{"type":"VEC3","componentType":5126,"count":3175,"bufferView":12,"byteOffset":12},{"type":"VEC2","componentType":5126,"count":3175,"bufferView":12,"byteOffset":24},{"type":"VEC3","componentType":5126,"count":2959,"max":[-0.05323594808578491,-0.07021613419055939,0.015684284269809723],"min":[-0.06447930634021759,-0.08936847746372223,-0.015684284269809723],"bufferView":13,"byteOffset":0},{"type":"VEC3","componentType":5126,"count":2959,"bufferView":13,"byteOffset":12},{"type":"VEC2","componentType":5126,"count":2959,"bufferView":13,"byteOffset":24},{"type":"VEC3","componentType":5126,"count":1588,"max":[-0.03868594765663147,-0.06952746212482452,0.015826430171728134],"min":[-0.05003946274518967,-0.08909308910369873,-0.015826430171728134],"bufferView":14,"byteOffset":0},{"type":"VEC3","componentType":5126,"count":1588,"bufferView":14,"byteOffset":12},{"type":"VEC2","componentType":5126,"count":1588,"bufferView":14,"byteOffset":24},{"type":"VEC3","componentType":5126,"count":330,"max":[-0.10826759040355682,-0.07051926106214523,0.016059014946222305],"min":[-0.12221133708953857,-0.08909308910369873,-0.016059014946222305],"bufferView":15,"byteOffset":0},{"type":"VEC3","componentType":5126,"count":330,"bufferView":15,"byteOffset":12},{"type":"VEC2","componentType":5126,"count":330,"bufferView":15,"byteOffset":24},{"type":"VEC3","componentType":5126,"count":5875,"max":[0.16353346407413483,0.10020187497138977,0.11200553178787231],"min":[-0.16353346407413483,-0.10020187497138977,-0.11200553178787231],"bufferView":16,"byteOffset":0},{"type":"VEC3","componentType":5126,"count":5875,"bufferView":16,"byteOffset":12},{"type":"VEC2","componentType":5126,"count":5875,"bufferView":16,"byteOffset":24}],"bufferViews":[{"buffer":0,"byteOffset":0,"byteLength":426864,"target":34963},{"buffer":0,"byteOffset":426864,"byteLength":32384,"byteStride":32,"target":34962},{"buffer":0,"byteOffset":459248,"byteLength":24288,"byteStride":24,"target":34962},{"buffer":0,"byteOffset":483536,"byteLength":66336,"byteStride":32,"target":34962},{"buffer":0,"byteOffset":549872,"byteLength":63392,"byteStride":32,"target":34962},{"buffer":0,"byteOffset":613264,"byteLength":1536,"byteStride":32,"target":34962},{"buffer":0,"byteOffset":614800,"byteLength":35424,"byteStride":32,"target":34962},{"buffer":0,"byteOffset":650224,"byteLength":35520,"byteStride":32,"target":34962},{"buffer":0,"byteOffset":685744,"byteLength":143008,"byteStride":32,"target":34962},{"buffer":0,"byteOffset":828752,"byteLength":93952,"byteStride":32,"target":34962},{"buffer":0,"byteOffset":922704,"byteLength":116192,"byteStride":32,"target":34962},{"buffer":0,"byteOffset":1038896,"byteLength":87144,"byteStride":24,"target":34962},{"buffer":0,"byteOffset":1126040,"byteLength":101600,"byteStride":32,"target":34962},{"buffer":0,"byteOffset":1227640,"byteLength":94688,"byteStride":32,"target":34962},{"buffer":0,"byteOffset":1322328,"byteLength":50816,"byteStride":32,"target":34962},{"buffer":0,"byteOffset":1373144,"byteLength":10560,"byteStride":32,"target":34962},{"buffer":0,"byteOffset":1383704,"byteLength":188000,"byteStride":32,"target":34962}],"samplers":[{"magFilter":9729,"minFilter":9729,"wrapS":10497,"wrapT":10497}],"textures":[{"source":0,"sampler":0},{"source":1,"sampler":0},{"source":2,"sampler":0},{"source":3,"sampler":0}],"images":[{"name":"BaseColor","mimeType":"image/png","uri":"baseColor_1.png"},{"name":"Normal","mimeType":"image/png","uri":"normal_1.png"},{"name":"MetallicRoughness","mimeType":"image/png","uri":"metallicRoughness_1.png"},{"name":"BaseColor","mimeType":"image/png","uri":"baseColor_2.png"}],"buffers":[{"uri":"Asset2.bin","byteLength":1571704}],"materials":[{"doubleSided":true,"pbrMetallicRoughness":{"baseColorTexture":{"index":0},"metallicRoughnessTexture":{"index":2}},"normalTexture":{"index":1}},{"doubleSided":true,"pbrMetallicRoughness":{"baseColorTexture":{"index":3},"metallicRoughnessTexture":{"index":2}},"normalTexture":{"index":1}}],"meshes":[{"primitives":[{"attributes":{"NORMAL":15,"POSITION":14,"TEXCOORD_0":16},"mode":4,"material":0,"indices":0}]},{"primitives":[{"attributes":{"NORMAL":18,"POSITION":17,"TEXCOORD_0":16},"mode":4,"material":0,"indices":0}]},{"primitives":[{"attributes":{"NORMAL":20,"POSITION":19,"TEXCOORD_0":21},"mode":4,"material":0,"indices":1}]},{"primitives":[{"attributes":{"NORMAL":23,"POSITION":22,"TEXCOORD_0":24},"mode":4,"material":0,"indices":2}]},{"primitives":[{"attributes":{"NORMAL":26,"POSITION":25,"TEXCOORD_0":27},"mode":4,"material":0,"indices":3}]},{"primitives":[{"attributes":{"NORMAL":29,"POSITION":28,"TEXCOORD_0":30},"mode":4,"material":0,"indices":4}]},{"primitives":[{"attributes":{"NORMAL":32,"POSITION":31,"TEXCOORD_0":33},"mode":4,"material":0,"indices":5}]},{"primitives":[{"attributes":{"NORMAL":35,"POSITION":34,"TEXCOORD_0":36},"mode":4,"material":0,"indices":6}]},{"primitives":[{"attributes":{"NORMAL":38,"POSITION":37,"TEXCOORD_0":39},"mode":4,"material":0,"indices":7}]},{"primitives":[{"attributes":{"NORMAL":41,"POSITION":40,"TEXCOORD_0":42},"mode":4,"material":0,"indices":8}]},{"primitives":[{"attributes":{"NORMAL":44,"POSITION":43,"TEXCOORD_0":42},"mode":4,"material":0,"indices":8}]},{"primitives":[{"attributes":{"NORMAL":46,"POSITION":45,"TEXCOORD_0":47},"mode":4,"material":0,"indices":9}]},{"primitives":[{"attributes":{"NORMAL":49,"POSITION":48,"TEXCOORD_0":50},"mode":4,"material":0,"indices":10}]},{"primitives":[{"attributes":{"NORMAL":52,"POSITION":51,"TEXCOORD_0":53},"mode":4,"material":0,"indices":11}]},{"primitives":[{"attributes":{"NORMAL":55,"POSITION":54,"TEXCOORD_0":56},"mode":4,"material":0,"indices":12}]},{"primitives":[{"attributes":{"NORMAL":58,"POSITION":57,"TEXCOORD_0":59},"mode":4,"material":1,"indices":13}]}],"nodes":[{"mesh":0},{"mesh":1},{"mesh":2},{"mesh":3},{"mesh":4},{"mesh":5},{"mesh":6},{"mesh":7},{"mesh":8},{"mesh":9},{"mesh":10},{"mesh":11},{"mesh":12},{"mesh":13},{"mesh":14},{"mesh":15}],"scenes":[{"nodes":[0,1,2,3,4,5,6,7,8,9,10,11,12,13,14,15]}]}