{
	"asset":{
		"generator":"Khronos glTF Blender I/O v4.2.60",
		"version":"2.0"
	},
	"extensionsUsed":[
		"EXT_texture_webp"
	],
	"extensionsRequired":[
		"EXT_texture_webp"
	],
	"scene":0,
	"scenes":[
		{
			"name":"Scene",
			"nodes":[
				0
			]
		}
	],
	"nodes":[
		{
			"mesh":0,
			"name":"Mesh_0.006"
		}
	],
	"materials":[
		{
			"doubleSided":true,
			"name":"Material_0.006",
			"normalTexture":{
				"index":0
			},
			"pbrMetallicRoughness":{
				"baseColorTexture":{
					"index":1
				},
				"metallicRoughnessTexture":{
					"index":2
				}
			}
		}
	],
	"meshes":[
		{
			"name":"Mesh_0.006",
			"primitives":[
				{
					"attributes":{
						"POSITION":0,
						"NORMAL":1,
						"TEXCOORD_0":2,
						"COLOR_0":3,
						"COLOR_1":4
					},
					"indices":5,
					"material":0
				}
			]
		}
	],
	"textures":[
		{
			"extensions":{
				"EXT_texture_webp":{
					"source":0
				}
			},
			"sampler":0
		},
		{
			"extensions":{
				"EXT_texture_webp":{
					"source":1
				}
			},
			"sampler":0
		},
		{
			"extensions":{
				"EXT_texture_webp":{
					"source":2
				}
			},
			"sampler":0
		}
	],
	"images":[
		{
			"mimeType":"image/webp",
			"name":"Normal",
			"uri":"Normal.webp"
		},
		{
			"mimeType":"image/webp",
			"name":"BaseColor",
			"uri":"BaseColor.webp"
		},
		{
			"mimeType":"image/webp",
			"name":"MetallicRoughness",
			"uri":"MetallicRoughness.webp"
		}
	],
	"accessors":[
		{
			"bufferView":0,
			"componentType":5126,
			"count":43588,
			"max":[
				0.09557527303695679,
				0.09560644626617432,
				0.05672045797109604
			],
			"min":[
				-0.09560251981019974,
				-0.0955515205860138,
				-0.05685349181294441
			],
			"type":"VEC3"
		},
		{
			"bufferView":1,
			"componentType":5126,
			"count":43588,
			"type":"VEC3"
		},
		{
			"bufferView":2,
			"componentType":5126,
			"count":43588,
			"type":"VEC2"
		},
		{
			"bufferView":3,
			"componentType":5121,
			"count":43588,
			"normalized":true,
			"type":"VEC4"
		},
		{
			"bufferView":4,
			"componentType":5126,
			"count":43588,
			"type":"VEC3"
		},
		{
			"bufferView":5,
			"componentType":5123,
			"count":94104,
			"type":"SCALAR"
		}
	],
	"bufferViews":[
		{
			"buffer":0,
			"byteLength":523056,
			"byteOffset":0,
			"target":34962
		},
		{
			"buffer":0,
			"byteLength":523056,
			"byteOffset":523056,
			"target":34962
		},
		{
			"buffer":0,
			"byteLength":348704,
			"byteOffset":1046112,
			"target":34962
		},
		{
			"buffer":0,
			"byteLength":174352,
			"byteOffset":1394816,
			"target":34962
		},
		{
			"buffer":0,
			"byteLength":523056,
			"byteOffset":1569168,
			"target":34962
		},
		{
			"buffer":0,
			"byteLength":188208,
			"byteOffset":2092224,
			"target":34963
		}
	],
	"samplers":[
		{
			"magFilter":9729,
			"minFilter":9987
		}
	],
	"buffers":[
		{
			"byteLength":2280432,
			"uri":"magnifier.bin"
		}
	]
}
