<?xml version="1.0" encoding="utf-8"?>
<!-- Generator: Adobe Illustrator 27.6.1, SVG Export Plug-In . SVG Version: 6.00 Build 0)  -->
<svg version="1.1" id="Layer_1" xmlns="http://www.w3.org/2000/svg" xmlns:xlink="http://www.w3.org/1999/xlink" x="0px" y="0px"
	 viewBox="0 0 122.6 55.2" style="enable-background:new 0 0 122.6 55.2;" xml:space="preserve">
<style type="text/css">
	.st0{fill:#FFFFFF;}
</style>
<g>
	<g>
		<path class="st0" d="M122.6,42.4c0-0.1,0-0.3-0.1-0.4c0-0.1,0-0.2,0-0.3c0-0.1,0-0.2,0.1-0.2c0-0.1,0-0.2,0-0.2
			c0-0.2-0.1-0.4-0.1-0.6c0-0.2,0-0.4,0-0.6c0-0.1,0-0.2,0-0.3c0,0,0-0.1,0-0.1c0-0.3-0.1-0.6-0.1-0.8c0-0.1,0-0.2,0.1-0.2
			c0.1-0.1,0.1-0.2,0-0.3c0-0.1,0-0.2,0-0.3c0,0,0-0.1,0-0.2c0-0.1-0.1-0.2-0.1-0.4c0,0,0,0,0,0c0.1-0.1,0.1-0.3,0.1-0.4
			c-0.1-0.2-0.1-0.4,0-0.5c0.1-0.2,0.1-0.4,0-0.5c0,0,0-0.1,0-0.1c0-0.1-0.1-0.3,0-0.4c0.1-0.2,0.1-0.3,0-0.5
			c-0.1-0.2-0.1-0.3-0.1-0.5c0-0.1,0-0.1,0-0.2c0.1-0.1,0.1-0.3,0-0.4c-0.1-0.1-0.1-0.3-0.1-0.5c0,0,0,0,0.1,0
			c0.1-0.1,0.2-0.2,0.1-0.3c0,0,0-0.1-0.1-0.1c-0.1-0.1,0-0.2,0.1-0.2c0.1-0.1,0.1-0.1,0.1-0.2c0-0.1-0.1-0.2-0.1-0.3
			c0-0.1,0-0.1,0-0.2c0.1-0.1,0.1-0.2,0-0.3c-0.1-0.2-0.1-0.3,0-0.5c0.1-0.1,0.1-0.1,0-0.2c-0.1-0.2-0.2-0.3-0.1-0.5
			c0,0,0-0.1,0-0.1c0-0.1,0-0.3,0-0.4c0.1-0.2,0.1-0.3,0-0.4c-0.1-0.1-0.1-0.2,0-0.3c0.1-0.1,0.1-0.2-0.1-0.3
			c-0.1-0.1-0.1-0.2,0-0.2c0.1-0.1,0.1-0.1,0-0.3c0-0.1-0.1-0.1-0.1-0.2c0.2-0.1,0.2-0.2,0.2-0.4c0,0,0-0.1,0-0.1
			c0-0.1,0-0.2-0.1-0.3c0,0-0.1,0-0.1-0.1c0.1-0.2,0.1-0.2,0.1-0.4c0-0.1,0-0.1,0-0.2c0-0.1,0.1-0.2,0-0.3c-0.1-0.1-0.1-0.2-0.1-0.3
			c0-0.3,0-0.6,0-0.9c0-0.1,0-0.2,0-0.2c0.1-0.2,0-0.3-0.1-0.4c-0.1-0.1-0.1-0.3,0-0.4c0,0,0.1-0.1,0.1-0.1c0.1-0.1,0.1-0.2,0.1-0.3
			c0,0,0-0.1,0-0.1c0-0.1,0-0.2,0-0.3c0.1-0.1,0.1-0.2,0-0.2c0,0-0.1-0.1-0.1-0.1c0-0.2-0.1-0.3,0-0.4c0.1-0.1,0.1-0.2,0-0.3
			c0-0.1-0.1-0.2,0-0.3c0.1-0.1,0-0.3,0-0.4c0-0.1,0-0.2,0-0.3c0-0.2-0.1-0.2-0.3-0.2c-0.1,0-0.3,0-0.5,0.1c0,0-0.1,0-0.1,0
			c-0.1,0-0.2,0-0.3,0c-0.1,0.1-0.2,0.1-0.3,0c-0.1-0.1-0.1-0.1-0.2-0.1c0,0.1-0.1,0.1-0.1,0.2c-0.1,0.1-0.2,0.1-0.3,0
			c0,0,0,0,0-0.1c-0.1-0.1-0.2-0.2-0.3,0c0,0-0.1,0-0.2,0c-0.1,0-0.3,0-0.4,0c-0.1,0-0.3,0-0.3,0.2c-0.1,0-0.1,0-0.2-0.1
			c-0.2-0.1-0.4-0.1-0.6-0.1c-0.1,0-0.1,0-0.2,0c-0.1,0.1-0.1,0-0.2,0c-0.1,0-0.1,0-0.2-0.1c-0.1,0-0.3-0.1-0.4,0c0,0-0.1,0-0.1,0
			c-0.1,0-0.2,0-0.2,0.1c0,0-0.1,0.1-0.2,0c-0.1,0-0.2,0-0.3-0.1c0,0-0.1,0-0.1,0c0,0,0,0-0.1,0c0,0,0-0.1,0-0.2c0.1,0,0.1,0,0.2,0
			c0.1,0,0.2-0.1,0.2-0.2c0-0.1,0.1-0.2,0.2-0.2c0.1-0.1,0.2-0.2,0.3-0.3c0.1-0.1,0.2-0.3,0.4-0.4c0.1-0.1,0.1-0.1,0.2-0.2
			c0.1-0.1,0.1-0.2,0.2-0.3c0.1-0.1,0.2-0.2,0.3-0.3c0.1-0.1,0.1-0.1,0.2-0.1c0.1,0,0.1,0,0.2-0.1c0-0.1,0.1-0.2,0.2-0.2
			c0.1-0.2,0.1-0.3-0.1-0.4c0,0-0.1,0-0.1,0c-0.1,0-0.2-0.1-0.3-0.3c0,0-0.1-0.1-0.1-0.1c-0.1,0-0.2-0.1-0.2-0.2
			c0-0.1-0.1-0.2-0.2-0.2c-0.1,0-0.2-0.1-0.2-0.2c0-0.1-0.1-0.2-0.3-0.3c-0.1,0-0.1-0.1-0.2-0.1c-0.1,0-0.1-0.1-0.1-0.2
			c0-0.1,0-0.1-0.1-0.1c-0.1,0-0.1-0.1-0.2-0.2c-0.1-0.2-0.2-0.2-0.3-0.1c0,0-0.1,0-0.1,0.1c-0.1,0.2-0.3,0.3-0.4,0.4
			c0,0-0.1,0.1-0.1,0.1c-0.1,0.1-0.1,0.1-0.2,0.2c-0.1,0-0.1,0.1-0.2,0.1c-0.1,0.1-0.2,0.2-0.3,0.2c-0.2,0.1-0.3,0.2-0.3,0.4
			c0,0,0,0.1,0,0.1c0,0,0,0.1-0.1,0.1c-0.1,0.1-0.2,0.2-0.3,0.3c-0.1,0.1-0.2,0.2-0.3,0.2c-0.2,0.1-0.2,0.1-0.2,0.3
			c0,0.1,0,0.2-0.1,0.2c-0.1,0-0.1,0.1-0.2,0.1c-0.1,0-0.1,0.1-0.2,0.2c-0.1,0.1-0.1,0.2-0.2,0.3c0,0.1-0.1,0.1-0.2,0.1
			c-0.1,0-0.1,0-0.2,0.1c-0.1,0.1-0.2,0.2-0.3,0.3c0,0.1-0.1,0.1-0.1,0.2c-0.1,0.1-0.2,0.2-0.2,0.3c0,0,0,0.1,0,0.1
			c-0.1,0.2-0.2,0.3-0.4,0.4c-0.1,0-0.1,0.1-0.2,0.2c0,0,0,0.1-0.1,0.1c-0.1,0.1-0.1,0.3-0.3,0.3c0,0-0.1,0-0.1,0.1
			c-0.1,0.2-0.2,0.3-0.2,0.5c0,0.1-0.1,0.2-0.1,0.2c-0.1,0.1-0.2,0.1-0.3,0.2c0,0,0,0,0,0c-0.1,0-0.2,0.1-0.2,0.2
			c-0.1,0.2-0.2,0.4-0.5,0.5c-0.1,0-0.2,0.1-0.2,0.2c-0.1,0.1-0.2,0.3-0.2,0.4c0,0,0,0,0,0c-0.1,0-0.1,0-0.1,0
			c-0.1,0-0.1,0.1-0.1,0.1c-0.1,0.2-0.2,0.4-0.2,0.5c-0.1,0-0.1,0-0.2,0.1c0,0-0.1,0-0.1,0c-0.1,0.1-0.2,0.2-0.3,0.3
			c0,0,0,0.1,0,0.2c0,0.1,0,0.1,0,0.2c0,0.1,0.1,0.2,0.2,0.3c0.1,0,0.1,0.1,0.1,0.1c0.1,0.1,0.2,0.2,0.2,0.4c0,0.1,0.1,0.2,0.2,0.3
			c0.1,0,0.2,0.1,0.2,0.2c0,0.1,0,0.1,0,0.2c0,0.2,0.1,0.3,0.2,0.3c0.1,0,0.2,0.1,0.3,0.2c0.1,0.1,0.1,0.1,0.2,0.2
			c0.1,0.1,0.1,0.1,0.2,0.1c0,0,0.1,0,0.1,0.1c0.1,0.1,0.1,0.1,0.2,0c0,0,0.1-0.1,0.1-0.2c0.1,0,0.2,0,0.3-0.1
			c0.1-0.1,0.1-0.2,0.1-0.3c0-0.1,0.1-0.2,0.1-0.3c0.1-0.1,0.1-0.2,0.3-0.2c0,0,0.1,0,0.1,0c0.1-0.1,0.1-0.2,0.3-0.3
			c0,0,0-0.1,0-0.1c0-0.1,0.1-0.2,0.1-0.3c0.1-0.3,0.4-0.4,0.6-0.6c0.1-0.1,0.1-0.1,0.2-0.2c0.1-0.1,0.1-0.2,0.3-0.2
			c0,0,0.1,0,0.1,0c0.1-0.1,0.2-0.1,0.2-0.2c0-0.1,0.1-0.3,0.2-0.4c0,0,0.1-0.1,0.1-0.2c0,0,0,0,0,0c0,0,0,0.1,0.1,0.1
			c0,0,0,0.1,0,0.1c0.1,0.2,0.2,0.2,0.3,0.1c0.1-0.1,0.2-0.1,0.4-0.1c0.1,0,0.2,0,0.2,0c0.1,0,0.3,0,0.4,0.1c0.1,0,0.1,0,0.2,0
			c0.3,0,0.5-0.1,0.8-0.2c0,0,0.1,0,0.1,0c0.1,0.1,0.2,0.2,0.3,0.2c0.2-0.1,0.4,0,0.6,0c0.1,0,0.2,0,0.4,0c0.1,0,0.2,0,0.4,0
			c0.1,0,0.3,0,0.4,0c0.1,0,0.2,0,0.2,0c0.2-0.1,0.5,0,0.7,0c0,0.1,0.1,0.2,0.1,0.3c0.1,0.1,0.1,0.4,0,0.4c-0.1,0.1-0.1,0.2-0.1,0.4
			c0,0.1,0.1,0.1,0,0.2c0,0.1,0,0.2,0.1,0.3c0.1,0.1,0.1,0.2,0,0.3c0,0.1-0.1,0.2-0.1,0.3c0,0.1,0,0.2,0,0.4c0,0,0,0.1,0,0.1
			c0,0.1,0,0.3,0,0.4c0,0.1,0,0.2,0,0.2c-0.1,0.1-0.1,0.2,0,0.4c0.1,0.1,0.1,0.3,0,0.5c-0.1,0.1-0.1,0.2-0.1,0.3c0,0.1,0,0.2,0,0.2
			c0,0.1,0,0.1,0,0.2c0.1,0.2,0.1,0.3,0,0.5c-0.1,0.1-0.1,0.3-0.1,0.5c0,0,0,0.1,0.1,0.1c0,0.1,0,0.2,0,0.2c-0.1,0.1-0.1,0.2,0,0.3
			c0,0.1,0,0.2,0,0.3c-0.1,0.1,0,0.2,0,0.3c0,0,0.1,0.1,0.1,0.1c0,0.1,0,0.3,0,0.4c0,0.1,0,0.2,0,0.2c0.1,0.2,0.1,0.4,0.1,0.7
			c0,0,0,0.1,0,0.1c-0.1,0.1-0.1,0.2,0,0.3c0.1,0.2,0.1,0.3,0.2,0.5c0,0.1,0,0.1,0,0.2c0,0.1,0,0.1,0,0.2c0,0.1,0,0.3,0,0.4
			c0,0.1,0,0.2,0,0.2c-0.1,0.2-0.1,0.3,0,0.4c0.1,0.2,0.1,0.2,0,0.3c-0.1,0.1-0.1,0.2-0.1,0.3c0,0.1,0,0.1,0,0.2c0,0.1,0,0.2,0,0.3
			c0.1,0.1,0.1,0.2,0,0.3c-0.1,0.1-0.1,0.2,0,0.3c0,0.1,0,0.1,0,0.2c-0.1,0.2,0,0.3,0.1,0.4c0.1,0.1,0.2,0.2,0.1,0.4
			c-0.1,0.2,0,0.3,0,0.5c0,0.1,0,0.3,0,0.4c0,0.2,0,0.3,0.1,0.4c0.1,0,0.1,0.1,0,0.1c-0.1,0.1-0.1,0.2,0,0.3c0.1,0.2,0,0.3,0,0.5
			c0,0,0,0,0,0c-0.1,0-0.1,0.1-0.2,0.1c-0.2,0.1-0.3,0.1-0.4,0c0,0-0.1,0-0.1-0.1c-0.1,0-0.1,0-0.2,0c-0.1,0.1-0.3,0.1-0.4,0
			c-0.1-0.1-0.2-0.2-0.3-0.1c-0.1,0.1-0.2,0.1-0.4,0.1c-0.1,0-0.2-0.1-0.3,0c-0.1,0.1-0.2,0.1-0.2,0c-0.1-0.1-0.2,0-0.3,0
			c-0.1,0-0.1,0.1-0.2,0.1c-0.2,0-0.4,0-0.6,0c-0.1,0-0.3,0-0.4,0c0,0-0.1,0-0.1,0c-0.1-0.1-0.3-0.1-0.4,0c0,0-0.1,0.1-0.2,0.1
			c-0.1,0-0.3,0-0.4-0.1c0,0,0,0-0.1,0c-0.1-0.1-0.2-0.1-0.3,0c-0.1,0-0.1,0-0.2,0c0,0-0.1,0-0.2,0c-0.1,0.1-0.2,0.1-0.3,0
			c-0.1-0.1-0.2,0-0.3,0.1c0,0-0.1,0.1-0.2,0.1c-0.2,0-0.3,0.1-0.2,0.2c0,0.1,0,0.2-0.1,0.3c-0.1,0.1-0.1,0.1-0.1,0.3
			c0,0.2,0,0.3,0,0.5c0,0.1,0,0.2,0,0.2c0,0.1,0,0.2,0,0.3c0,0.1,0,0.1,0,0.2c0,0.2,0.1,0.3,0.1,0.5c0,0,0,0.1,0,0.1
			c0,0.1,0,0.2,0,0.2c0,0.1,0,0.2,0.1,0.2c0.1,0.1,0.2,0.1,0.3,0c0.1,0,0.2,0,0.2,0c0,0,0.1,0,0.2,0c0.1,0,0.3-0.1,0.4,0
			c0.1,0,0.2,0,0.3,0c0.2,0,0.3,0,0.5,0c0,0,0,0,0,0c0.1,0.1,0.3,0.1,0.4,0c0.2-0.1,0.4,0,0.5,0.1c0.1,0,0.1,0,0.2,0
			c0.1-0.1,0.2-0.1,0.3-0.2c0.1-0.1,0.2,0,0.3,0c0.1,0.1,0.1,0.1,0.3,0c0.2-0.1,0.4-0.2,0.6-0.1c0,0,0,0,0.1,0c0.1,0,0.2,0,0.3,0
			c0.2-0.1,0.4-0.2,0.6,0c0.1,0.1,0.2,0.1,0.2,0c0.1-0.1,0.2-0.1,0.2-0.1c0.1,0,0.1,0,0.2-0.1c0.1,0,0.2,0,0.3,0c0.1,0,0.2,0,0.2,0
			c0.1-0.1,0.2-0.1,0.3,0c0.1,0.1,0.1,0.1,0.2,0c0.2-0.1,0.4-0.1,0.6-0.1c0.2,0,0.3,0,0.5,0c0.1,0,0.2,0,0.2,0.1
			c0.1,0.1,0.1,0.1,0.3,0c0.1,0,0.1,0,0.2,0c0.1,0,0.1,0,0.2,0c0,0,0.1-0.1,0.1,0c0.2,0,0.4-0.1,0.5,0c0.1,0,0.1,0,0.2,0
			c0.2,0,0.2-0.1,0.2-0.3c0-0.1,0-0.2,0-0.2C122.6,42.6,122.6,42.5,122.6,42.4z"/>
		<path class="st0" d="M107.4,35.4c-0.1-0.1-0.2,0-0.2,0.1c0,0,0,0,0,0.1c-0.1,0.1-0.1,0.2-0.3,0.1c0,0-0.1,0-0.1,0
			c-0.1,0.1-0.2,0.1-0.3,0.1c-0.2,0-0.3,0.1-0.2,0.3c0,0,0,0.1,0,0.1c-0.1,0.1-0.2,0.2-0.3,0.2c-0.1,0-0.1,0.1-0.2,0.1
			c-0.1,0.2-0.3,0.3-0.5,0.2c0,0,0,0-0.1,0c-0.1,0-0.2,0-0.2,0.2c0,0.1-0.1,0.2-0.2,0.2c-0.1,0-0.2,0-0.2,0.1c0,0-0.1,0.1-0.1,0.1
			c-0.2,0-0.2,0.1-0.3,0.2c-0.1,0.1-0.2,0.2-0.4,0.3c-0.1,0-0.2,0-0.3-0.1c-0.1,0.1-0.2,0.3-0.4,0.3c-0.1,0-0.1-0.1-0.1-0.2
			c0-0.2-0.1-0.4-0.3-0.5c-0.1-0.1-0.1-0.2-0.1-0.4c0,0,0-0.1,0-0.1c0-0.2,0-0.4-0.1-0.5c0,0,0-0.1,0-0.1c0.1-0.2,0-0.4,0-0.5
			c0-0.1,0-0.1-0.1-0.1c-0.1-0.1-0.2-0.1-0.3-0.1c-0.1,0-0.1,0.1-0.2,0.1c0,0-0.1,0-0.2,0.1c-0.1,0-0.1,0-0.1,0.1
			c-0.1,0.2-0.3,0.3-0.4,0.5c0,0.1-0.1,0.1-0.2,0.1c0,0-0.1,0-0.1,0c-0.1,0-0.2,0-0.2,0.1c0,0.1,0,0.1,0,0.2c0,0.1-0.1,0.2-0.2,0.2
			c0,0-0.1,0-0.1,0.1c0,0-0.1,0.1-0.1,0.1C100,37,100,37,99.8,36.9c-0.1,0-0.1,0-0.2,0.1c-0.1,0.1-0.1,0.2-0.2,0.3
			c-0.1,0.1-0.2,0.2-0.4,0.2c-0.1,0-0.1,0-0.2,0.1c0,0.1,0,0.1,0,0.2c0,0.1-0.1,0.1-0.2,0.1c-0.2-0.1-0.2-0.1-0.3,0.1
			c0,0.1,0,0.1-0.1,0.1c-0.1,0.1-0.2,0.1-0.2,0.2c0,0.1-0.1,0-0.1,0c0-0.1,0-0.2,0-0.3c0,0,0-0.1,0-0.1c0-0.1,0-0.2,0-0.2
			c0-0.1,0-0.2,0-0.3c0-0.1,0-0.2,0-0.2c-0.1-0.2,0-0.3,0.1-0.4c0.1-0.1,0.1-0.2,0-0.4c0,0,0-0.1-0.1-0.1c0-0.2-0.1-0.3-0.3-0.5
			c-0.1-0.1-0.3-0.2-0.4-0.1c0,0-0.1,0-0.2,0c-0.1,0-0.2-0.1-0.3-0.2c-0.1-0.2-0.3-0.1-0.3,0c-0.1,0.1-0.1,0.1-0.2,0.1
			c-0.2-0.1-0.4-0.1-0.6-0.1c-0.1,0-0.1,0-0.1-0.1c0-0.1-0.1-0.1-0.2-0.2c0,0-0.1,0-0.2,0c-0.1,0-0.1,0-0.2,0
			c-0.1,0-0.3,0.2-0.3,0.3c0,0,0,0,0,0.1c0,0.1,0.1,0.3,0.1,0.4c0,0.1,0,0.3,0,0.4c0,0.1,0,0.2,0.1,0.3c0,0,0.1,0.1,0.1,0.2
			c0,0.1,0,0.2,0,0.3c0,0.1,0,0.2-0.1,0.2c-0.1,0-0.1,0.1-0.1,0.2c0,0.2,0,0.3,0.1,0.5c0.1,0.1,0.1,0.3,0,0.4
			c-0.1,0.1-0.1,0.2-0.1,0.3c0,0.2,0.1,0.4,0,0.5c0,0.1,0,0.2,0,0.2c0.1,0.1,0.1,0.2,0,0.3c-0.1,0.1,0,0.2,0,0.3
			c0.2,0.2,0.2,0.4,0,0.6c-0.1,0.1-0.1,0.1,0,0.3c0.1,0.1,0.1,0.3,0.1,0.4c0,0,0,0.1,0,0.2c0,0.1,0.1,0.2,0,0.3c0,0.1,0,0.1,0,0.2
			c0,0.1,0,0.1,0.1,0.1c0.1,0.1,0.1,0.2,0,0.3c0,0.1-0.1,0.1-0.1,0.2c0,0.1,0,0.2,0,0.3c0,0,0.1,0.1,0.1,0.1
			c0.1,0.2,0.3,0.2,0.4,0.1c0.2-0.1,0.3-0.2,0.5-0.2c0.1,0,0.1,0,0.1-0.1c0,0,0.1,0,0.1-0.1c0.1-0.1,0.2-0.1,0.4-0.2
			c0.1,0,0.1-0.1,0.2-0.1c0.2-0.1,0.3-0.2,0.4-0.4c0.1-0.1,0.2-0.2,0.3-0.1c0.1,0.1,0.2,0,0.3-0.1c0-0.1,0.1-0.1,0.2-0.1
			c0.2,0,0.3-0.1,0.3-0.2c0,0,0.1-0.1,0.1-0.2c0-0.1,0.1-0.1,0.2-0.1c0.1,0,0.2,0,0.2-0.1c0,0,0.1-0.1,0.1-0.1
			c0-0.1,0.1-0.1,0.2-0.1c0.1,0,0.2,0,0.3-0.1c0.1-0.1,0.3-0.2,0.4-0.2c0,0.2,0,0.3,0,0.4c0,0.1,0,0.2-0.1,0.2
			c-0.1,0.1-0.1,0.2-0.1,0.3c0.1,0.1,0.1,0.3,0.1,0.4c0,0.1,0,0.1,0,0.2c-0.1,0.2-0.1,0.2,0,0.3c0,0,0,0,0.1,0.1
			c0.2,0.1,0.4,0.1,0.5,0c0.1-0.1,0.2-0.2,0.4-0.2c0.2,0,0.4,0,0.6-0.2c0,0,0,0,0,0c0.2,0,0.3-0.2,0.3-0.3c0,0,0,0,0,0
			c0.1-0.1,0.2-0.2,0.3-0.2c0.2,0,0.4,0,0.6-0.2c0.1-0.1,0.2-0.1,0.4-0.2c0.1,0,0.2,0,0.3-0.1c0.1-0.1,0.1-0.1,0.2-0.1
			c0.1,0,0.1-0.1,0.2-0.1c0.2-0.1,0.3-0.1,0.5-0.1c0.1,0,0.1,0,0.2-0.1c0,0,0.1,0,0.1-0.1c0,0.2,0,0.3,0.1,0.5c0,0,0,0,0,0
			c-0.1,0.1-0.1,0.2-0.1,0.3c0,0,0,0.1,0,0.1c-0.1,0.1,0,0.2,0,0.3c0.1,0.1,0.1,0.2,0.1,0.3c0,0.1,0,0.3,0.1,0.4
			c0.1,0.1,0.1,0.1,0.2,0c0.1,0,0.1-0.1,0.2,0c0.1,0,0.2,0,0.2,0.1c0.1,0.1,0.3,0.1,0.4,0c0.1,0,0.2-0.1,0.3,0
			c0.1,0.1,0.2,0.1,0.3,0c0.1,0,0.2-0.1,0.2,0c0.1,0,0.2,0,0.3-0.1c0.1-0.1,0.1-0.1,0.2,0c0.1,0.1,0.2,0.1,0.3,0
			c0,0,0.1-0.1,0.2-0.1c0.1,0,0.2-0.1,0.2-0.3c0-0.1,0-0.2,0.1-0.2c0.1-0.2,0.1-0.4,0-0.5c-0.1-0.1-0.1-0.3,0-0.4
			c0.1-0.2,0.1-0.3,0-0.5c0-0.2,0-0.3,0.1-0.5c0,0,0-0.1,0-0.1c0-0.2,0-0.3,0-0.5c0-0.1,0-0.3,0-0.4c-0.1-0.1-0.1-0.2-0.1-0.3
			c0-0.1,0.1-0.3,0-0.4c0-0.4,0.1-0.7,0.1-1.1c0-0.1,0-0.1,0-0.2c0-0.2,0-0.3,0-0.5c0-0.1,0.1-0.3,0-0.4c-0.1-0.1-0.1-0.2,0-0.3
			c0-0.1,0.1-0.2,0.1-0.2c0-0.2,0-0.5-0.2-0.7C107.6,35.6,107.5,35.5,107.4,35.4z"/>
		<path class="st0" d="M108.1,31.4C108.1,31.3,108.1,31.3,108.1,31.4c-0.1-0.2-0.1-0.4,0-0.5c0-0.1,0-0.2-0.1-0.3
			c-0.1-0.1-0.1-0.2-0.1-0.2c0-0.2,0.1-0.3,0.1-0.5c0-0.1,0-0.2-0.1-0.3c0-0.1-0.1-0.1-0.1-0.1c0-0.1-0.1-0.1-0.1-0.2
			c0-0.1,0-0.3-0.2-0.3c0-0.1,0.1-0.2,0.1-0.3c0.1-0.2,0.1-0.4-0.1-0.6c0,0,0,0,0,0c0.2-0.3,0.1-0.5-0.1-0.6c-0.1-0.1-0.2-0.1-0.3,0
			c-0.2,0.1-0.3,0.1-0.4-0.1c0,0-0.1,0-0.1-0.1c-0.1,0-0.2,0-0.2,0c-0.1,0-0.2,0-0.3,0.1c-0.1,0.1-0.2,0.1-0.3,0
			c-0.1,0-0.2-0.1-0.3,0c-0.1,0-0.1,0-0.2,0.1c-0.1,0-0.2,0-0.2-0.1c-0.1-0.1-0.2-0.1-0.3,0c-0.1,0.1-0.1,0.1-0.2,0.1
			c0,0-0.1,0-0.2,0c-0.1,0-0.1,0-0.2,0.1c-0.1,0.1-0.2,0.2-0.1,0.4c0,0.1,0,0.1,0,0.2c-0.1,0.1-0.1,0.2,0,0.3
			c0.1,0.1,0.1,0.2,0.1,0.3c-0.1,0.1-0.3,0.1-0.4,0.2c-0.1,0.1-0.2,0-0.2-0.1c-0.1-0.1-0.1-0.1-0.2-0.1c-0.1,0-0.1,0-0.2,0
			c-0.2,0.1-0.4,0.1-0.5,0c-0.1,0-0.2,0-0.2,0c0,0-0.1,0-0.1,0c-0.1,0-0.2,0.1-0.3,0c0,0-0.1,0-0.1,0c-0.1,0-0.1,0.1-0.1,0.1
			c-0.1,0.1-0.1,0.1-0.2,0c-0.1,0-0.1-0.1-0.2,0c-0.1,0-0.2,0.1-0.3,0.1c-0.1-0.1-0.1-0.1,0-0.2c0,0,0.1,0,0.1-0.1
			c0.1,0,0.2-0.1,0.2-0.2c0.1-0.2,0.2-0.3,0.4-0.4c0.1-0.1,0.2-0.1,0.3-0.2c0-0.1,0.1-0.1,0.1-0.1c0.1-0.1,0.1-0.1,0.1-0.2
			c0-0.1,0-0.2,0.1-0.3c0.1-0.1,0.2-0.2,0.3-0.2c0.1-0.1,0.2-0.2,0.2-0.3c0,0,0-0.1,0.1-0.1c0.1-0.1,0.1-0.1,0.2-0.1
			c0.2-0.1,0.3-0.2,0.5-0.4c0.1-0.1,0.1-0.1,0.2-0.1c0.1,0,0.2,0,0.2-0.1c0.1-0.1,0.1-0.2,0.1-0.3c0-0.1,0-0.2,0.1-0.2
			c0.2-0.2,0.3-0.4,0.5-0.5c0.1-0.1,0.2-0.2,0.3-0.2c0,0,0.1,0,0.1-0.1c0.1-0.1,0.1-0.2,0.2-0.3c0.1-0.1,0.2-0.3,0.4-0.4
			c0.1-0.1,0.2-0.2,0.4-0.3c0,0,0.1-0.1,0.1-0.1c0.2,0,0.2-0.1,0.2-0.3c0.1-0.2-0.1-0.4-0.3-0.5c-0.2,0-0.3-0.1-0.5,0
			c0,0-0.1,0-0.2,0c-0.1,0-0.2-0.1-0.3-0.1c0,0-0.1,0-0.1,0c-0.1,0.1-0.2,0.1-0.4,0c-0.1-0.1-0.2-0.1-0.3,0c-0.1,0-0.2,0-0.2,0.1
			c-0.2,0.1-0.4,0.1-0.7,0.2c-0.1,0-0.1-0.1-0.1-0.1c-0.2-0.1-0.2-0.1-0.4,0c0,0-0.1,0-0.2,0c-0.2-0.1-0.4-0.1-0.5,0
			c-0.1,0-0.1,0-0.2,0c-0.1,0-0.1-0.1-0.2,0c0,0-0.1,0-0.1,0c-0.1,0-0.2,0-0.3,0c-0.1,0-0.1,0-0.2,0c0,0-0.1-0.1-0.1-0.1
			c-0.2,0.1-0.3,0.1-0.5,0.2c0-0.1,0.1-0.2,0.1-0.3c0-0.1,0.1-0.2,0.1-0.2c0.1-0.1,0.2-0.1,0.2-0.2c0.1-0.1,0.2-0.2,0.3-0.3
			c0,0,0.1-0.1,0.1-0.1c0.1,0,0.2-0.1,0.3-0.2c0.1-0.2,0.3-0.4,0.5-0.4c0.1,0,0.1-0.1,0.1-0.2c0-0.1,0-0.2,0.1-0.2
			c0.1,0,0.2-0.1,0.2-0.2c0-0.1,0-0.1,0.1-0.1c0.2,0,0.2-0.1,0.3-0.3c0-0.1,0.1-0.2,0.3-0.3c0.1,0,0.2-0.1,0.3-0.2
			c0.1-0.1,0.1-0.2,0-0.2c-0.1-0.1-0.2-0.3-0.4-0.3c0,0-0.1-0.1-0.1-0.1c0-0.1-0.1-0.1-0.1-0.2c0-0.1-0.1-0.1-0.2-0.2
			c-0.1,0-0.2-0.1-0.3-0.3c0,0-0.1-0.1-0.1-0.1c0-0.1-0.1-0.1-0.2-0.1c-0.1,0-0.2-0.1-0.3-0.2c0-0.1-0.1-0.1-0.2-0.2
			c-0.1,0-0.2-0.1-0.3-0.2c-0.1-0.1-0.2-0.2-0.3-0.1c0,0,0,0-0.1,0c-0.2,0-0.2,0.1-0.3,0.2c-0.1,0.1-0.2,0.3-0.5,0.3
			c-0.1,0-0.1,0.1-0.1,0.1c0,0.1-0.1,0.2-0.1,0.2c-0.1,0.1-0.1,0.1-0.1,0.2c0,0.1-0.1,0.1-0.2,0.1c-0.1,0-0.2,0.1-0.2,0.2
			c0,0.1-0.1,0.2-0.2,0.2c-0.1,0.1-0.2,0.2-0.3,0.3c-0.2,0-0.3,0.1-0.3,0.2c0,0-0.1,0.1-0.1,0.1c-0.1,0-0.1,0.1-0.2,0.1
			c-0.1,0-0.1,0.1-0.2,0.1c0,0-0.1,0.1-0.1,0.1c-0.2,0.2-0.4,0.4-0.5,0.6c-0.1,0.2-0.2,0.3-0.5,0.4c-0.2,0-0.2,0.1-0.3,0.3
			c0,0.1-0.1,0.3-0.3,0.3c0,0-0.1,0-0.1,0.1c0,0.1-0.1,0.1-0.2,0.1c-0.1,0-0.1,0-0.2,0.1c-0.1,0.1-0.2,0.3-0.2,0.4
			c-0.1,0.2-0.2,0.3-0.3,0.5c-0.1,0.1-0.2,0.2-0.3,0.2c-0.1,0-0.1,0.1-0.2,0.2c0,0.1-0.1,0.2-0.2,0.2c-0.1,0-0.1,0-0.2,0.1
			c0,0.1,0,0.1-0.1,0.2c0,0.1-0.1,0.1-0.1,0.2c-0.2,0.1-0.3,0.3-0.4,0.5c-0.1,0.1-0.1,0.2-0.2,0.2c-0.2,0-0.4,0.1-0.4,0.3
			c0,0.1-0.1,0.2-0.2,0.2c0,0-0.1,0-0.1,0.1c-0.1,0.1-0.2,0.2-0.3,0.2c-0.1,0.1-0.2,0.2-0.3,0.2c0,0-0.1,0.1-0.1,0.1
			c0,0.1,0,0.1-0.1,0.2c0,0-0.1,0.1-0.1,0.1c0,0.2,0.1,0.3,0.3,0.3c0,0,0.1,0,0.1,0c0.1,0,0.2,0.1,0.4,0c0,0,0.1,0,0.1,0
			c0.1,0.1,0.2,0.1,0.3,0c0,0,0.1,0,0.1,0c0.1,0,0.2,0,0.3,0c0.1,0,0.3-0.1,0.4,0.1c0.1,0.1,0.1,0,0.2,0c0,0,0.1,0,0.1,0
			c0.2,0,0.3,0,0.5-0.1c0.1,0,0.2,0,0.3,0.1c0.1,0.1,0.1,0.1,0.3,0c0.1-0.1,0.2-0.1,0.4-0.1c0.1,0,0.2,0,0.3,0c0.1,0,0.1,0,0.2,0
			c0.1,0,0.2,0,0.2,0c0.1-0.1,0.2-0.1,0.3,0c0.1,0.1,0.2,0.1,0.3,0c0.1-0.1,0.3-0.1,0.5-0.1c0,0,0.1,0,0.1,0c0.1,0,0.1,0,0.2,0.1
			c-0.1,0-0.2,0.1-0.2,0.1c0,0-0.1,0.1-0.1,0.1c0,0.1-0.1,0.1-0.1,0.2c0,0.1-0.1,0.1-0.1,0.1c-0.1,0-0.2,0.1-0.3,0.2
			c0,0-0.1,0.1-0.1,0.1c-0.1,0-0.1,0.1-0.2,0.2c-0.1,0.1-0.2,0.2-0.3,0.3c-0.1,0-0.1,0.1-0.1,0.1c-0.1,0.1-0.1,0.3-0.2,0.4
			c-0.1,0.2-0.2,0.3-0.4,0.4c-0.1,0-0.1,0.1-0.2,0.2c0,0.1-0.1,0.2-0.1,0.2c-0.1,0.1-0.2,0.2-0.2,0.3c-0.1,0.1-0.1,0.2-0.2,0.3
			c-0.1,0.1-0.2,0.2-0.4,0.2c-0.1,0.1-0.1,0.1-0.1,0.2c0,0.1-0.1,0.3-0.1,0.4C95.1,30,95,30,94.9,30c-0.1,0-0.1,0-0.2,0.1
			c-0.1,0.1-0.1,0.1-0.2,0.2c-0.1,0.1-0.1,0.1-0.2,0.2c-0.1,0.2-0.2,0.5-0.5,0.6c0,0-0.1,0.1-0.1,0.1c0,0.1-0.1,0.2-0.2,0.3
			c-0.1,0.1-0.1,0.2-0.1,0.3c0,0.1,0.2,0.1,0.3,0.1c0.1,0,0.1,0,0.2,0c0.1,0,0.2,0.1,0.3,0c0.1-0.1,0.1-0.1,0.2,0
			c0.2,0.1,0.4,0.1,0.6,0c0.2-0.1,0.4-0.1,0.5,0.1c0.1,0.1,0.2,0.1,0.3,0C95.8,32,95.9,32,96,32c0,0,0.1,0,0.1,0
			c0.1,0,0.1,0,0.2-0.1c0.1,0,0.2,0,0.3,0.1c0.1,0.1,0.2,0.1,0.3,0c0-0.1,0.1-0.1,0.2-0.1c0.1,0,0.3,0,0.4-0.1c0.1,0,0.2,0,0.3,0
			c0.1,0.1,0.2,0.1,0.4,0c0.1-0.1,0.2-0.1,0.3,0c0.1,0.1,0.2,0.2,0.4,0.2c0,0,0,0,0,0c0.1,0,0.2,0,0.4,0c0.1,0,0.2,0,0.3,0
			c0.1,0.1,0.2,0.1,0.3,0c0.2-0.1,0.4-0.1,0.6,0c0.1,0,0.2,0,0.3,0c0.1-0.1,0.3-0.1,0.5-0.1c0.1,0,0.3,0,0.4,0c0.1,0,0.3,0,0.4,0.1
			c0.1,0.1,0.2,0.1,0.3,0c0.1-0.1,0.2-0.2,0.4-0.2c0,0,0,0,0,0c0.1-0.1,0.2-0.1,0.4,0c0.1,0,0.2,0,0.3,0c0,0,0.1,0,0.1-0.1
			c0.2,0,0.4,0,0.5,0.1c0.1,0.1,0.2,0.1,0.3,0c0.1,0,0.1-0.1,0.2,0c0,0,0.1,0,0.1,0c0,0,0,0,0,0c0,0.1,0,0.2,0,0.2
			c0.1,0.1,0.2,0.2,0.3,0.2c-0.1,0.2,0,0.3,0.2,0.4c0,0,0.1,0.1,0.1,0.1c0.1,0.1,0.2,0.1,0.3,0c0.2-0.1,0.3-0.1,0.5,0.1c0,0,0,0,0,0
			c0.1,0.1,0.2,0.1,0.3,0c0,0,0.1-0.1,0.2-0.1c0.1,0,0.1,0.1,0.2,0.1c0.1,0.1,0.1,0.1,0.2,0c0,0,0.1-0.1,0.1-0.1
			c0.2,0,0.4,0,0.6,0.1c0.2,0,0.3,0,0.4-0.2c0,0,0-0.1,0.1-0.1c0.1-0.1,0.1-0.2,0.1-0.4C108.2,31.7,108.2,31.5,108.1,31.4z"/>
		<path class="st0" d="M112.5,34.6c0.1,0,0.2,0,0.3,0.1c0,0,0.1,0,0.1,0c0.1-0.1,0.2-0.1,0.3-0.1c0.1,0,0.1,0,0.2,0.1
			c0.1,0.1,0.2,0.1,0.3,0c0,0,0.1-0.1,0.1-0.1c0.1-0.1,0.2-0.1,0.3-0.1c0.1,0,0.2,0,0.2,0c0.2,0,0.3,0,0.5,0c0,0,0,0,0.1,0
			c0.1,0.1,0.2,0.1,0.3,0.1c0.1,0,0.2,0,0.3,0c0.2,0,0.3-0.2,0.2-0.3c0-0.1,0-0.2-0.1-0.3c0-0.1-0.1-0.2-0.1-0.3c0,0,0-0.1,0-0.1
			c0-0.1,0-0.2,0-0.3c0-0.1,0-0.1,0-0.2c-0.1-0.1,0-0.2,0-0.3c0-0.1,0-0.3-0.1-0.4c0-0.1,0-0.1,0-0.2c0.1-0.2,0.1-0.3,0-0.5
			c0-0.1-0.1-0.1-0.1-0.2c0-0.1,0-0.1,0-0.2c0-0.1,0-0.2,0-0.2c0-0.1,0-0.1,0-0.2c0-0.1,0-0.2-0.1-0.3c-0.1-0.1-0.2-0.1-0.2-0.2
			c-0.1-0.1-0.2-0.1-0.3-0.1c-0.1,0-0.2,0-0.3,0.1c0,0,0,0-0.1,0c-0.1-0.1-0.2-0.1-0.2,0c-0.1,0.1-0.2,0-0.3,0
			c-0.2-0.1-0.2-0.1-0.3,0.1c-0.1,0.1-0.1,0.1-0.2,0c-0.1-0.1-0.2,0-0.3,0c0,0-0.1,0-0.1,0c-0.1,0-0.1,0-0.2,0c0,0-0.1,0-0.1,0
			c-0.1,0-0.2,0-0.3,0c-0.2,0-0.3,0.1-0.3,0.3c0,0.1,0,0.2,0,0.2c-0.1,0.1-0.1,0.2,0,0.4c0,0.1,0.1,0.2-0.1,0.3
			c-0.1,0.1-0.1,0.2,0,0.4c0,0.1,0.1,0.1,0.2,0.2c0,0,0,0.1,0,0.1c-0.1,0.1-0.1,0.3,0,0.4c0.1,0.1,0.1,0.2,0.1,0.3
			c0,0.1,0,0.2,0.1,0.2c0.1,0.1,0.1,0.2,0.1,0.4c-0.1,0.1-0.1,0.3,0,0.4c0.1,0.1,0.2,0.3,0.2,0.5C112.3,34.5,112.4,34.6,112.5,34.6z
			"/>
		<path class="st0" d="M95.3,51.4c-0.2,0-0.3,0.1-0.5,0.1c0,0-0.1,0-0.1,0c-0.2-0.1-0.3,0-0.5,0.1c-0.2,0.1-0.2,0.1-0.3,0
			c-0.1,0-0.1-0.1-0.2,0c0,0-0.1,0-0.1,0.1c-0.1,0.1-0.1,0.1-0.2,0c-0.1-0.1-0.2-0.1-0.3-0.1c-0.1,0-0.2,0-0.3-0.1
			c-0.1-0.1-0.1-0.1-0.2,0c-0.1,0.1-0.2,0.1-0.3,0c-0.1-0.1-0.2-0.1-0.3,0c-0.1,0-0.2,0.1-0.3,0.1c-0.1,0.1-0.2,0-0.2,0
			c-0.1-0.1-0.2-0.1-0.3,0c-0.1,0.1-0.2,0.1-0.4,0c-0.1-0.1-0.2,0-0.2,0c-0.1,0-0.1,0-0.2,0c-0.1,0-0.2,0-0.3,0c0,0,0,0-0.1,0
			c-0.2,0-0.4,0-0.6,0c-0.2,0-0.3,0-0.5,0c-0.1,0.1-0.2,0-0.3-0.1c-0.1-0.1-0.2-0.1-0.3,0c-0.1,0.1-0.2,0.1-0.3,0.1
			c-0.1,0-0.2,0-0.3,0c-0.2,0.1-0.4,0.1-0.6,0.2c-0.2-0.2-0.3-0.2-0.5-0.1c-0.1,0-0.2,0.1-0.2,0.1c0,0,0,0,0,0
			c-0.1-0.2-0.3-0.2-0.5-0.1c0,0-0.1,0.1-0.1,0.1c-0.1,0-0.1,0-0.2,0c-0.1-0.1-0.2-0.1-0.3,0c-0.1,0-0.1,0.1-0.2,0.1
			c-0.1,0-0.1,0-0.2,0c-0.1-0.1-0.1-0.1-0.2-0.1c-0.1,0-0.3,0.1-0.4,0c0,0,0,0,0,0c-0.1,0.1-0.2,0-0.3,0c-0.1,0-0.1,0-0.2,0
			c-0.2,0.1-0.3,0.1-0.5,0c0,0-0.1,0-0.1,0c-0.1,0-0.1,0-0.2,0c-0.1,0.1-0.2,0-0.3,0c-0.1-0.1-0.2,0-0.3,0c-0.1,0.1-0.3,0.1-0.4,0.1
			c-0.1,0-0.1,0-0.2-0.1c0-0.1-0.1-0.1-0.2-0.1c-0.2,0-0.3,0-0.5,0c-0.1,0-0.3,0-0.4,0c-0.1,0-0.2,0-0.3,0.1
			c-0.1,0.1-0.1,0.1-0.2,0.2c-0.1,0-0.1-0.1-0.2-0.1c-0.1-0.1-0.3-0.2-0.4-0.1c0,0,0,0,0,0c-0.1-0.1-0.1-0.2,0.1-0.3
			c0.1-0.1,0.3-0.2,0.4-0.3c0.1,0,0.1-0.1,0.1-0.2c0-0.2,0.1-0.3,0.2-0.4c0.1-0.1,0.2-0.2,0.2-0.4c0-0.2,0.1-0.3,0.2-0.4
			c0.1-0.1,0.1-0.1,0.2-0.3c0-0.1,0.1-0.2,0.2-0.3c0.1-0.1,0.2-0.2,0.2-0.4c0-0.1,0-0.2,0.1-0.2c0.1-0.1,0.3-0.3,0.5-0.4
			c0,0,0.1-0.1,0.1-0.2c0.1-0.1,0.2-0.2,0.2-0.3c0.1-0.2,0.3-0.2,0.4-0.4c0.2-0.2,0.3-0.5,0.6-0.6c0.2-0.1,0.3-0.3,0.4-0.4
			c0,0,0.1-0.1,0.1-0.2c0-0.2,0.1-0.4,0.2-0.5c0.1-0.1,0.1-0.2,0.1-0.3c0-0.1,0-0.2,0.1-0.3c0.2-0.1,0.3-0.2,0.4-0.4c0,0,0,0,0,0
			c0.1-0.2,0.3-0.3,0.4-0.4c0.2-0.1,0.3-0.3,0.4-0.5c0-0.2,0.1-0.3,0.3-0.4c0.1-0.1,0.2-0.2,0.2-0.3c0-0.2,0.1-0.2,0.2-0.3
			c0,0,0.1-0.1,0.1-0.1c0.2-0.1,0.3-0.2,0.4-0.4c0.1-0.2,0.3-0.4,0.5-0.6c0.1-0.1,0.2-0.2,0.2-0.3c0.1-0.2,0.2-0.4,0.4-0.6
			c0.2-0.1,0.2-0.3,0.2-0.5c0-0.1,0-0.1,0.1-0.2c0.1-0.1,0.2-0.2,0.2-0.3c0-0.1,0.1-0.1,0.1-0.2c0.1,0,0.2,0,0.3,0
			c0-0.1,0.1-0.2,0.1-0.2c0,0,0-0.1,0-0.1c0-0.2-0.1-0.4-0.3-0.4c-0.2,0-0.3,0-0.5,0c-0.1,0-0.2,0-0.2-0.1c-0.1-0.1-0.2-0.1-0.3,0
			c0,0-0.1,0.1-0.1,0c-0.1,0-0.2-0.1-0.3,0c0,0,0,0-0.1,0c-0.1-0.1-0.2,0-0.3,0c0,0-0.1,0.1-0.1,0.1c-0.1,0-0.1,0-0.2,0
			c0,0,0-0.1-0.1-0.1c-0.1-0.1-0.1-0.1-0.2-0.1c0,0-0.1,0-0.1,0.1c-0.1,0-0.2,0-0.2,0c-0.1-0.1-0.2-0.1-0.3,0c0,0-0.1,0-0.1,0.1
			c-0.1,0-0.2,0-0.3-0.1c-0.1-0.1-0.2-0.1-0.3,0c-0.1,0.1-0.2,0.1-0.4,0c-0.1,0-0.1-0.1-0.2,0c-0.2,0.1-0.4,0.1-0.7,0
			c-0.2,0-0.3,0-0.4,0.1c-0.1,0-0.2,0.1-0.3,0.1c0,0,0,0,0-0.1c-0.1-0.2-0.2-0.2-0.4-0.1c0,0-0.1,0-0.1,0.1c0,0,0,0-0.1-0.1
			c-0.1-0.1-0.2-0.1-0.3-0.1c-0.1,0.1-0.3,0.1-0.5,0c-0.1-0.1-0.2,0-0.2,0c0,0.1-0.1,0.1-0.2,0.1c-0.1,0-0.1,0-0.2,0
			c-0.1-0.1-0.2-0.1-0.3-0.1c-0.1,0-0.1,0-0.2,0c0,0-0.1,0-0.1,0c-0.1,0.1-0.2,0.1-0.4,0.1c-0.1,0-0.1,0-0.2,0c-0.2,0-0.4,0.1-0.6,0
			c-0.3,0-0.5-0.1-0.8,0c-0.1,0-0.1,0-0.2,0c-0.1-0.1-0.2-0.1-0.3,0c-0.1,0-0.1,0.1-0.2,0.1c-0.3,0.1-0.6,0.1-0.9,0
			c-0.1,0-0.1,0-0.2,0c-0.1,0-0.1,0.1-0.2,0.1c0,0-0.1,0-0.1-0.1c-0.1-0.1-0.2-0.1-0.3,0c0,0-0.1,0-0.1,0c-0.2,0.1-0.5,0.2-0.7,0
			c-0.1-0.1-0.2-0.1-0.3,0c-0.1,0.1-0.1,0.1-0.2,0.1c0,0,0,0,0,0c-0.2-0.2-0.3-0.2-0.6-0.1c-0.1,0-0.1,0-0.2,0c0,0-0.1-0.1-0.1-0.1
			c-0.1-0.1-0.3-0.2-0.5-0.1c-0.1,0-0.1,0.1-0.2,0.1c-0.2,0-0.3,0.2-0.2,0.4c0.1,0.1,0,0.3,0,0.4c-0.1,0.2-0.1,0.3,0,0.5
			c0,0.1,0.1,0.1,0.1,0.2c0,0.1-0.1,0.1-0.1,0.2c0,0,0,0,0,0.1c-0.1,0.1-0.1,0.2-0.1,0.4c0.1,0.2,0.1,0.5,0,0.7
			c-0.1,0.2,0.1,0.4,0.2,0.4c0.1,0,0.2,0,0.3,0.1c0.1,0,0.2,0,0.3,0c0.1,0,0.2,0,0.3,0.1c0.1,0,0.1,0,0.2,0c0.1-0.1,0.2-0.1,0.3,0
			c0.1,0,0.2,0.1,0.3,0.1c0.1,0,0.3,0,0.4-0.1c0.1,0,0.2-0.1,0.4-0.1c0.1-0.1,0.1-0.1,0.2,0.1c0,0.1,0.1,0.1,0.1,0.1
			c0.1,0,0.2,0,0.3,0c0.2,0,0.3,0,0.5,0c0,0,0.1,0,0.1,0c0.2-0.1,0.3-0.1,0.5,0c0.1,0.1,0.2,0.1,0.3,0.1c0.2,0,0.4,0,0.6,0
			c0.2,0,0.3,0.1,0.5,0c0.1-0.1,0.3-0.1,0.5,0c0.2,0.1,0.4,0.1,0.6,0.1c0.1,0,0.2,0,0.4,0.1c0.1,0.1,0.3,0.1,0.4,0
			c0.1-0.1,0.3-0.1,0.4,0c0.1,0,0.1,0,0.2,0c0.2,0,0.4-0.1,0.5-0.1c0.1,0,0.1,0,0.2,0c0,0,0.1,0,0.1,0.1c0,0.1-0.1,0.2-0.1,0.3
			c-0.2,0-0.2,0.2-0.3,0.3c-0.1,0.2-0.1,0.3-0.3,0.4c-0.1,0-0.2,0.1-0.2,0.3c0,0.1-0.1,0.2-0.2,0.3c-0.1,0.1-0.2,0.2-0.3,0.3
			c-0.1,0.1-0.3,0.3-0.4,0.4c-0.2,0.1-0.2,0.3-0.3,0.5c0,0.1-0.1,0.2-0.1,0.3c-0.1,0.1-0.2,0.1-0.2,0.2c-0.2,0.2-0.4,0.4-0.6,0.6
			c0,0.1-0.1,0.1-0.1,0.2c0,0.1-0.1,0.2-0.2,0.3C79.1,46.7,79,46.8,79,47c0,0.2-0.1,0.3-0.2,0.4c-0.2,0.1-0.3,0.3-0.5,0.4
			c0,0,0,0.1-0.1,0.1c0,0.1-0.1,0.2-0.1,0.3c0,0.1-0.1,0.2-0.2,0.2c-0.1,0-0.1,0.1-0.2,0.2c-0.1,0.1-0.1,0.2-0.1,0.3
			c-0.1,0.1-0.1,0.2-0.2,0.3c-0.1,0.1-0.2,0.2-0.2,0.3c-0.1,0.1-0.1,0.2-0.2,0.3c-0.1,0.1-0.1,0.2-0.2,0.3c0,0.1-0.1,0.2-0.2,0.3
			c0,0,0,0.1,0,0.1c-0.1,0.2-0.2,0.4-0.4,0.6c-0.1,0.1-0.1,0.1-0.2,0.2c0,0.2-0.2,0.2-0.3,0.3c-0.1,0.1-0.2,0.2-0.1,0.3
			c0,0.1,0,0.2-0.1,0.2c-0.2,0.1-0.3,0.2-0.4,0.4c0,0.1-0.1,0.2-0.2,0.3c0,0-0.1,0.1-0.1,0.1c-0.1,0.2-0.2,0.2-0.4,0.3
			c-0.1,0-0.2,0.1-0.2,0.2c0,0.2-0.1,0.3-0.2,0.4c-0.2,0.2-0.3,0.3-0.4,0.6c0,0,0,0,0,0.1c-0.1,0.1-0.2,0.2-0.3,0.3
			c-0.1,0.1-0.1,0.2,0,0.3c0,0.1,0.1,0.1,0.1,0.2c0.1,0.2,0.2,0.2,0.4,0.1c0.2-0.1,0.4-0.1,0.7-0.2c0.1,0,0.3,0,0.4,0
			c0.1,0,0.3,0,0.3-0.1c0,0,0.1-0.1,0.1-0.1c0,0,0,0,0,0c0.2,0.2,0.3,0.2,0.6,0.1c0.1,0,0.3-0.1,0.5,0c0.1,0,0.2,0,0.3,0
			c0.1,0,0.1-0.1,0.2-0.2c0.1-0.1,0.2-0.1,0.3,0c0.2,0.2,0.3,0.1,0.5,0c0.2-0.1,0.3-0.2,0.5,0c0.1,0.1,0.3,0.1,0.5,0
			c0.1,0,0.1,0,0.2,0c0.1,0.1,0.2,0,0.3,0c0.3-0.1,0.5-0.2,0.8,0c0.1,0.1,0.3,0.1,0.4-0.1c0,0,0.1,0,0.1,0c0,0,0.1,0,0.1,0.1
			c0.2,0,0.4,0.1,0.6,0c0.1,0,0.2,0,0.3,0.1c0.1,0,0.1,0.1,0.2,0.1c0,0,0.1,0,0.1,0c0.1,0.1,0.2,0,0.3,0c0.2-0.1,0.4-0.2,0.7-0.1
			c0.1,0,0.1,0,0.2,0.1c0.1,0.1,0.2,0.1,0.3,0c0.2-0.1,0.3-0.1,0.5,0c0.2,0,0.3,0.1,0.5,0c0.2,0,0.4-0.1,0.6-0.2c0.1,0,0.2,0,0.2,0
			c0.1,0.1,0.3,0.1,0.4,0c0.1,0,0.2-0.1,0.4-0.1c0.1,0,0.1,0,0.2,0c0.1,0.1,0.2,0.1,0.3,0c0.2,0,0.4,0,0.6-0.1c0.1,0,0.1,0,0.2,0.1
			c0.1,0.1,0.2,0.2,0.3,0.2c0.2,0,0.3,0,0.5,0c0,0,0.1,0,0.2,0c0.2,0,0.3-0.1,0.5,0c0,0,0.1,0,0.2,0c0.2-0.1,0.4-0.1,0.6-0.2
			c0.2,0,0.3-0.1,0.5,0c0.2,0,0.3,0.1,0.5,0c0,0,0,0,0,0c0.1,0.1,0.2,0,0.4,0c0.1,0,0.1,0,0.2,0c0.2,0.1,0.3,0.2,0.5,0.1
			c0.1,0,0.1,0,0.2,0c0.1,0,0.2,0,0.3,0c0.1,0,0.2,0,0.2,0c0.2,0.1,0.3,0.1,0.5,0c0,0,0.1,0,0.2,0c0.1,0,0.2,0,0.3,0
			c0.1,0,0.1,0,0.2,0c0.2,0,0.4,0,0.6,0c0,0,0.1,0,0.1,0c0.1,0,0.3,0,0.4,0c0.1,0,0.2,0,0.3,0c0,0,0.1,0,0.2,0c0,0,0.1-0.1,0.1-0.1
			c0.1,0,0.1,0,0.2,0.1c0.1,0,0.1,0,0.2-0.1c0.1-0.1,0.1-0.2,0.1-0.3c0-0.1,0-0.2,0-0.3c0,0,0-0.1,0-0.1c0.1-0.1,0.1-0.2,0-0.4
			c0,0,0-0.1,0-0.1c0-0.2,0-0.4,0.1-0.6c0-0.1,0-0.2,0-0.3c0-0.1,0-0.2,0-0.3c0.1-0.2,0.1-0.3,0.2-0.5c0-0.1,0-0.2-0.1-0.3
			C95.5,51.3,95.4,51.4,95.3,51.4z"/>
		<path class="st0" d="M78.9,34.8c-0.1,0.1-0.1,0.2,0,0.4c0,0.1,0,0.2,0,0.2c0,0.1,0,0.2,0.1,0.3c0.1,0.1,0.1,0.1,0,0.2
			c0,0.1,0,0.2,0.1,0.3c0.1,0.1,0.1,0.2,0.2,0.3c0.1,0.1,0.1,0.2,0.2,0.4c0,0,0.1,0.1,0.1,0.1c0.1,0,0.1-0.1,0.2-0.1
			c0.1-0.1,0.3-0.1,0.4,0c0.1,0.1,0.1,0.1,0.2,0c0.1,0,0.2,0,0.3,0c0.1,0,0.2,0,0.3,0c0.1,0,0.2-0.1,0.3,0c0.1,0.1,0.3,0.1,0.4,0
			c0.1-0.1,0.2-0.1,0.2,0c0.1,0.1,0.3,0.1,0.4,0.1c0.1,0,0.1,0,0.1-0.1c0-0.2,0.1-0.3,0-0.5c0-0.1-0.1-0.2-0.2-0.3
			c0.1-0.2,0.1-0.4-0.1-0.5c-0.1-0.1-0.1-0.2-0.1-0.3c0.1-0.1,0-0.3-0.1-0.4c-0.1-0.1-0.1-0.2,0-0.3c0.1-0.1,0-0.2,0-0.3
			C82,34.1,82,33.9,82,33.7c0-0.1-0.1-0.2-0.2-0.2c-0.1,0-0.1,0-0.2,0c-0.1,0-0.2,0-0.2,0c0,0,0,0-0.1,0c-0.1,0-0.1,0.1-0.2,0.1
			c0,0,0,0,0,0c-0.1,0-0.2-0.1-0.3-0.1c-0.3,0-0.6,0-0.8,0.1c-0.1,0-0.1,0-0.2,0c-0.1-0.1-0.2-0.1-0.2,0c0,0,0,0-0.1,0.1
			c-0.1-0.1-0.3-0.1-0.4,0c-0.1,0.1-0.2,0.3-0.1,0.5c0,0,0,0.1-0.1,0.1c-0.1,0.1-0.1,0.2,0,0.3C79,34.6,79,34.7,78.9,34.8z"/>
		<path class="st0" d="M18.7,48.7c0-0.1-0.1-0.3,0-0.4c0-0.1,0-0.1,0-0.2c0,0,0-0.1,0-0.1c0-0.1,0-0.1,0.1-0.2c0-0.1,0-0.2-0.1-0.2
			c-0.1,0-0.2,0-0.2-0.1c-0.1,0.1-0.1,0.1-0.2,0.1c0,0-0.1,0-0.1,0c-0.1,0-0.1,0-0.1,0c-0.1,0-0.1,0-0.2,0c0,0-0.1,0-0.1,0.1
			c-0.1-0.1-0.2-0.1-0.4-0.1c0,0-0.1,0-0.1,0c-0.1,0-0.2,0-0.2,0.1c0,0.1-0.1,0.2-0.1,0.2c0,0,0,0.1-0.1,0.1c-0.1,0.1,0,0.3-0.2,0.4
			c0,0,0,0,0,0c0,0.1-0.1,0.2-0.2,0.2c0,0.1-0.1,0.1-0.1,0.2c-0.1,0.2-0.2,0.4-0.3,0.5c-0.1,0.1-0.1,0.2-0.1,0.3
			c0,0.1-0.1,0.1-0.1,0.2c-0.1,0.1-0.3,0.2-0.3,0.4c0,0.1-0.1,0.2-0.2,0.2c-0.1,0.1-0.1,0.2-0.1,0.3c0,0.1,0,0.1-0.1,0.2
			c0,0-0.1,0.1-0.1,0.2c0,0.1,0,0.2-0.1,0.2c-0.1,0.1-0.2,0.2-0.2,0.4c0,0.1,0,0.1-0.1,0.2c0,0-0.1-0.1-0.1-0.1
			c-0.1-0.1-0.1-0.3-0.2-0.4c-0.1-0.1-0.1-0.1-0.1-0.2c0,0,0-0.1-0.1-0.1C14.1,51,14,50.9,14,50.8c0,0,0-0.1,0-0.1
			c-0.1-0.1-0.2-0.2-0.2-0.3c0,0,0,0,0,0c-0.1-0.1-0.2-0.3-0.3-0.4c0-0.1,0-0.2-0.1-0.3c0-0.1-0.1-0.2-0.1-0.3
			c0-0.1-0.1-0.2-0.1-0.2c-0.1-0.1-0.2-0.1-0.1-0.3c0,0,0-0.1-0.1-0.1c0-0.1-0.1-0.1-0.1-0.2c0-0.1,0-0.2-0.1-0.3
			c0,0-0.1-0.1-0.1-0.1c0-0.1-0.1-0.2-0.2-0.2c0,0-0.1-0.1-0.1-0.1c0-0.1,0-0.2-0.2-0.3c0,0,0-0.1-0.1-0.1c0,0-0.1-0.1-0.1,0
			c-0.1,0.1-0.2,0.1-0.3,0c0,0-0.1,0-0.1,0c-0.1,0-0.2,0.1-0.2,0.1c-0.1-0.1-0.1-0.1-0.2,0c0,0-0.1,0.1-0.1,0c0,0-0.1,0-0.1,0
			c-0.1,0-0.2,0-0.2,0c0,0-0.1,0.1-0.1,0.1c-0.1,0.1-0.1,0.1-0.1,0.2c0,0,0,0.1,0,0.1c0,0.1,0,0.2,0,0.2c0,0.1,0,0.1,0,0.2
			c-0.1,0.1-0.1,0.2,0,0.3c0,0.1,0,0.2,0,0.3c0,0.1,0,0.1,0,0.2c0,0.1,0,0.3,0,0.4c0,0,0,0.1,0,0.1c-0.1,0.1,0,0.2,0,0.3
			c0,0.1,0,0.2,0,0.4c0,0.1,0,0.1,0,0.2c0,0.1,0,0.2,0.1,0.3c0,0,0,0.1,0,0.1c-0.2,0.2-0.1,0.4-0.1,0.6c0,0.1,0.1,0.3,0.1,0.4
			c0,0.1,0,0.1,0,0.2c-0.1,0-0.1,0.1,0,0.2c0,0,0,0.1,0,0.1c0,0.1,0.1,0.3,0,0.4c-0.1,0.1-0.1,0.1,0,0.2c0,0.1,0.1,0.1,0.1,0.2
			c0,0,0,0.1,0,0.1c-0.1,0.1-0.1,0.2,0,0.3c0,0.1,0,0.2,0,0.2c-0.1,0.1,0,0.2,0,0.3c0.1,0.1,0.1,0.2,0,0.3c0,0,0,0.1,0,0.1
			c0,0.1,0.1,0.2,0.1,0.1c0.1,0,0.2,0,0.2,0c0.1,0,0.1,0,0.2,0c0,0,0.1,0,0.2,0c0.1,0,0.2,0,0.3,0c0.1,0,0.1,0,0.2,0
			c0.1,0.1,0.2,0,0.2,0c0,0,0.1,0,0.1,0c0.2,0,0.3-0.1,0.2-0.3c0,0,0-0.1,0-0.1c0-0.2-0.1-0.4,0-0.6c0,0,0,0,0,0c0-0.1,0-0.2,0-0.3
			c0-0.2,0.1-0.4,0-0.5c0.1-0.1,0-0.3,0-0.4c0,0,0,0,0,0c0.1-0.1,0.1-0.1,0-0.3c0-0.1,0-0.1,0-0.2c0.1-0.2,0-0.4,0-0.6
			c0,0,0,0,0-0.1c0-0.1,0-0.2,0-0.3c0,0,0-0.1,0.1-0.1c0.1,0.1,0.1,0.1,0.2,0.1c0,0,0.1,0.1,0.1,0.2c0,0.1,0,0.2,0.1,0.3
			c0.1,0.1,0.1,0.3,0.3,0.4c0.1,0.1,0.1,0.1,0.1,0.2c0,0,0.1,0.1,0.1,0.1c0,0.1,0,0.1,0.1,0.2c0.1,0,0.1,0.1,0.1,0.2
			c0,0.1,0.1,0.2,0.2,0.2c0.1,0,0.2,0.1,0.1,0.2c0,0.1,0,0.1,0,0.2c0,0.1,0.1,0.1,0.1,0.1c0.1,0.1,0.2,0.3,0.3,0.4c0,0,0,0,0,0
			c0,0.1,0.1,0.2,0.1,0.3c0.1,0,0.1,0.1,0.1,0.2c0,0.1,0,0.1,0.1,0.2c0.1,0,0.1,0.1,0.1,0.2c0,0,0,0.1,0,0.1c0,0,0.1,0.1,0.1,0
			c0.1-0.1,0.2,0,0.2,0c0.1,0,0.1-0.1,0.1-0.2c0,0,0,0,0,0c0-0.1,0.1-0.1,0.1-0.2c0,0,0-0.1,0.1-0.1c0-0.1,0.1-0.1,0.1-0.2
			c0,0,0-0.1,0.1-0.1c0.1-0.1,0.1-0.2,0.2-0.3c0-0.1,0-0.1,0.1-0.2c0.1,0,0.1-0.1,0.1-0.2c0,0,0,0,0,0c0-0.1,0-0.2,0.1-0.2
			c0.1,0,0.1-0.1,0.1-0.1c0,0,0-0.1,0-0.1c0-0.1,0-0.2,0.1-0.2c0.1,0,0.1-0.1,0.1-0.2c0-0.1,0-0.2,0.1-0.2c0.1-0.1,0.2-0.2,0.2-0.3
			c0,0,0-0.1,0.1-0.1c0.1,0,0.1-0.1,0.1-0.2c0,0,0-0.1,0.1-0.1c0.1-0.1,0.1-0.1,0.1-0.2c0,0,0-0.1,0-0.1c0-0.2,0.1-0.2,0.2-0.1
			c0,0.1,0.1,0.1,0.1,0.2c0,0.1,0,0.1,0,0.2c-0.1,0.1-0.1,0.2,0,0.3c0,0.1,0.1,0.2,0.1,0.2c0,0,0,0.1,0,0.1C17,52,17,52.1,17,52.2
			c0,0.1,0,0.2,0,0.3c0,0,0,0.1,0,0.2c0,0.1,0,0.1,0.1,0.2c0,0,0,0.1,0,0.1c-0.1,0.1,0,0.2,0,0.3c0,0.1,0,0.1,0,0.2
			c-0.1,0.1-0.1,0.1,0,0.2c0,0.1,0.1,0.2,0.1,0.3c0,0.1,0,0.1,0,0.1c-0.1,0.1-0.1,0.1,0,0.2c0,0.1,0,0.1,0,0.2c-0.1,0.1,0,0.2,0,0.2
			c0.1,0.1,0.2,0.1,0.4,0.1c0.1,0,0.1,0,0.2,0c0.1,0,0.1,0,0.2,0c0,0,0.1,0,0.1,0c0.1,0,0.2,0,0.2,0c0,0,0,0,0.1,0
			c0.1,0,0.2,0,0.4,0.1c0.1,0,0.2-0.1,0.2-0.2c0-0.1,0-0.2,0-0.2c0-0.2,0-0.3,0-0.5c0-0.1,0-0.2,0-0.3c0-0.1,0-0.2-0.1-0.3
			c0,0,0-0.1,0-0.1c0.1-0.1,0-0.2,0.1-0.3c0.1-0.2,0-0.3,0-0.4c0,0,0-0.1,0-0.1c0.1-0.1,0-0.2,0-0.3c0-0.2,0-0.3,0-0.5
			c0,0,0-0.1,0-0.1c-0.1-0.1-0.1-0.2,0-0.3c0.1-0.1,0.1-0.1,0-0.2c0-0.1,0-0.2,0-0.2c0-0.1,0-0.2,0-0.3c0-0.1,0-0.1,0-0.2
			c0.1-0.1,0-0.3,0-0.4c0-0.1-0.1-0.2,0-0.3c0-0.1,0-0.2,0-0.3c0-0.1-0.1-0.2,0-0.3C18.7,48.8,18.7,48.7,18.7,48.7z"/>
		<path class="st0" d="M10.5,37.2C10.5,37.2,10.6,37.3,10.5,37.2c0,0.1,0.1,0.2,0,0.2c0,0.1,0,0.2,0.1,0.3c0.1,0.1,0.1,0.2,0,0.3
			c0,0,0,0.1,0,0.1c0,0.1,0,0.1,0,0.2c0,0.1,0,0.1,0,0.2c0,0.1,0,0.1,0,0.2c0,0.1,0,0.2,0.1,0.3c0.1,0.1,0.1,0.2,0.1,0.3
			c0,0,0,0,0,0c-0.2,0.1-0.2,0.1-0.1,0.3c0,0.1,0,0.1,0,0.2c0,0.1,0,0.2,0,0.2c0,0.1,0.1,0.2,0.1,0.4c-0.1,0.1-0.1,0.1-0.1,0.2
			c0,0.1,0,0.1,0,0.2c0,0.1-0.1,0.1,0,0.2c0,0.1,0,0.2,0,0.3c0,0.1,0,0.1,0,0.2c0,0.1,0,0.2,0,0.2c-0.1,0.1,0,0.2,0,0.3
			c0,0.1,0,0.1,0,0.2c0,0,0,0.1,0,0.1c0,0.1,0.3,0.2,0.4,0.1c0.1,0,0.1-0.1,0.2,0c0.1,0,0.1,0.1,0.2,0c0.1,0,0.1,0,0.2,0
			c0.1,0,0.1,0,0.2,0c0,0,0.1,0,0.1,0c0,0,0.1,0,0.1,0c0.1,0,0.1-0.1,0.2-0.1c0,0,0.1-0.1,0.1-0.1c0.1-0.2,0.1-0.4,0.1-0.6
			c0-0.2-0.1-0.4-0.1-0.6c0,0,0,0,0-0.1c0-0.1,0-0.1,0-0.2c0-0.2,0-0.3,0-0.5c0-0.1,0-0.1,0-0.2c0.1-0.1,0.1-0.2,0-0.2
			c0,0-0.1-0.1-0.1-0.1c0.2-0.1,0.2-0.2,0.1-0.3c0-0.1,0-0.1,0-0.2c0.1-0.1,0.1-0.2,0-0.4c0,0,0-0.1,0-0.1c0-0.1,0-0.2,0-0.3
			c0-0.1,0-0.1,0-0.2c0.1-0.1,0-0.1,0-0.2c0-0.1-0.1-0.1,0-0.2c0,0,0-0.1,0.1-0.1c0.1,0,0.1,0.1,0.2,0.2c0,0.1,0.1,0.1,0.1,0.2
			c0,0,0.1,0.1,0.1,0.1c0,0,0.1,0.1,0.1,0.1c0,0,0.1,0.1,0.1,0.1c0.1,0.1,0.2,0.2,0.3,0.3c0,0,0.1,0.1,0.1,0.1c0,0.1,0,0.2,0.1,0.2
			c0.1,0,0.1,0.1,0.1,0.1c0,0.1,0.1,0.1,0.2,0.2c0.1,0,0.1,0.1,0.1,0.2c0,0.2,0.1,0.3,0.2,0.3c0,0,0,0,0,0.1c0,0.1,0.1,0.1,0.1,0.2
			c0.1,0.1,0.1,0.1,0.1,0.2c0,0.1,0,0.2,0.2,0.2c0,0,0,0,0,0c0.1,0,0.2,0.1,0.2,0.3c0,0.1,0,0.1,0.1,0.2c0.1,0.1,0.2,0.2,0.2,0.3
			c0,0,0.1,0.1,0.1,0.1c0.1,0,0.1,0.1,0.1,0.2c0,0.1,0,0.2,0.1,0.2c0,0,0.1,0.1,0.1,0.2c0,0,0.1,0.1,0.1,0.1c0.1,0,0.1,0.1,0.1,0.2
			c0,0.1,0.1,0.1,0.2,0.1c0.1,0,0.1,0,0.2,0c0.1,0,0.2,0,0.2-0.1c0,0,0,0,0,0c0.1,0,0.1,0.1,0.2,0.1c0.1,0,0.1,0,0.2-0.1
			c0.1,0.1,0.2,0.1,0.3,0.1c0.1,0.1,0.2,0,0.3,0c0.1-0.1,0.2-0.2,0.2-0.3c0-0.1,0-0.2,0-0.4c0-0.1,0-0.1,0-0.2c0-0.1,0-0.2,0-0.3
			c0-0.1,0-0.2,0-0.3c0,0,0-0.1,0-0.2c0-0.1,0.1-0.2,0-0.3c0,0,0,0,0-0.1c0-0.1,0-0.2-0.1-0.3c0-0.1,0-0.1,0-0.2
			c0.1-0.1,0.1-0.1,0-0.2c0-0.1-0.1-0.2,0-0.2c0-0.1,0-0.2,0-0.2c0-0.1,0-0.2,0-0.3c0,0,0-0.1,0-0.1c0.1-0.1,0.1-0.2,0-0.3
			c0-0.1-0.1-0.2,0-0.3c0.1-0.1,0.1-0.1,0-0.2c-0.1-0.1-0.1-0.2,0-0.3c0.1-0.1,0.1-0.2,0-0.3c-0.1-0.1-0.1-0.2,0-0.3
			c0.1-0.1,0.1-0.2,0-0.3c0,0,0-0.1,0-0.1c0.1-0.1,0.1-0.1,0-0.2c0-0.1,0-0.2,0-0.3c0-0.1,0-0.2,0-0.3c0-0.1,0-0.1,0-0.2
			c0.1-0.2-0.1-0.3-0.1-0.4c0,0,0,0,0,0c-0.2,0-0.3,0-0.5,0c-0.1,0-0.2,0-0.2,0c-0.2,0-0.3,0.1-0.5,0.1c-0.1,0-0.1,0-0.2,0
			c-0.1,0-0.1,0-0.1,0.1c0,0.1-0.1,0.2-0.1,0.4c0,0.1,0,0.2,0,0.3c0,0.1,0,0.2,0.1,0.3c0,0.1,0,0.2,0,0.2c0,0,0,0.1,0,0.1
			c-0.1,0.1,0,0.2,0,0.3c0,0.1,0,0.1,0,0.2c0,0.1,0,0.1,0,0.2c0,0.1,0,0.1,0,0.2c0,0.1-0.1,0.1,0,0.2c0,0.1,0.1,0.3,0.1,0.4
			c0,0.1,0,0.1,0,0.2c-0.1,0.1-0.1,0.2,0,0.3c0,0,0,0.1,0,0.2c-0.1,0.1,0,0.3-0.1,0.4c0,0,0,0.1,0,0.1c0,0.1,0,0.2,0,0.4
			c0,0,0,0.1,0,0.1c0,0.1,0,0.1,0.1,0.2c0,0.1,0,0.1,0,0.2c0,0-0.1,0-0.1,0c-0.1-0.1-0.2-0.2-0.3-0.4c0,0-0.1-0.1-0.1-0.1
			c-0.1-0.1-0.2-0.1-0.2-0.3c0,0-0.1-0.1-0.1-0.1c-0.1-0.1-0.1-0.1-0.2-0.2c0-0.1-0.1-0.2-0.1-0.2c-0.1-0.1-0.1-0.1-0.2-0.2
			c0,0-0.1-0.1-0.1-0.1c-0.1-0.1-0.2-0.1-0.2-0.2c0-0.1-0.1-0.1-0.1-0.2c-0.1,0-0.1-0.1-0.1-0.2c0,0,0-0.1-0.1-0.1
			c-0.1,0-0.1-0.1-0.1-0.2c0,0,0-0.1-0.1-0.1c-0.1-0.1-0.2-0.2-0.3-0.3c-0.1-0.1-0.1-0.1-0.1-0.2c0-0.1,0-0.1-0.1-0.2
			c-0.1-0.1-0.2-0.1-0.3-0.2c-0.1,0-0.1-0.1-0.1-0.2c0-0.1,0-0.2-0.1-0.2c-0.1,0-0.1-0.1-0.1-0.2c0-0.1,0-0.1-0.1-0.2
			c-0.1,0-0.1-0.1-0.1-0.2c-0.1-0.1-0.2-0.2-0.3-0.1c-0.1,0-0.1,0-0.2,0c-0.1,0-0.1,0-0.2,0c0,0-0.1,0-0.1,0c-0.1,0-0.1,0-0.2,0
			c0,0-0.1,0-0.1,0c0,0-0.1,0-0.1,0c0,0-0.1,0-0.1,0c-0.1,0-0.2,0-0.3,0c-0.1,0-0.1,0-0.1,0.1c0,0.1,0,0.2,0,0.2
			c0,0.1-0.1,0.1,0,0.2c0,0.1,0,0.1,0,0.2c0,0.1,0,0.2,0,0.4c0,0,0,0.1,0,0.1c0.1,0.1,0,0.1,0,0.2C10.5,36.9,10.6,37.1,10.5,37.2z"
			/>
		<path class="st0" d="M8.8,38.4c-0.1-0.1-0.1-0.2-0.1-0.3c0-0.1,0-0.2,0-0.2c0,0,0-0.1,0-0.1c0,0,0-0.1,0-0.1c0-0.1,0-0.2,0-0.3
			c0,0,0-0.1,0-0.1c0.1-0.1,0.1-0.2,0-0.3c0-0.1-0.1-0.1,0-0.2c0.1-0.1,0-0.2,0-0.2c0-0.1,0-0.1-0.1-0.2c0,0,0,0,0,0
			C8.8,36,8.8,36,8.7,35.8c0-0.1-0.1-0.2,0-0.3c0.1-0.1,0-0.3-0.2-0.3c-0.1,0-0.1,0-0.2,0c-0.2-0.1-0.3,0-0.4,0.1c0,0-0.1,0-0.1,0
			c-0.2-0.1-0.3-0.1-0.5-0.1c-0.1,0-0.2,0.1-0.1,0.2c0,0.1,0,0.3,0,0.4c0,0.1,0,0.2,0,0.4c0,0.1,0,0.1,0,0.2c-0.1,0.1-0.1,0.2,0,0.3
			c0.1,0.1,0.1,0.2,0,0.3c-0.1,0.1-0.1,0.1,0,0.2c0.1,0.1,0.1,0.1,0,0.2c-0.1,0.1-0.1,0.1,0,0.2c0,0,0,0.1,0,0.1c0,0.1,0,0.2,0,0.2
			c0,0,0,0.1,0,0.1c0,0,0,0.1,0,0.1c0,0.1,0.1,0.2,0,0.2c0,0,0,0.1,0,0.1c0.1,0.1,0.1,0.2,0.1,0.3c0,0.2,0,0.3,0,0.5
			c0,0.1,0,0.2,0,0.3c0,0,0,0.1,0,0.1C7.1,40,7,40.1,7.1,40.4c0,0.1,0,0.1,0,0.2c0,0.1,0,0.2,0,0.2c0,0.1,0,0.1,0,0.2
			c0,0,0,0.1,0,0.1c0.1,0.1,0.1,0.2,0.1,0.3c0,0.2,0,0.4,0,0.5c-0.1,0.1,0,0.3,0,0.4c0,0.1,0,0.2,0,0.3c-0.1,0.1-0.1,0.2,0,0.3
			c0.1,0.1,0.1,0.2,0,0.2c-0.1,0.1,0,0.2,0,0.3c0,0,0,0.1,0,0.1c-0.1,0.1,0,0.2,0,0.3c0,0.1,0,0.1,0,0.2c-0.1,0-0.1,0.1,0,0.2
			c0,0,0,0.1,0,0.1c0,0.1,0,0.1,0,0.2c0,0.1,0.1,0.3,0,0.4c0,0,0,0.1,0,0.1c0,0.2,0,0.3,0,0.5c0,0.1,0,0.2,0,0.2c0,0.1,0,0.2,0,0.3
			c0,0,0,0.1,0,0.1c0.1,0.2,0.1,0.3,0,0.5c0,0.1,0,0.2,0,0.3c0,0.2,0,0.3,0,0.5c0,0,0,0,0,0c-0.1,0.2-0.1,0.4,0,0.6
			c0,0.1,0.1,0.2,0.1,0.4c0,0.1,0,0.2,0,0.4c0,0,0,0.1,0,0.1c-0.1,0.2-0.1,0.4-0.2,0.6c0,0,0,0,0,0.1c0,0.2,0.1,0.4,0.1,0.6
			c0,0.1,0,0.2,0,0.2c0,0.1,0,0.2,0,0.2c0,0.1,0,0.1,0,0.2c0,0.1,0,0.2,0,0.2c0,0.1,0,0.1,0,0.2c0,0,0.1,0.1,0.1,0.1
			c0,0.1,0.1,0.2,0,0.2c-0.1,0.1,0,0.3,0,0.4c0,0.1,0,0.2,0,0.2c-0.1,0.1-0.1,0.2,0,0.3c0,0,0,0.1,0.1,0.1c0,0.1,0.1,0.1,0,0.2
			c0,0,0,0.1,0,0.1c0,0.1,0,0.2,0,0.3c0,0.1,0,0.2,0,0.3c0,0,0,0.1,0,0.1c0,0.1,0,0.2,0,0.2c0,0,0,0.1,0,0.2c0.1,0.1,0.1,0.2,0,0.3
			c0,0.1,0,0.2,0,0.3c0,0.1,0.1,0.1,0.1,0.1c0.1,0,0.1,0,0.2,0c0,0,0.1,0,0.1,0c0,0,0.1,0,0.1-0.1c0,0,0,0,0,0c0,0,0,0,0,0
			c0.1,0.1,0.1,0.1,0.2,0c0,0,0.1-0.1,0.1-0.1c0.1,0.2,0.3,0.1,0.4,0.1c0,0,0.1,0,0.2,0c0.2,0,0.2-0.1,0.2-0.3c0-0.2,0-0.3,0-0.5
			c0,0,0-0.1,0-0.1c0,0,0-0.1,0-0.1c0-0.2,0-0.3-0.1-0.5c0,0,0,0,0,0c0-0.1,0-0.2,0-0.3c0-0.1,0-0.2,0-0.3c0-0.1,0-0.4,0-0.6
			c0-0.2-0.1-0.3,0-0.5c0,0,0,0,0-0.1c0-0.1,0-0.2,0-0.3c0-0.1,0-0.1,0-0.1c0.1-0.1,0.1-0.1,0-0.2c0-0.1-0.1-0.2-0.1-0.2
			c0,0,0-0.1,0-0.1c0-0.2,0-0.3,0-0.4c0-0.1,0-0.1,0-0.2c0.1-0.1,0.1-0.2,0.1-0.3c0-0.1,0-0.2,0-0.3c0.1-0.1,0.1-0.2,0-0.3
			c0-0.1-0.1-0.2,0-0.3c0-0.2-0.1-0.5,0-0.7c0,0,0-0.1,0-0.1c0,0,0-0.1,0-0.1c0-0.1,0-0.1,0-0.2c0-0.1,0-0.2,0-0.4c0,0,0-0.1,0-0.2
			c0-0.1,0-0.1,0-0.2c0-0.1,0-0.2,0-0.3c0-0.1,0-0.2,0-0.3c0-0.1,0-0.2,0-0.3c0-0.1,0-0.1,0-0.2c0.1-0.1,0-0.2,0-0.3
			c0,0,0-0.1-0.1-0.1c0-0.1,0-0.1,0-0.2c0-0.1,0-0.1,0-0.2c0-0.1-0.1-0.2,0-0.3c0,0,0-0.1,0-0.1c0-0.1,0-0.1-0.1-0.2
			c0-0.1,0-0.2,0-0.2c0.1-0.1,0-0.2,0-0.3c0,0,0-0.1,0-0.1c0-0.1,0-0.2,0-0.2c0-0.1-0.1-0.2,0-0.3c0,0,0-0.1,0-0.2c0,0,0-0.1,0-0.1
			c0.1-0.1,0.1-0.3,0.1-0.4c0-0.2-0.1-0.4,0-0.6c0-0.1,0-0.2,0-0.3c0-0.1,0-0.1,0-0.2c0.1-0.1,0.1-0.1,0-0.2c0-0.1-0.1-0.2,0-0.3
			c0-0.1,0-0.3,0-0.4c0-0.1,0-0.2,0-0.2c0.1-0.1,0-0.1,0-0.2c0,0,0-0.1-0.1-0.1c0.1-0.1,0.1-0.2,0-0.4c0,0,0-0.1,0-0.2
			c0-0.1,0-0.2,0-0.3c0-0.1,0-0.2,0-0.2c0,0,0-0.1,0-0.1C8.9,38.6,8.9,38.5,8.8,38.4z"/>
		<path class="st0" d="M38.1,50.8c0-0.1,0-0.2,0-0.3c0,0,0-0.1,0-0.2c0.1-0.1,0-0.2-0.1-0.2c0,0-0.1-0.1-0.1-0.1
			c0-0.1,0-0.2-0.1-0.3c-0.1-0.1-0.1-0.1-0.1-0.2c0,0,0-0.1-0.1-0.1c-0.1,0-0.1-0.1-0.2-0.2c0-0.1-0.1-0.1-0.2-0.2
			c-0.1-0.1-0.1-0.2-0.2-0.3c0-0.1-0.1-0.1-0.1-0.1c-0.2,0-0.2-0.2-0.4-0.3c-0.1,0-0.1-0.1-0.2-0.1c-0.1,0-0.1,0-0.1-0.1
			c0,0,0-0.1-0.1-0.1c-0.2,0-0.3-0.2-0.5-0.2c-0.1,0-0.1,0-0.2,0c0,0-0.1,0-0.1-0.1c-0.1-0.1-0.2-0.1-0.2-0.1c-0.1,0-0.1,0-0.2,0
			c-0.1-0.1-0.3-0.1-0.5,0c-0.1,0-0.2,0-0.2,0c-0.1-0.1-0.2-0.1-0.3,0c-0.1,0-0.1,0.1-0.2,0.1c-0.1,0.1-0.1,0.1-0.2,0
			c-0.1-0.1-0.2-0.1-0.2,0c-0.1,0.1-0.2,0.1-0.3,0.1c0,0-0.1,0-0.1,0c-0.1,0.1-0.3,0.1-0.4,0.2c0,0,0,0,0,0c-0.1,0-0.1,0.1-0.2,0.1
			c0,0-0.1,0-0.1,0.1c0,0.1-0.1,0.1-0.2,0.2c-0.2,0-0.4,0.2-0.4,0.4c-0.1,0.1-0.2,0.1-0.3,0.2c0,0.2-0.2,0.3-0.3,0.4c0,0,0,0,0,0
			c-0.1,0-0.1,0.1-0.1,0.2c0,0.1,0,0.1-0.1,0.2c0,0,0,0,0,0.1c-0.1,0.2-0.1,0.5-0.2,0.7c0,0.1,0,0.2-0.1,0.3
			c-0.1,0.1-0.1,0.1-0.1,0.2c0,0.1,0,0.1,0,0.2c0,0.2,0,0.4,0,0.6c0,0.1,0,0.2,0.1,0.3c0,0,0,0.1,0,0.1c0,0.2,0,0.3,0.1,0.4
			c0.1,0.1,0.1,0.2,0.1,0.3c0,0.1,0,0.1,0.1,0.2c0.1,0.1,0.2,0.1,0.2,0.2c0,0,0,0.1,0.1,0.1c0,0,0.1,0,0.1,0.1
			c0,0.1,0.1,0.2,0.2,0.3c0.1,0.1,0.1,0.1,0.1,0.2c0,0.1,0.1,0.1,0.1,0.2c0,0,0.1,0,0.1,0.1c0.1,0,0.1,0.1,0.2,0.2
			c0,0,0,0.1,0.1,0.1c0.1,0.1,0.3,0.1,0.4,0.2c0.1,0.1,0.2,0.2,0.4,0.2c0,0,0,0,0,0c0.1,0.1,0.1,0.1,0.2,0.1c0.1,0,0.1,0,0.2,0.1
			c0,0.1,0.1,0.1,0.2,0c0.1-0.1,0.2-0.1,0.4,0c0.1,0.1,0.3,0.1,0.5,0.1c0.1,0.1,0.3,0,0.4,0c0.1,0,0.2,0,0.2-0.1
			c0.1-0.1,0.2-0.1,0.3,0c0.1,0.1,0.1,0,0.1-0.1c0,0,0-0.1,0.1-0.1c0.1,0.1,0.2,0,0.2,0c0.1,0,0.1,0,0.2-0.1c0.1,0,0.3-0.1,0.3-0.2
			c0-0.1,0.1-0.1,0.1,0c0.2,0,0.2,0,0.3-0.1c0-0.1,0.1-0.1,0.2-0.1c0.1,0,0.1-0.1,0.1-0.1c0,0,0-0.1,0.1-0.1
			c0.1-0.1,0.2-0.2,0.2-0.3c0-0.1,0-0.1,0.1-0.1c0.1,0,0.1-0.1,0.2-0.1c0-0.1,0.1-0.2,0.1-0.2c0,0,0-0.1,0-0.1
			c0-0.1,0.1-0.2,0.1-0.3c0.1-0.1,0.1-0.1,0.1-0.2c0-0.2,0.2-0.3,0.1-0.5c0,0,0,0,0,0c0-0.1,0.1-0.2,0-0.3c0,0,0-0.1,0-0.1
			c0.1-0.1,0.1-0.2,0.1-0.4C38.2,51.1,38.1,51,38.1,50.8z M36.5,51.1c0,0.1,0,0.2,0,0.2c0,0.1,0,0.2,0,0.3c0,0.1,0,0.1,0,0.2
			c0,0,0,0.1-0.1,0.1c-0.1,0.1-0.1,0.1-0.1,0.2c0,0.1-0.1,0.2-0.1,0.3c-0.1,0.1-0.1,0.1-0.1,0.2c-0.1,0.1-0.1,0.1-0.2,0.2
			c0,0-0.1,0.1-0.1,0.1c-0.2,0.1-0.2,0.1-0.3,0.3c-0.1,0-0.1,0-0.2,0c-0.2,0-0.2,0-0.3,0.2c-0.1,0-0.1,0-0.1,0
			c-0.1,0-0.2,0.1-0.3,0.1c-0.1,0-0.2,0-0.2,0c0,0-0.1,0-0.1,0c0,0-0.1,0-0.1,0c-0.1,0-0.1,0-0.2,0c-0.1,0-0.1,0-0.1,0
			c0,0,0,0-0.1,0c-0.1,0-0.2,0-0.2-0.1c0,0-0.1,0-0.1,0c-0.1,0-0.2,0-0.2-0.1c0,0-0.1-0.1-0.1-0.1c-0.1,0-0.2-0.2-0.3-0.3
			c0-0.1-0.1-0.1-0.1-0.1c-0.1,0-0.1,0-0.1-0.1c0,0,0,0,0,0c0-0.1-0.1-0.2-0.1-0.3c0-0.1-0.1-0.2-0.2-0.2c0-0.2,0-0.3-0.2-0.4
			c0,0,0-0.1,0-0.1c0-0.1,0-0.1,0-0.2c0-0.1,0-0.3,0-0.4c0,0,0-0.1,0-0.1c0-0.1,0-0.1,0-0.2c-0.1-0.1,0-0.2,0-0.3
			c0-0.1,0.1-0.1,0.1-0.2c0-0.1,0.1-0.1,0.1-0.1c0,0,0.1,0,0.1,0c0.1,0,0.2-0.1,0.1-0.2c0-0.1,0-0.1,0.1-0.1c0.1,0,0.2-0.1,0.2-0.2
			c0,0,0.1-0.1,0.1-0.1c0,0,0.1-0.1,0.1-0.1c0,0,0,0,0.1-0.1c0.1,0,0.1-0.1,0.2-0.1c0,0,0,0,0,0c0.1,0.1,0.1,0.1,0.2,0
			c0-0.1,0.1-0.1,0.1-0.1c0.1,0,0.3,0,0.4-0.1c0.1,0,0.1,0,0.2,0c0.1,0,0.1,0,0.2-0.1c0.1-0.1,0.1-0.1,0.2,0c0.1,0,0.1,0,0.2,0.1
			c0,0.1,0.1,0.2,0.3,0.2c0.1,0,0.2,0,0.3,0c0,0,0.1,0,0.1,0.1c0,0.1,0.1,0.1,0.2,0.1c0.1,0,0.1,0.1,0.2,0.1
			c0.1,0.1,0.1,0.3,0.3,0.4c0,0,0.1,0.1,0.1,0.2c0,0.1,0,0.2,0.1,0.3c0,0,0.1,0,0.1,0.1c-0.1,0.2,0,0.3,0,0.5
			C36.6,51,36.5,51.1,36.5,51.1z"/>
		<path class="st0" d="M26,53.3c-0.1,0-0.2-0.1-0.3,0c-0.1,0-0.2,0-0.2,0c0,0,0,0-0.1,0c0,0-0.1,0-0.1,0c-0.2,0-0.3,0-0.4,0.1
			c0,0-0.1,0-0.1,0c-0.1-0.1-0.2,0-0.3,0c-0.1,0-0.1,0-0.2,0c-0.1-0.1-0.2-0.1-0.3,0c-0.1,0-0.1,0-0.2,0c-0.1,0-0.3-0.1-0.4,0.1
			c0,0.1-0.1,0-0.1,0c-0.1-0.1-0.1-0.1-0.3-0.1c-0.1,0-0.2,0-0.2,0c-0.1,0-0.2-0.1-0.3,0c-0.1,0-0.2,0-0.3,0c0-0.1,0-0.2,0-0.3
			c0,0,0-0.1,0-0.1c0.1-0.1,0.1-0.1,0-0.2c0-0.1,0-0.1,0-0.2c0,0,0-0.1,0-0.1c0-0.2-0.1-0.3-0.1-0.5c0,0,0.1-0.1,0.1-0.1
			c0.1-0.1,0.2-0.1,0.2,0c0,0,0.1,0.1,0.1,0c0.1-0.1,0.1,0,0.2,0c0.1,0,0.1,0,0.2,0c0.1-0.1,0.2-0.1,0.4,0c0.1,0.1,0.1,0.1,0.2,0
			c0.1-0.1,0.2-0.1,0.3,0c0.1,0,0.1,0,0.2,0c0.1,0,0.1,0,0.2,0c0.1,0.1,0.2,0,0.3,0c0,0,0.1,0,0.1,0c0.1-0.1,0.2-0.2,0.2-0.3
			c0,0,0-0.1,0-0.1c0-0.1,0-0.1,0-0.2c0,0,0-0.1-0.1-0.1c0-0.1,0.1-0.1,0.1-0.2c0-0.1,0-0.1,0-0.2c0-0.1,0-0.1-0.1-0.2
			c-0.2,0-0.3-0.1-0.5,0c0,0-0.1-0.1-0.1-0.1c0,0-0.1,0-0.1,0c-0.1,0-0.2,0-0.3,0c0,0-0.1,0-0.1,0c-0.1-0.1-0.1,0-0.2,0
			c-0.1,0-0.1,0-0.1,0.1c-0.1,0.1-0.2,0.1-0.3,0c0,0-0.1-0.1-0.2,0c-0.1,0.1-0.2,0-0.2,0c-0.1,0-0.1,0-0.2,0c-0.1,0.1-0.2,0-0.3-0.1
			c0.1-0.1,0.1-0.3,0-0.4c0,0,0-0.1,0-0.1c0,0,0-0.1,0-0.1c0-0.1-0.1-0.3,0-0.4c0.1,0,0.2,0,0.3,0c0.1,0,0.2,0,0.2,0
			c0.1,0,0.1,0,0.2,0c0.1,0,0.1,0.1,0.2,0c0.1-0.1,0.2-0.1,0.2,0c0.1,0.1,0.1,0.1,0.2,0c0.1,0,0.1-0.1,0.2,0c0.1,0,0.2,0.1,0.3,0
			c0,0,0.1,0,0.1,0c0.1,0.1,0.2,0.1,0.3,0c0.1,0,0.2-0.1,0.3,0c0.1,0,0.1,0,0.2,0c0.1,0,0.2-0.1,0.3,0c0.1,0.1,0.1,0,0.2,0
			c0.1,0,0.1-0.1,0.2,0c0.1,0.1,0.2,0,0.3,0c0.1,0,0.1-0.1,0.1-0.2c0-0.1,0-0.1,0-0.2c0,0,0-0.1,0-0.1c-0.1-0.1,0.1-0.3-0.1-0.5
			c0,0,0,0,0-0.1c0-0.1,0-0.2,0-0.2c0,0,0-0.1,0-0.2c0-0.1-0.1-0.2-0.2-0.2c-0.1,0-0.1,0.1-0.2,0.1c-0.1-0.2-0.2-0.1-0.3,0
			c-0.1-0.2-0.2-0.1-0.3,0c-0.1,0-0.1-0.1-0.2-0.1c-0.1,0-0.1,0-0.2,0c0,0-0.1,0-0.1,0c-0.2,0.1-0.3,0.1-0.5,0c-0.1,0-0.2-0.1-0.2,0
			c-0.1,0-0.1,0.1-0.2,0c-0.1,0-0.2,0-0.3,0c-0.1,0-0.3,0-0.4,0c0,0,0,0,0,0c-0.1-0.1-0.1,0-0.2,0c-0.1,0.1-0.1,0.1-0.2,0
			c-0.1-0.1-0.1-0.1-0.2,0c0,0-0.1,0-0.1,0.1c-0.1,0.1-0.2,0.1-0.3,0c-0.1-0.1-0.1-0.1-0.2,0c-0.1,0.1-0.2,0.1-0.3,0c0,0,0,0-0.1,0
			c-0.1,0-0.2,0.1-0.2,0.1c-0.1,0-0.1,0-0.2,0c-0.1-0.1-0.1-0.1-0.2,0c0,0-0.1,0-0.1,0c0,0,0,0,0,0.1c0,0.1,0,0.2,0,0.3
			c0,0.1,0,0.1,0,0.2c0,0.1,0,0.1,0,0.2c0,0.1,0,0.1,0,0.2c-0.1,0.1-0.1,0.2,0,0.4c0,0.1,0,0.1,0,0.2c-0.1,0.1-0.1,0.1,0,0.2
			c0,0,0.1,0.1,0,0.1c-0.1,0.1-0.1,0.3,0,0.4c0,0,0,0,0,0.1c0,0.1,0,0.3,0.1,0.4c0,0.1,0.1,0.2,0,0.2c-0.1,0.1-0.1,0.1,0,0.2
			c0,0.1,0.1,0.1,0.1,0.2c-0.1,0.2-0.1,0.2-0.1,0.4c0,0,0,0,0,0c0,0.1,0,0.1,0,0.2c0,0.1,0,0.1,0,0.2c0,0.1,0,0.2,0,0.2
			c0,0.1,0,0.2,0,0.2c0,0.1,0.1,0.3,0,0.4c-0.1,0.1-0.1,0.2,0,0.3c0,0,0,0.1,0.1,0.1c0,0.1,0,0.2,0,0.3c0,0,0,0.1,0,0.1
			c-0.1,0.1-0.1,0.2,0,0.3c0,0.1,0,0.2,0,0.3c0,0,0,0.1,0,0.2c0.1,0.1,0,0.2,0,0.3c0,0.1,0.1,0.2,0.2,0.2c0.1,0,0.2-0.1,0.3-0.1
			c0.1,0.1,0.1,0.1,0.2,0c0,0,0.1,0,0.1,0c0.1,0.1,0.2,0,0.2,0c0.1,0,0.1,0,0.2-0.1c0.1,0.1,0.2,0.1,0.3,0c0.1,0,0.2-0.1,0.3,0
			c0,0,0.1,0,0.2,0c0,0,0.1,0,0.1-0.1c0,0,0.1,0.1,0.1,0.1c0.1,0,0.3,0,0.4,0c0.1,0,0.1,0,0.2,0c0.1,0.1,0.2,0.1,0.2,0
			c0,0,0.1,0,0.1,0c0.1,0,0.1,0,0.2,0c0,0.1,0.1,0.1,0.2,0c0.1,0,0.1-0.1,0.2,0c0.1,0,0.2,0,0.3,0c0,0,0.1,0,0.1,0
			c0.1,0.1,0.1,0.1,0.1,0.1c0.1,0,0.3,0,0.4,0c0.1,0,0.1,0,0.2,0c0.1,0.1,0.3,0,0.4,0c0.1,0,0.2-0.1,0.3-0.2c0.1-0.1,0-0.2,0-0.3
			c0-0.1,0-0.1,0-0.2c0.1-0.1,0.1-0.1,0-0.2c0-0.1,0-0.2,0-0.3C26.2,53.5,26.1,53.5,26,53.3C26,53.3,26,53.3,26,53.3z"/>
		<path class="st0" d="M45.1,48.3C45,48.3,45,48.3,45.1,48.3c0-0.2,0.1-0.2,0-0.4c0,0,0,0,0-0.1c0-0.1,0-0.1-0.1-0.2
			c-0.1,0-0.2-0.1-0.3-0.1c-0.1,0-0.1,0-0.2,0c-0.1,0-0.2,0-0.3,0.1c-0.1-0.1-0.2-0.1-0.2-0.1c-0.1,0-0.1,0-0.1,0c0,0,0,0-0.1,0
			c-0.1,0-0.2,0.1-0.3,0c0,0-0.1,0-0.1,0c0,0-0.1,0-0.1,0c-0.1,0-0.2,0-0.3,0.1c0,0-0.1,0-0.2,0c0,0-0.1,0-0.1,0c0,0-0.1,0-0.1,0.1
			c0,0-0.1,0-0.1,0c-0.1-0.1-0.2-0.1-0.3,0c-0.1,0-0.1,0-0.2,0c-0.1-0.1-0.1-0.1-0.2,0c-0.1,0-0.1,0.1-0.2,0c-0.2-0.1-0.4,0-0.5,0
			c-0.1,0-0.2,0-0.3,0c-0.1-0.1-0.2-0.1-0.3,0c-0.1,0-0.1,0-0.2,0c-0.1-0.1-0.1-0.1-0.2,0c0,0-0.1,0-0.2,0c-0.1,0-0.3,0.1-0.3,0.2
			c0,0.2,0,0.3,0,0.5c0,0,0,0,0,0c0,0,0,0.1,0,0.1c0,0.1,0,0.1,0,0.2c0,0,0,0.1,0,0.1c-0.1,0.1,0,0.2-0.1,0.3c0,0.1,0,0.1,0.1,0.2
			c0,0,0.1,0.1,0.1,0.2c0,0.1,0,0.3,0,0.4c0,0.1,0,0.3,0,0.4c-0.1,0.1-0.1,0.3,0,0.4c0,0.1,0,0.1,0,0.2c0,0.1,0,0.1,0,0.2
			c0,0.1,0.1,0.2,0.1,0.3c-0.1,0.2,0,0.3,0,0.5c0,0.1,0,0.2,0,0.3c-0.1,0-0.1,0.1-0.1,0.2c0,0.1,0,0.2,0.1,0.4c0,0.1,0,0.2,0,0.2
			c0,0,0,0.1,0,0.1c0,0.1,0,0.3,0,0.4c0,0.1,0,0.1,0,0.2c0,0.2,0,0.3,0.1,0.5c0,0,0,0.1,0,0.1c-0.1,0.1-0.1,0.3-0.1,0.4
			c0,0.1,0.1,0.2,0.2,0.2c0.2,0,0.3,0.1,0.5-0.1c0.1,0,0.1,0.1,0.2,0c0.2,0,0.4,0,0.6,0c0.2,0,0.3-0.2,0.2-0.3c0,0,0-0.1,0-0.1
			c0-0.1,0-0.1,0-0.2c0,0,0-0.1,0-0.1c0-0.1,0-0.1,0-0.2c0,0,0-0.1,0-0.1c0.1,0,0.1-0.1,0.1-0.2c0-0.2,0-0.4,0-0.5
			c0.1-0.1,0.1-0.2,0-0.3c0,0,0,0,0-0.1c-0.1-0.1-0.1-0.2,0-0.4c0,0,0,0,0,0c0,0,0,0,0,0c0,0-0.1-0.1-0.1-0.1c0,0,0-0.1,0-0.1
			c0-0.2,0.1-0.2,0.2-0.2c0.1,0,0.1,0,0.2,0.1c0.1,0.1,0.2,0.1,0.3,0c0,0,0.1,0,0.1-0.1c0.1,0,0.1,0,0.2,0c0.1,0.1,0.1,0.1,0.2,0
			c0.1-0.1,0.3-0.1,0.4,0c0,0,0.1,0,0.1,0c0.1-0.1,0.1,0,0.2,0c0.1,0,0.1,0,0.2,0c0.1,0,0.1,0,0.2,0c0,0,0.1,0,0.1,0
			c0.1,0,0.2-0.1,0.2-0.1c0.1,0,0.1-0.1,0.1-0.2c0,0,0-0.1,0-0.1c0.1-0.1,0-0.2,0-0.3c0.1-0.1,0.1-0.2,0-0.3c0,0,0-0.1,0-0.1
			c0-0.1,0-0.2,0-0.3c0,0,0-0.1-0.1-0.1c0,0-0.1,0-0.1,0c-0.1,0-0.1,0-0.2,0c-0.2,0-0.4,0-0.6,0c-0.1,0-0.2,0-0.3,0.1
			c0,0-0.1,0-0.1-0.1c-0.1,0-0.1,0-0.2,0c-0.1,0.1-0.1,0.1-0.2,0c-0.1-0.1-0.1-0.1-0.2,0c0,0-0.1,0.1-0.1,0.1
			c-0.1-0.1-0.1-0.1-0.3-0.1c-0.1,0-0.1,0-0.2,0c0-0.1-0.1-0.2,0-0.3c0.1-0.1,0.1-0.2,0-0.3c-0.1-0.1,0-0.3,0-0.4c0,0,0,0,0,0
			c0.1-0.1,0.2-0.1,0.3,0c0.1,0.1,0.1,0.1,0.2,0c0,0,0.1-0.1,0.1-0.1c0,0,0.1,0,0.1,0c0.1,0,0.2,0,0.2,0c0.1,0,0.1-0.1,0.2,0
			c0.1,0,0.2,0.1,0.3,0c0,0,0.1,0,0.1,0c0.1,0,0.2,0,0.3,0c0,0,0.1,0,0.1,0c0.1,0,0.2,0,0.3,0c0.1-0.1,0.3-0.2,0.5,0
			c0,0,0.1,0,0.2,0c0,0,0.1,0,0.1-0.1c0,0.1,0.1,0.1,0.2,0.1c0.1,0,0.1,0,0.2,0c0.1,0.1,0.3,0,0.3-0.1c0,0,0-0.1,0.1-0.1
			c0-0.1,0.1-0.1,0-0.2c0,0,0-0.1,0-0.1C45.2,48.5,45.1,48.4,45.1,48.3z"/>
		<path class="st0" d="M6,47.7c-0.1-0.1-0.1-0.1-0.2-0.1c0,0-0.1,0-0.1,0c0,0-0.1,0-0.1,0c0,0-0.1,0-0.1,0c-0.1,0-0.1,0-0.2,0
			c0,0-0.1,0-0.1,0c0,0-0.1-0.1-0.2,0c0,0,0,0-0.1,0c-0.1,0-0.1,0-0.2,0c-0.1,0.1-0.1,0.1-0.2,0c0,0-0.1,0-0.1,0
			c-0.1,0.1-0.1,0.1-0.2,0c-0.1-0.1-0.1-0.1-0.2,0c0,0-0.1,0.1-0.1,0.1c0-0.1-0.1-0.1-0.2-0.1c-0.1,0-0.1,0-0.2,0
			c-0.1,0-0.1,0-0.2,0c0,0-0.1,0.1-0.1,0c-0.1-0.1-0.2-0.1-0.3,0c-0.1,0-0.1,0-0.1,0c-0.1-0.1-0.1-0.1-0.2-0.1c-0.1,0-0.2,0-0.3,0
			c-0.1,0-0.2,0-0.3,0c-0.1,0-0.1,0-0.2,0c0,0-0.1,0-0.2,0c-0.1,0.1-0.2,0-0.2,0c-0.1,0-0.1-0.1-0.2,0c-0.1,0.1-0.1,0-0.2,0
			c-0.1,0-0.1,0-0.2,0c-0.1,0-0.1,0-0.2,0c-0.1-0.1-0.1,0-0.2,0.1c0,0,0,0.1,0,0.1c-0.1,0.1-0.1,0.2,0,0.3c0,0.1-0.1,0.2,0,0.3
			c0,0.1,0,0.1,0,0.2c0,0,0,0,0,0.1c0,0.1,0,0.2-0.1,0.3c0,0.1,0,0.2,0.1,0.2c0.1,0,0.1,0,0.2,0c0,0,0.1,0,0.1,0c0.1,0,0.2,0,0.3,0
			c0,0,0,0,0,0c0.1,0.1,0.1,0.1,0.2,0c0,0,0.1-0.1,0.1-0.1c0.1,0,0.1,0.1,0.2,0.1c0.1,0,0.2,0,0.3,0c0.1,0,0.2-0.1,0.3,0
			c0,0,0,0,0.1,0c0.1,0,0.1-0.1,0.2,0c0.1,0,0.1,0,0.2,0c0,0,0.1,0.1,0,0.1c0,0.1,0,0.1,0,0.2c0,0.2,0,0.3,0,0.4c0,0.1,0,0.2,0,0.3
			c0,0.1,0,0.1,0,0.2c0,0.1,0,0.1,0,0.2c0,0.1,0,0.2,0,0.2c0,0.1,0,0.1,0,0.2c0,0,0,0.1,0.1,0.1c-0.1,0.1-0.1,0.2-0.1,0.3
			c0,0,0,0.1,0,0.1c0,0.1,0,0.1,0,0.2c0,0.1,0,0.1,0,0.2c-0.1,0.1-0.1,0.2-0.1,0.3c0,0.2,0.1,0.4,0,0.6c0,0,0,0.1,0,0.1
			c0.1,0.2,0.1,0.3,0,0.5c0,0,0,0.1,0,0.1c0.1,0.1,0,0.3,0,0.4c-0.1,0.1,0,0.2,0,0.3c0,0.1,0,0.1,0,0.2c0,0,0,0.1,0,0.1
			c0,0.1,0,0.1,0,0.2c0,0.1,0,0.1,0.1,0.1c0,0,0,0,0.1,0.1c0,0,0.1,0.1,0.1,0c0.2,0,0.3,0,0.5-0.1c0.1,0,0.3,0,0.4,0
			c0,0,0.1,0,0.1,0c0,0,0.1,0,0.1,0c0.1,0,0.3-0.1,0.2-0.3c0,0,0,0,0,0c0-0.2,0-0.3,0-0.5c0-0.1,0-0.2,0-0.3c0,0,0-0.1,0-0.2
			c0-0.1,0-0.2,0-0.2c0-0.1,0-0.2,0-0.3c0,0,0-0.1,0-0.1c0.1-0.1,0.1-0.2,0-0.3c0-0.1,0-0.2,0-0.3c0-0.1,0-0.2,0-0.3
			c0-0.1,0-0.1,0-0.2c0-0.1,0-0.2,0-0.4c0-0.1,0-0.2,0-0.3c0.1-0.1,0.1-0.2,0-0.3c0,0-0.1-0.1-0.1-0.1c0,0,0-0.1,0-0.1
			c0.1-0.1,0.1-0.2,0-0.3c0-0.1,0-0.2,0-0.3c0,0,0,0,0-0.1c0-0.1,0-0.2,0-0.3c0,0,0-0.1,0-0.1c0-0.1,0-0.1-0.1-0.2
			c0.1,0,0.1-0.1,0.1-0.1c0.1,0,0.2,0,0.3,0c0,0,0.1,0,0.1,0c0.1,0.1,0.1,0,0.2,0c0.1-0.1,0.2-0.1,0.3,0c0.1,0.1,0.1,0,0.2,0
			c0,0,0.1,0,0.2,0c0.1,0,0.1,0,0.2,0c0.1-0.1,0.1-0.1,0.1,0c0,0,0.1,0,0.1,0c0.1-0.1,0.1,0,0.2,0c0.1,0,0.2,0,0.2-0.1
			c0-0.1,0-0.2,0.1-0.3c0,0,0-0.1,0-0.1c0,0-0.1-0.1-0.1-0.1c0.1-0.1,0.1-0.2,0.1-0.3c0,0,0-0.1,0-0.1C6.1,47.9,6.1,47.8,6,47.7z"/>
		<path class="st0" d="M53.9,23c0.1,0,0.2-0.1,0.3,0c0.1,0,0.2,0,0.3-0.1c0.1-0.1,0.3-0.1,0.4-0.1c0,0,0.1,0,0.1,0
			c0.2-0.1,0.4-0.3,0.6-0.3c0,0,0.1,0,0.1-0.1c0.1-0.1,0.2-0.1,0.4-0.2c0.1-0.1,0.2-0.1,0.3-0.2c0.1-0.1,0.2-0.2,0.3-0.3
			c0.2-0.1,0.4-0.3,0.6-0.4c0,0,0,0,0.1,0c0.2,0,0.2-0.1,0.3-0.3c0-0.1,0.1-0.1,0.1-0.2c0.1-0.1,0.2-0.2,0.3-0.3
			c0,0,0.1-0.1,0.1-0.1c0.2,0,0.3-0.1,0.4-0.3c0.1-0.1,0.2-0.3,0.4-0.3c0.1,0,0.2-0.1,0.3-0.2c0-0.1,0.1-0.2,0.1-0.3
			c0-0.1,0.1-0.2,0.2-0.2c0.2-0.1,0.3-0.2,0.3-0.4c0-0.1,0.1-0.3,0.3-0.4c0,0,0.1-0.1,0.1-0.1c0-0.2,0.2-0.4,0.3-0.6
			c0.1-0.1,0.2-0.2,0.2-0.3c0-0.1,0.1-0.2,0.2-0.3c0,0,0.1-0.1,0.1-0.1c0.1-0.2,0.1-0.3,0.2-0.5c0.1-0.3,0.2-0.5,0.4-0.8
			c0.1-0.1,0.2-0.3,0.1-0.5c0-0.1,0-0.2,0.1-0.3c0.1-0.1,0.3-0.2,0.2-0.4c0,0,0-0.1,0-0.1c0-0.1,0.1-0.2,0.1-0.3
			c0-0.1,0-0.1,0.1-0.2c0.2-0.2,0.2-0.3,0.1-0.5c0-0.1,0-0.1,0-0.2c0.1-0.1,0.1-0.3,0.1-0.4c0,0,0-0.1,0-0.1c0-0.1,0-0.2,0-0.2
			c0-0.1,0-0.2,0-0.3c0-0.1,0-0.2,0-0.3c0-0.1,0-0.2,0-0.3c0-0.1,0-0.2,0-0.3c0-0.2,0-0.3,0.1-0.4c0.1-0.1,0.1-0.2,0-0.2
			c-0.1-0.1-0.1-0.2-0.1-0.3c0-0.1,0-0.2-0.1-0.3c-0.1-0.2-0.1-0.3-0.1-0.5c0-0.1,0-0.2-0.1-0.4c0-0.1-0.1-0.2-0.1-0.3
			c0-0.1,0-0.2-0.1-0.3c0-0.1-0.1-0.1-0.1-0.2c0-0.2-0.1-0.3-0.1-0.5c0-0.1-0.1-0.1-0.1-0.2c0-0.2-0.2-0.4-0.2-0.7
			c0-0.1-0.1-0.2-0.1-0.3c-0.1-0.1-0.2-0.2-0.2-0.4c0-0.1-0.1-0.2-0.1-0.3c-0.1-0.1-0.2-0.2-0.3-0.3c0,0-0.1-0.1-0.1-0.1
			c0-0.2-0.1-0.3-0.3-0.4c-0.2-0.1-0.3-0.2-0.3-0.4c0-0.1-0.1-0.2-0.2-0.2c-0.1,0-0.2-0.1-0.3-0.2c0-0.1-0.1-0.1-0.2-0.2
			c-0.1,0-0.1-0.1-0.2-0.2c-0.1-0.1-0.1-0.2-0.2-0.3c-0.1-0.1-0.2-0.3-0.3-0.3c-0.1,0-0.2-0.1-0.2-0.2C58.9,3.1,58.8,3,58.6,3
			c-0.1,0-0.2,0-0.2-0.2c0,0-0.1-0.1-0.1-0.1c-0.1-0.1-0.3-0.2-0.3-0.3c0-0.1-0.1-0.1-0.1-0.1c0,0-0.1,0-0.1,0c-0.2,0-0.2,0-0.2-0.1
			c0-0.1-0.1-0.1-0.1-0.1c-0.3-0.1-0.5-0.3-0.8-0.4c-0.1,0-0.2-0.1-0.2-0.1c-0.1-0.2-0.3-0.2-0.5-0.2c-0.1,0-0.2-0.1-0.3-0.2
			c-0.1-0.1-0.1-0.2-0.3-0.1c0,0-0.1,0-0.1,0c-0.1,0-0.2,0-0.3-0.1c-0.1-0.1-0.2-0.2-0.4-0.2c-0.1,0-0.2,0-0.2-0.1
			c-0.1-0.1-0.2-0.2-0.3-0.1c-0.2,0-0.4,0-0.5-0.1c-0.1-0.1-0.2-0.1-0.3-0.1c-0.1,0-0.2,0-0.3,0c-0.1,0-0.2,0-0.3,0
			c-0.1,0-0.1,0-0.2,0c-0.2-0.1-0.4-0.1-0.6,0c-0.2,0-0.5,0.1-0.7-0.1c0,0-0.1,0-0.1,0c-0.1,0-0.3,0-0.4,0c0,0-0.1,0-0.1,0
			c-0.1-0.1-0.2,0-0.3,0c-0.2,0.1-0.3,0.1-0.5,0.1c-0.1,0-0.2,0-0.3,0c-0.2,0.1-0.4,0.1-0.5,0.1c-0.1,0-0.1,0-0.2,0
			c-0.1,0.1-0.2,0.1-0.3,0.1c-0.1,0-0.3,0-0.4,0c-0.1,0-0.1,0-0.2,0c-0.1,0-0.2,0.1-0.2,0.1c0,0-0.1,0-0.1,0
			c-0.1,0.1-0.2,0.1-0.3,0.1c-0.1,0-0.2,0.1-0.4,0.2c-0.2,0.1-0.3,0.2-0.5,0.2c-0.1,0-0.2,0-0.2,0.1c-0.1,0.2-0.3,0.3-0.5,0.4
			c-0.1,0-0.2,0.1-0.3,0.2c0,0-0.1,0-0.1,0.1c-0.1,0.2-0.3,0.2-0.5,0.3c-0.1,0-0.2,0-0.2,0.1c0,0-0.1,0.1-0.1,0.1
			c-0.1,0-0.1,0.1-0.2,0.1c-0.2,0.2-0.4,0.4-0.6,0.5c-0.1,0-0.1,0.1-0.2,0.1c-0.1,0.1-0.1,0.2-0.2,0.3c-0.1,0.1-0.3,0.2-0.4,0.4
			c-0.1,0.1-0.2,0.2-0.3,0.3C42.1,4.1,42,4.2,42,4.4c0,0.2-0.1,0.2-0.3,0.2c-0.1,0-0.2,0.1-0.3,0.2c0,0.1,0,0.1-0.1,0.2
			c-0.1,0.2-0.1,0.3-0.3,0.4C41,5.5,41,5.6,41,5.7c0,0.3-0.1,0.5-0.3,0.7c-0.1,0.1-0.2,0.1-0.2,0.3c0,0.1-0.1,0.3-0.2,0.3
			c-0.1,0-0.1,0.1-0.1,0.2c0,0.1,0,0.1,0,0.2c0,0.1-0.1,0.1-0.1,0.2c0,0.1-0.1,0.2-0.1,0.4c0,0,0,0.1,0,0.1c-0.1,0.3-0.2,0.6-0.4,1
			c-0.1,0.1-0.1,0.2-0.1,0.4c0,0.1,0,0.2,0,0.2c-0.1,0.2-0.1,0.4-0.1,0.6c0,0.1,0,0.2,0,0.3c-0.1,0.1-0.1,0.3-0.1,0.4
			c0,0.1,0,0.2-0.1,0.3c0,0.1,0,0.2,0,0.2c0,0.1,0.1,0.1,0.1,0.2c0,0.1,0,0.2,0.1,0.3c0,0.1,0,0.1,0,0.2c0,0.2,0.1,0.5,0.1,0.7
			c0,0,0,0,0,0c0.1,0.2,0.1,0.4,0.1,0.6c0,0.2,0,0.4,0.1,0.6c0.1,0.1,0.1,0.2,0,0.3c0,0,0,0.1,0,0.1c0,0.2,0,0.4,0.2,0.5
			c0.1,0.2,0.2,0.4,0.1,0.6c0,0.2,0,0.3,0.1,0.5c0.1,0.2,0.3,0.4,0.3,0.7c0,0,0,0,0,0c0.1,0.2,0.1,0.3,0.2,0.5c0,0,0,0.1,0,0.1
			c0.2,0.1,0.2,0.3,0.3,0.5c0.1,0.2,0.2,0.3,0.2,0.4c0,0.1,0.1,0.1,0.1,0.2c0,0.1,0.1,0.1,0.2,0.2c0.1,0,0.1,0,0.2,0.1
			c0.1,0,0.2,0.1,0.2,0.2c0,0.1,0,0.1,0.1,0.2c0.1,0.1,0.2,0.2,0.2,0.3c0.1,0.2,0.2,0.3,0.4,0.4c0.1,0,0.1,0.1,0.2,0.2
			c0.1,0.3,0.5,0.5,0.7,0.7c0,0,0,0,0,0c0.1,0.1,0.3,0.2,0.4,0.3c0.1,0.1,0.1,0.1,0.2,0.2c0,0,0.1,0,0.1,0.1c0,0,0,0,0,0
			c-0.1,0-0.2,0.1-0.2,0.2c-0.1,0.1-0.2,0.2-0.2,0.3c-0.2,0.4-0.5,0.6-0.8,0.8c-0.1,0.1-0.2,0.2-0.3,0.4c0,0,0,0.1-0.1,0.1
			c0,0.1-0.1,0.1-0.2,0.1c-0.2,0-0.3,0.1-0.4,0.2c-0.1,0.2-0.2,0.4-0.4,0.6c-0.2,0.2-0.3,0.3-0.6,0.4c-0.1,0-0.2,0.1-0.2,0.1
			c-0.2,0.1-0.4,0.3-0.6,0.4c-0.1,0-0.2,0.1-0.3,0.1c-0.2,0-0.3,0.1-0.4,0.2c0,0-0.1,0.1-0.1,0.1c-0.1,0.1-0.3,0.2-0.5,0.2
			c-0.1,0-0.2,0-0.2,0.1c-0.1,0.1-0.2,0.2-0.3,0.2c-0.2,0-0.4,0-0.6,0.2c0,0-0.1,0.1-0.2,0.1c-0.1,0-0.2,0.1-0.3,0.1
			c-0.1,0-0.1,0.1-0.1,0.1c-0.1,0.1-0.2,0.2-0.2,0.3c0,0-0.1,0-0.1,0.1c-0.1,0-0.1,0.1-0.2,0.1c-0.1,0.1-0.3,0.1-0.4,0.2
			c-0.1,0.1-0.2,0.1-0.4,0.2c-0.1,0-0.1,0.1-0.2,0.1c-0.1,0-0.2,0.1-0.3,0.1c-0.1,0-0.2,0.1-0.3,0.2c-0.2,0.1-0.5,0.2-0.7,0.3
			c-0.1,0-0.2,0.1-0.3,0c-0.1,0-0.2,0-0.2,0.1c0,0-0.1,0-0.1,0c-0.2,0-0.2,0-0.2,0.2c0,0.1,0,0.2,0,0.3c-0.1,0.2-0.1,0.5,0,0.7
			c0,0.1-0.1,0.2-0.1,0.3c0,0.1,0,0.2,0,0.3c-0.1,0.1-0.1,0.2-0.1,0.4c0,0.1,0,0.1,0,0.2c0,0.1,0,0.1,0,0.2c0,0.2,0,0.4,0,0.6
			c0,0,0,0.1,0,0.1c0.1,0.1,0.3,0.1,0.4,0.1c0.1-0.1,0.2-0.1,0.3-0.1c0.1,0,0.1,0,0.2-0.1c0.1-0.1,0.3-0.2,0.4-0.2c0,0,0.1,0,0.1,0
			c0.1,0,0.1,0,0.2,0c0.1,0,0.2,0,0.3-0.1c0,0,0.1,0,0.1-0.1c0.2-0.1,0.4-0.1,0.6-0.2c0.1,0,0.1,0,0.2-0.1c0.1,0,0.2-0.1,0.3-0.1
			c0.2,0,0.3,0,0.5-0.1c0.1-0.1,0.2-0.1,0.2-0.2c0.1-0.1,0.1-0.1,0.2-0.1c0.2,0,0.3,0,0.4-0.2c0.2-0.2,0.4-0.4,0.7-0.4
			c0.2,0,0.3-0.1,0.4-0.2c0.1-0.1,0.2-0.2,0.4-0.2c0.1,0,0.1,0,0.2-0.1c0.2-0.2,0.4-0.3,0.7-0.4c0.1,0,0.2-0.1,0.3-0.2
			c0,0,0.1-0.1,0.1-0.1c0.2,0,0.4-0.2,0.5-0.3c0.1-0.1,0.2-0.2,0.4-0.2c0.1,0,0.1,0,0.2-0.1c0.1,0,0.1-0.1,0.2-0.2
			c0.1-0.1,0.2-0.2,0.3-0.2c0.1,0,0.1,0,0.2-0.1c0.1-0.2,0.3-0.3,0.5-0.4c0.1,0,0.2-0.1,0.2-0.2c0.1-0.1,0.2-0.2,0.4-0.2
			c0.1,0,0.2-0.1,0.3-0.2c0.1-0.2,0.2-0.3,0.4-0.5c0.1-0.1,0.1-0.1,0.2-0.1c0.1,0,0.2,0,0.3-0.1c0.1-0.1,0.1-0.2,0.2-0.2
			c0.1-0.1,0.1-0.1,0.2-0.2c0,0,0.1-0.1,0.1-0.1c0.1-0.1,0.1-0.1,0.2-0.2c0.2-0.2,0.4-0.3,0.5-0.5c0,0,0.1-0.1,0.1-0.1
			c0.1-0.1,0.2-0.1,0.3-0.3c0-0.2,0.1-0.2,0.3-0.2c0.1,0,0.1,0,0.1-0.1c0,0,0-0.1,0-0.1c0.1-0.2,0.2-0.3,0.3-0.4c0,0,0,0,0.1,0
			c0.2,0.1,0.4,0.1,0.6,0.1c0.1,0,0.2,0,0.2,0c0.2,0.1,0.4,0.1,0.6,0.2c0,0,0.1,0,0.1,0c0.3,0,0.5,0,0.7,0.2c0,0,0.1,0,0.1,0
			c0.1,0,0.3,0,0.4,0c0.3,0,0.6,0.1,0.9,0.1c0.1,0,0.2,0,0.3,0c0.1,0,0.1,0,0.2,0c0.1,0,0.3,0,0.4,0c0,0,0.1,0,0.1,0
			c0.1,0,0.2,0,0.3,0c0.2,0.1,0.4,0.1,0.5-0.1c0.1,0,0.2-0.1,0.3,0c0.2,0,0.3,0,0.5,0c0.1,0,0.3-0.1,0.4-0.1
			C53.7,23.1,53.8,23.1,53.9,23z M53.4,3.6c0.1,0,0.3,0.1,0.4,0.1c0.1,0.1,0.1,0.1,0.2,0.1c0.1,0,0.3,0,0.4,0.1c0,0,0.1,0.1,0.1,0.1
			c0.1,0.1,0.2,0.1,0.3,0.1c0.1,0,0.2,0,0.3,0.2c0.1,0.1,0.2,0.2,0.4,0.3c0.2,0,0.3,0.1,0.4,0.3C55.9,4.9,56,5,56.1,5
			c0.1,0,0.2,0,0.2,0.1c0.1,0.1,0.3,0.2,0.5,0.3c0,0,0,0,0,0c0.2,0.2,0.4,0.3,0.5,0.5C57.4,5.9,57.5,6,57.6,6
			c0.1,0.1,0.2,0.1,0.2,0.3c0,0.1,0,0.2,0.1,0.3c0.1,0.1,0.2,0.2,0.3,0.3c0.1,0,0.1,0.1,0.1,0.1c0,0.1,0.1,0.2,0.1,0.3
			c0,0.1,0.1,0.2,0.2,0.3c0.1,0.1,0.2,0.2,0.3,0.3c0,0,0,0,0,0.1c0,0.1,0.1,0.1,0.1,0.2c0,0.1,0.1,0.1,0.1,0.2c0,0.1,0,0.2,0.1,0.3
			c0,0,0,0,0,0.1c0,0.2,0.1,0.3,0.2,0.4c0,0,0,0.1,0,0.1c0,0.1,0,0.2,0,0.4c-0.1,0-0.1,0-0.2,0c-0.2,0-0.3,0-0.5-0.1
			c0,0-0.1,0-0.1,0c0,0-0.1,0.1-0.1,0.1c-0.1,0.1-0.1,0.1-0.2,0.1c-0.1,0-0.1,0-0.2,0c-0.1,0.1-0.3,0.1-0.4,0c-0.2,0-0.3,0-0.5-0.1
			c-0.2-0.1-0.4,0-0.6,0c-0.1,0-0.2,0-0.2,0c-0.1-0.1-0.2-0.1-0.3,0c-0.1,0.2-0.3,0.1-0.5,0c0,0-0.1,0-0.2,0c-0.2,0.1-0.4,0.1-0.6,0
			c0,0-0.1,0-0.1,0c-0.2,0-0.3,0-0.5,0c-0.1,0-0.1,0-0.2-0.1c-0.1-0.1-0.2,0-0.3,0c0,0-0.1,0.1-0.2,0.1c0,0,0-0.1-0.1-0.1
			c-0.1-0.2-0.2-0.2-0.3-0.1c0,0,0,0-0.1,0.1c-0.1,0.1-0.2,0.1-0.3,0c-0.1-0.1-0.1-0.1-0.2,0c0-0.1,0-0.1,0.1-0.2
			c0.1-0.1,0.1-0.2,0.1-0.3c0-0.1,0-0.2,0-0.3c0-0.1,0-0.2,0-0.2c0,0,0-0.1,0-0.1c-0.1-0.1-0.1-0.3-0.1-0.4c0-0.1,0-0.2,0.1-0.2
			c0.1-0.1,0.1-0.1,0.1-0.2c0-0.1,0-0.2,0-0.3c0-0.2-0.1-0.4,0.1-0.5c0.1-0.1,0.1-0.3,0-0.4c-0.1-0.1-0.1-0.2,0-0.4
			c0.1-0.1,0.1-0.2,0.1-0.3c0-0.1-0.1-0.2,0-0.3c0.1-0.1,0-0.2,0-0.3C53,4.9,53,4.8,53,4.6c0.1-0.2,0-0.4,0-0.6c0,0,0-0.1,0-0.2
			c0-0.1,0-0.2,0-0.3c0-0.1-0.1-0.1-0.1-0.2C53.1,3.5,53.2,3.6,53.4,3.6z M42.9,9.4c0-0.1,0-0.1,0.1-0.2c0.1-0.1,0.2-0.2,0.1-0.4
			c0,0,0-0.1,0-0.1c0-0.1,0.1-0.1,0.1-0.2c0.2-0.2,0.3-0.5,0.4-0.7c0-0.1,0.1-0.2,0.1-0.2c0.1-0.1,0.2-0.3,0.3-0.4
			c0.1-0.2,0.2-0.5,0.5-0.6c0.1-0.1,0.2-0.2,0.2-0.3c0-0.1,0-0.2,0.1-0.4c0.2-0.1,0.5-0.2,0.6-0.5c0,0,0.1-0.1,0.1-0.1
			c0.1,0,0.2-0.1,0.2-0.2c0-0.1,0.1-0.2,0.3-0.2c0.1,0,0.1-0.1,0.2-0.1c0.1-0.1,0.2-0.2,0.4-0.3c0.1,0,0.1-0.1,0.2-0.1
			c0.1-0.1,0.2-0.1,0.3-0.1c0.2,0,0.2,0,0.3-0.2c0-0.1,0.1-0.2,0.2-0.2c0.1,0,0.1,0,0.2,0c0.1,0,0.2,0,0.3,0c0.1,0,0.2-0.1,0.2-0.1
			c0.1-0.1,0.2-0.1,0.3,0c0.1,0.1,0.2,0,0.3-0.1c0.1-0.1,0.2-0.1,0.3-0.1c0.2,0,0.3,0,0.5-0.1c0.1-0.1,0.1-0.1,0.2,0c0,0,0,0,0.1,0
			c-0.1,0.1-0.1,0.2-0.1,0.3c0,0.2,0,0.3,0.1,0.4c0.1,0.3,0.1,0.5,0,0.8c0,0.1-0.1,0.2,0,0.3c0,0.1,0.1,0.3,0,0.4
			c-0.1,0.1-0.1,0.2-0.1,0.4c0,0.2,0,0.3,0.1,0.5c0,0.1,0,0.1,0,0.2c-0.1,0.1-0.1,0.3-0.1,0.4c0.1,0.2,0.1,0.4,0,0.6
			c0,0.1,0,0.1,0,0.2c0,0.1,0,0.3,0,0.4c0,0.1,0,0.2-0.1,0.2c0,0-0.1,0.1-0.1,0.1c0,0.1,0,0.2,0,0.3c0,0.1,0,0.3,0,0.4
			c0,0.1,0,0.2-0.1,0.3c-0.1,0.1-0.1,0.2-0.1,0.3c0,0,0,0.1,0,0.1c-0.1,0-0.2,0-0.4,0c-0.1,0-0.3,0-0.4,0c-0.1,0-0.2,0-0.2,0
			c-0.1,0-0.2,0-0.3,0c-0.1,0-0.2,0-0.3,0.1c-0.1,0.1-0.2,0.1-0.3,0c-0.1-0.1-0.2-0.1-0.3-0.1c-0.2,0-0.4,0.1-0.6,0
			c-0.1,0-0.2,0-0.3,0c-0.1,0.1-0.2,0.1-0.3,0c-0.1,0-0.1,0-0.2,0c-0.1,0.1-0.2,0.1-0.3,0c-0.2-0.1-0.3,0-0.5,0c0,0-0.1,0-0.1,0
			c-0.1,0-0.2,0-0.4-0.1c-0.1-0.1-0.3-0.1-0.4-0.1c-0.2,0-0.3,0.1-0.5,0.1c-0.1,0-0.2,0-0.3,0c-0.2,0-0.3-0.1-0.5-0.1
			c0,0-0.1,0-0.1,0c0,0-0.1,0-0.1,0c0,0,0,0,0,0C42.9,9.6,42.9,9.5,42.9,9.4z M43.8,16c0-0.1-0.1-0.2-0.2-0.2
			c-0.1,0-0.2-0.1-0.1-0.2c0.1-0.1,0-0.3-0.1-0.4c0-0.1-0.1-0.2-0.1-0.2c0-0.1-0.1-0.1-0.1-0.2c-0.1-0.1-0.1-0.1-0.1-0.2
			c0-0.1,0-0.1-0.1-0.1c-0.1-0.1-0.2-0.2-0.2-0.3c0-0.1,0-0.2,0-0.3c0.1-0.1,0.1-0.1,0-0.2c-0.1-0.1-0.1-0.2-0.1-0.4
			c0-0.1,0-0.2,0-0.3c0.1,0,0.3,0,0.4,0.1c0.1,0.1,0.1,0,0.2,0c0.1-0.1,0.1-0.1,0.3,0c0.1,0.1,0.1,0.1,0.2,0
			c0.1-0.1,0.3-0.1,0.4-0.1c0.1,0,0.2,0,0.3-0.1c0,0,0.1-0.1,0.2-0.1c0.2,0,0.3,0,0.5,0c0.3,0,0.6,0,0.8,0.1c0.2,0,0.4,0.1,0.7,0
			c0.1,0,0.2,0,0.4,0c0.1,0,0.3,0.1,0.4,0c0.1,0,0.1,0,0.2,0.1c0.1,0.1,0.1,0.1,0.3,0c0.1-0.1,0.3-0.1,0.5-0.1c0.1,0,0.2,0,0.2,0
			c0,0,0,0-0.1,0.1c-0.1,0.1-0.1,0.2-0.1,0.3c0,0.1,0,0.1,0,0.2c-0.1,0.2-0.1,0.5-0.2,0.7c0,0.1,0,0.2-0.1,0.2
			c-0.1,0.1-0.2,0.2-0.3,0.4c-0.1,0.1-0.1,0.2-0.2,0.2c-0.1,0.1-0.2,0.2-0.2,0.4c0,0.1,0,0.2,0,0.3c-0.1,0.3-0.2,0.6-0.4,0.9
			c-0.2,0.1-0.2,0.3-0.2,0.5c0,0,0,0.1,0,0.1c0,0.1,0,0.1-0.1,0.2c-0.1,0.1-0.1,0.2-0.2,0.3c0,0.1-0.1,0.2-0.2,0.2
			c-0.1,0-0.2,0.1-0.2,0.2c0,0.1,0,0.1-0.1,0.2c0,0,0,0.1-0.1,0.1c0,0-0.1,0-0.1-0.1c-0.2-0.1-0.4-0.2-0.5-0.4c0,0-0.1-0.1-0.1-0.1
			c0-0.2-0.1-0.3-0.3-0.4c-0.1-0.1-0.2-0.2-0.2-0.3c0,0,0-0.1-0.1-0.1c-0.1-0.1-0.2-0.2-0.2-0.3c0-0.1-0.1-0.1-0.1-0.1
			c-0.2-0.1-0.2-0.3-0.3-0.4c0-0.1-0.1-0.2-0.1-0.2C43.8,16.1,43.8,16,43.8,16z M53.2,19.9c-0.3,0-0.5,0-0.8,0.1c-0.1,0-0.1,0-0.2,0
			c-0.1,0-0.2,0-0.3,0c-0.1-0.1-0.1-0.1-0.2,0c-0.1,0.1-0.3,0.2-0.5,0.2c-0.1,0-0.3,0-0.4,0c-0.1,0-0.1,0-0.2,0.1
			c-0.2,0.1-0.3,0.1-0.5,0.1c-0.2-0.1-0.4-0.1-0.6-0.1c0,0-0.1,0-0.1,0c-0.1,0-0.2,0-0.3-0.1c-0.1,0-0.2,0-0.3-0.1
			c0-0.1,0.1-0.2,0.1-0.3c0.1-0.2,0.2-0.4,0.3-0.5c0,0,0,0,0,0c0.2-0.1,0.3-0.3,0.3-0.5c0-0.1,0.1-0.2,0.2-0.3
			c0.2,0,0.2-0.1,0.2-0.3c0-0.1,0.1-0.3,0.1-0.4c0-0.1,0-0.1,0.1-0.1c0.2,0,0.3-0.1,0.3-0.2c0-0.1,0.1-0.3,0.1-0.4
			c0-0.1,0.1-0.2,0.2-0.2c0.1,0,0.1-0.1,0.1-0.2c0-0.2,0-0.3,0.2-0.4c0,0,0-0.1,0.1-0.1c0-0.1,0-0.2,0-0.3c0-0.1,0-0.2,0.1-0.2
			c0.1,0,0.1-0.1,0.1-0.1c0-0.1,0.1-0.3,0.1-0.4c0-0.1,0-0.2,0.2-0.3c0.1,0,0.1-0.1,0.1-0.2c0-0.1,0-0.2,0.1-0.3
			c0.1-0.1,0.1-0.1,0.1-0.2c-0.1-0.2,0-0.4,0.1-0.6c0-0.1,0.1-0.2,0.1-0.3c0,0,0.1,0,0.1,0c0.1,0,0.2-0.1,0.3-0.1c0.1,0,0.2,0,0.3,0
			c0.2,0,0.4,0,0.5,0c0.1,0,0.3,0,0.4,0c0,0,0.1,0,0.2,0c0.1,0,0.2-0.1,0.3-0.1c0.1,0,0.3-0.1,0.4,0c0.2,0.1,0.3,0.1,0.5,0
			c0.1,0,0.2,0,0.3,0.1c0.1,0,0.1,0,0.2,0C55.6,13,55.8,13,56,13c0.1,0,0.2,0,0.3-0.1c0.2-0.1,0.3-0.2,0.5-0.1c0,0,0.1,0,0.1,0
			c0.2,0,0.4,0,0.6,0.2c0.1,0.1,0.2,0.1,0.3,0c0,0,0.1,0,0.1,0c0.1,0,0.2,0,0.3,0c0.1,0,0.2,0,0.2,0c0.1,0,0.2,0,0.4,0
			c0.1,0,0.3,0,0.4,0c0,0.1,0,0.1,0,0.2c0,0,0,0.1,0,0.1c0,0.1,0,0.2,0.1,0.3c0,0,0,0,0,0c-0.2,0.1-0.3,0.4-0.3,0.6
			c0,0.1,0,0.3-0.1,0.4c-0.1,0.1-0.1,0.3-0.1,0.5c0,0.1,0,0.2-0.2,0.2c-0.1,0.1-0.2,0.2-0.2,0.3c0,0.1,0,0.2-0.1,0.2
			c-0.1,0.1-0.2,0.1-0.3,0.2c0,0-0.1,0.1-0.1,0.2c0,0.1-0.1,0.2-0.2,0.2c-0.1,0-0.1,0.1-0.2,0.2c0,0,0,0.1-0.1,0.1
			c0,0-0.1,0.1-0.1,0.1c0,0.1-0.1,0.2-0.2,0.3c-0.1,0-0.1,0.1-0.1,0.2c0,0.1-0.1,0.2-0.2,0.2c-0.1,0-0.1,0.1-0.1,0.1
			c0,0.1-0.1,0.1-0.2,0.1c-0.1,0-0.1,0.1-0.2,0.1c0,0-0.1,0.1-0.1,0.1c-0.1,0.1-0.2,0.1-0.2,0.2c-0.1,0.1-0.2,0.1-0.2,0.2
			c-0.1,0-0.2,0.1-0.2,0.2c0,0.1,0,0.1-0.2,0.1c-0.2,0-0.4,0.1-0.6,0.2c0,0-0.1,0-0.1,0.1c-0.2,0-0.4,0.2-0.6,0.3
			c-0.1,0.1-0.2,0.1-0.4,0.2C53.7,19.7,53.5,19.7,53.2,19.9C53.2,19.9,53.2,19.9,53.2,19.9z"/>
		<path class="st0" d="M57.1,28c-0.1-0.1-0.1-0.3,0-0.4c0-0.1,0-0.1,0-0.2c0-0.1-0.1-0.2-0.1-0.3c0-0.1-0.1-0.2-0.2-0.1
			c-0.1,0-0.1,0-0.2,0c-0.2-0.1-0.4-0.1-0.7-0.1c-0.1,0-0.3,0-0.4,0c-0.1,0-0.3,0-0.4,0c-0.1,0-0.3-0.1-0.4,0c0,0,0,0,0,0
			c-0.1,0-0.1,0-0.2,0c-0.1,0-0.1,0-0.2,0c-0.1,0-0.2,0-0.2,0.1c-0.1,0.1-0.1,0.3-0.1,0.5c0,0,0,0.1,0,0.1c-0.1,0.1-0.1,0.2-0.1,0.3
			c0,0.1,0,0.2,0,0.2c-0.1,0.1-0.1,0.2,0,0.4c0,0.1,0,0.1,0,0.2c-0.1,0.1-0.1,0.2,0,0.3c0,0.1,0,0.1,0,0.2c-0.1,0.1-0.1,0.2,0,0.3
			c0,0.1,0,0.2,0,0.3c-0.1,0.1-0.1,0.2,0,0.3c0.1,0.1,0.1,0.2,0,0.3c0,0.1,0,0.2,0,0.3c0,0.2,0,0.3-0.1,0.5c0,0.1,0,0.2,0,0.3
			c0.1,0.2,0.1,0.4,0.1,0.6c0,0.2,0,0.5,0,0.7c0,0.1,0,0.1-0.1,0.2c-0.1,0.1-0.2,0.1-0.1,0.2c0,0.1,0.1,0.2,0.1,0.3
			c0,0.1,0.1,0.1,0.1,0.2c0,0.2-0.1,0.4-0.1,0.5c0,0.2,0,0.4-0.1,0.5c0,0.2-0.1,0.4,0,0.6c0,0.1,0,0.2-0.1,0.2
			c-0.1,0.1-0.1,0.1-0.1,0.2c0,0.1,0,0.1,0,0.2c0,0.1,0,0.2,0,0.3c0,0.1-0.1,0.1,0,0.2c0.1,0.1,0.1,0.2,0.1,0.3c0,0.1,0,0.2,0,0.2
			c0.1,0.2,0.1,0.4,0,0.6c0,0.1,0,0.2,0,0.2c0,0.1,0,0.2,0.1,0.3c0,0.1,0,0.2-0.1,0.3c-0.1,0.1-0.1,0.2,0,0.3
			c0.1,0.2,0.2,0.4,0.2,0.6c0,0.1,0,0.2-0.1,0.3c-0.1,0.1-0.1,0.2-0.1,0.3c0,0.1,0,0.1,0,0.2c0,0.1,0,0.2,0,0.4c0,0.1,0,0.1,0,0.2
			c0.1,0.1,0.1,0.3,0.2,0.4c0,0-0.1,0-0.1,0.1c-0.1,0.1-0.2,0.2,0,0.4c0,0,0,0,0.1,0.1c0,0,0,0.1,0,0.1c0,0.1,0,0.2,0,0.3
			c0,0.1,0,0.1,0,0.2c0,0.1-0.1,0.2-0.1,0.3c0,0.2,0.1,0.3,0,0.5c0,0.1,0,0.2-0.1,0.2c0,0.1-0.1,0.2,0,0.3c0,0.1,0,0.2,0,0.4
			c0,0,0,0.1,0,0.1c0.2,0.3,0.2,0.6,0.3,0.9c0,0.1,0,0.1,0,0.2c-0.2,0.2-0.2,0.3-0.1,0.5c0,0.1,0,0.2,0.1,0.3c0.1,0.2,0.1,0.3,0,0.5
			c0,0.2-0.1,0.4,0,0.5c0,0.1,0.1,0.2,0.1,0.2c0,0,0,0.1,0,0.1c-0.1,0.1-0.1,0.3-0.1,0.4c-0.1,0.3-0.1,0.5,0,0.8
			c0.1,0.2,0.1,0.2,0.3,0.2c0.3-0.1,0.6-0.1,0.9,0c0,0,0,0,0.1,0c0.2,0.1,0.4,0.2,0.6,0.1c0,0,0.1,0,0.1,0c0.1,0.1,0.2,0,0.2,0
			c0.2-0.1,0.3,0,0.5,0c0,0,0.1,0,0.1,0c0.1,0,0.1,0,0.2-0.1c0.1,0,0.2-0.1,0.1-0.2c0-0.1,0-0.1,0-0.2c0,0,0-0.1,0-0.1
			c0-0.1-0.1-0.3-0.1-0.4c0-0.1,0-0.1,0.1-0.2c0.1-0.1,0.1-0.1,0-0.3c-0.1-0.2-0.2-0.4-0.1-0.6c0-0.1,0-0.2,0-0.2
			c0-0.1-0.1-0.1-0.1-0.2c0.2-0.1,0.2-0.1,0.2-0.3c0-0.1,0-0.1,0-0.2c0-0.2-0.1-0.4-0.1-0.5c0-0.1,0-0.2,0-0.3c0.1-0.1,0-0.2,0-0.4
			c0-0.2,0-0.4,0.1-0.5c0.1-0.1,0-0.2,0-0.4c-0.1-0.1-0.1-0.2-0.1-0.3c0-0.2,0-0.3,0.1-0.5c0.1-0.2,0.1-0.3,0-0.5c0-0.1,0-0.2,0-0.2
			c0-0.1,0-0.1,0-0.2c0-0.1,0-0.1,0-0.2c0-0.1,0-0.2,0.1-0.2c0.1,0,0.1-0.1,0.1-0.2c0,0,0-0.1,0-0.1c-0.1-0.2-0.1-0.5-0.1-0.8
			c0-0.2,0-0.4-0.1-0.7c0-0.1,0-0.3,0-0.4c0.1-0.2,0.1-0.2,0-0.3c-0.1-0.1-0.2-0.2-0.2-0.4c0,0,0,0,0,0c0.2-0.1,0.2-0.2,0.1-0.4
			c0,0,0-0.1,0-0.1c0-0.1,0-0.2,0-0.3c0-0.1,0-0.2,0-0.3c0-0.1,0-0.2,0-0.3c0-0.1,0-0.2,0-0.4c0-0.1,0-0.2,0.1-0.3
			c0.1-0.1,0.1-0.2,0-0.3c0-0.1-0.1-0.2-0.1-0.2c0-0.3,0-0.6,0.1-0.9c0-0.2,0.1-0.4,0-0.5c0-0.1,0-0.2,0.1-0.3
			c0.1-0.1,0.1-0.2,0-0.3c0,0-0.1-0.1-0.1-0.1c0.1-0.2,0.1-0.3,0-0.4c-0.1-0.1-0.1-0.2-0.1-0.2c0,0,0-0.1,0-0.1
			C57,33,57,32.9,57,32.7c0-0.3,0-0.6,0-0.9c0,0,0-0.1,0-0.1c0.1-0.1,0.1-0.2,0.1-0.3c0-0.2,0-0.4-0.1-0.6c0-0.2,0-0.3,0.1-0.5
			c0.1-0.1,0.1-0.2,0-0.3c0-0.1-0.1-0.3-0.1-0.4c0-0.1,0-0.1,0-0.2c0.1-0.1,0.1-0.3,0-0.4c0,0,0-0.1,0-0.2c0.1-0.1,0.1-0.1,0.1-0.2
			c0-0.1,0-0.2,0-0.2C57.2,28.3,57.2,28.2,57.1,28z"/>
		<path class="st0" d="M71.1,34.1C71,34,71,34,70.9,34c-0.1-0.1-0.2-0.2-0.2-0.3c0-0.1-0.1-0.2-0.2-0.3c-0.1,0-0.1-0.1-0.2-0.1
			c-0.1-0.1-0.2-0.1-0.2-0.3c0-0.1-0.1-0.1-0.1-0.2c-0.1-0.1-0.3-0.2-0.4-0.3c-0.1-0.1-0.2-0.2-0.3-0.2c-0.1-0.1-0.3-0.3-0.4-0.4
			c-0.1-0.1-0.2-0.2-0.2-0.3c0,0,0-0.1,0-0.1c-0.1-0.1-0.2-0.2-0.3-0.2c-0.2-0.1-0.5-0.3-0.7-0.5c-0.1-0.1-0.3-0.3-0.3-0.4
			c-0.1-0.2-0.2-0.3-0.4-0.3c-0.1-0.1-0.3-0.1-0.4-0.2c-0.1-0.1-0.2-0.1-0.2-0.3c0-0.1-0.1-0.1-0.1-0.1c-0.1,0-0.2-0.1-0.2-0.2
			c-0.1-0.1-0.2-0.2-0.2-0.4c0-0.1-0.1-0.2-0.2-0.2c-0.1,0-0.1-0.1-0.2-0.1c-0.1,0-0.1-0.1-0.1-0.2c0-0.1,0-0.2-0.1-0.2
			c-0.1,0-0.2-0.1-0.3-0.2c-0.2-0.1-0.3-0.2-0.5-0.3c-0.1,0-0.1-0.1-0.1-0.2c0-0.2-0.1-0.2-0.2-0.2c-0.2-0.1-0.3-0.2-0.3-0.4
			c0-0.1,0-0.2-0.2-0.3c0,0-0.1,0-0.1-0.1c-0.1-0.1-0.2-0.1-0.2-0.2c0-0.1-0.1-0.1-0.1-0.1c-0.2-0.1-0.3-0.2-0.4-0.4
			c0-0.1-0.1-0.1-0.1-0.2c-0.1,0-0.1-0.1-0.2-0.1c-0.1,0-0.1-0.1-0.2-0.2c0-0.1,0-0.1-0.1-0.1c-0.1-0.1-0.2-0.1-0.3-0.2
			c-0.3-0.1-0.5-0.3-0.7-0.6c0,0-0.1-0.1-0.1-0.2c0-0.1-0.1-0.2-0.2-0.2c-0.2-0.1-0.3-0.2-0.3-0.3c-0.1-0.2-0.2-0.3-0.4-0.4
			c-0.1-0.1-0.2-0.1-0.2-0.3c0-0.1,0-0.2-0.2-0.2c-0.1,0-0.1-0.1-0.2-0.1c-0.1-0.2-0.2-0.3-0.4-0.4c-0.1-0.1-0.2-0.1-0.3,0.1
			c-0.1,0.1-0.2,0.3-0.3,0.4c0,0,0,0-0.1,0c-0.1,0.1-0.2,0.2-0.4,0.2C58,23,58,23.1,58,23.2c0,0,0,0.1-0.1,0.1
			c0,0.1-0.1,0.1-0.1,0.1c-0.1,0-0.2,0.1-0.3,0.2c0,0-0.1,0.1-0.1,0.1c-0.1,0.1-0.2,0.1-0.3,0.2c-0.1,0.1-0.1,0.1-0.2,0.2
			c-0.1,0.1-0.1,0.2-0.1,0.3c0.1,0.1,0.1,0.2,0.2,0.3c0.1,0.1,0.2,0.2,0.2,0.3c0,0,0,0,0.1,0c0.1,0.1,0.2,0.1,0.2,0.2
			c0.1,0.1,0.1,0.2,0.2,0.4c0.1,0.2,0.2,0.3,0.4,0.3c0.1,0,0.2,0.1,0.2,0.2c0.1,0.2,0.3,0.4,0.5,0.5c0.2,0.1,0.2,0.2,0.3,0.3
			c0,0.2,0.1,0.3,0.3,0.4c0.1,0.1,0.2,0.1,0.2,0.2c0,0,0.1,0.1,0.1,0.1c0,0.2,0.2,0.3,0.3,0.3c0.1,0,0.2,0.1,0.2,0.2
			c0,0.1,0.1,0.2,0.2,0.3c0.1,0,0.2,0.1,0.2,0.1c0.1,0.1,0.2,0.2,0.3,0.3c0.1,0.2,0.2,0.3,0.4,0.4c0,0,0.1,0.1,0.1,0.1
			c0.1,0.1,0.2,0.3,0.4,0.4c0.1,0.1,0.2,0.2,0.2,0.3c0,0.1,0.1,0.2,0.2,0.3c0.1,0,0.2,0.1,0.2,0.2c0.1,0.2,0.2,0.3,0.4,0.4
			c0.1,0,0.2,0.1,0.2,0.1c0.1,0.1,0.1,0.1,0.2,0.1c0.1,0,0.2,0.1,0.2,0.2c0,0.1,0.1,0.2,0.2,0.2c0.1,0,0.2,0.1,0.2,0.2
			c0.1,0.1,0.2,0.2,0.3,0.2c0,0,0,0,0.1,0c0.2,0.3,0.5,0.6,0.8,0.8c0.2,0.1,0.3,0.3,0.5,0.5c0.1,0.1,0.1,0.1,0.1,0.2
			c0.1,0.1,0.1,0.2,0.3,0.3c0.1,0,0.2,0.1,0.2,0.2c0.1,0.2,0.3,0.4,0.5,0.4c0.1,0,0.1,0,0.1,0.1c0.1,0.2,0.3,0.4,0.4,0.6
			c0.1,0.2,0.3,0.2,0.4,0.3c0.1,0.1,0.2,0.1,0.3,0.2c0.1,0.1,0.2,0.2,0.4,0.3c0.1,0,0.2,0.1,0.3,0.2c0.1,0.1,0.2,0.1,0.3,0
			c0,0,0,0,0-0.1c0.1-0.1,0.2-0.3,0.3-0.3c0.1,0,0.2-0.1,0.3-0.2c0,0,0-0.1,0.1-0.1c0.1-0.1,0.2-0.2,0.3-0.3c0-0.1,0.1-0.1,0.2-0.2
			c0.1,0,0.1-0.1,0.2-0.2c0-0.1,0-0.1,0.1-0.2c0.2-0.1,0.3-0.2,0.4-0.4c0,0,0.1-0.1,0.1-0.1c0,0,0.1-0.1,0.1-0.1
			C71.2,34.2,71.2,34.1,71.1,34.1z"/>
		<path class="st0" d="M47.4,38.3c0.1-0.1,0.1-0.3,0-0.4c0-0.1,0-0.2,0-0.3c0-0.1,0-0.2,0-0.3c-0.1-0.1-0.1-0.3-0.1-0.5
			c0-0.1,0-0.3-0.1-0.4c0-0.1-0.1-0.2,0-0.3c0-0.1,0-0.1,0-0.2c0-0.1,0-0.2,0-0.2c0-0.1,0-0.2-0.1-0.3c-0.1-0.1-0.1-0.2,0-0.3
			c0-0.1,0.1-0.2,0.1-0.3c-0.1-0.1,0-0.3,0-0.4c0-0.1,0-0.2,0-0.3c0-0.1,0-0.2-0.1-0.4c0-0.2,0-0.3,0-0.5c0-0.1,0-0.2-0.1-0.3
			c-0.1-0.1-0.1-0.1,0-0.2c0.1-0.2,0.1-0.4,0-0.6c-0.1-0.2-0.1-0.4,0-0.6c0-0.1,0.1-0.2,0-0.3c0,0,0-0.1,0-0.1c0-0.2,0-0.3,0.1-0.5
			c0-0.2,0.1-0.3,0-0.5c-0.1-0.2,0-0.3,0-0.5c0.1-0.1,0.1-0.3,0-0.4c0-0.1,0-0.2,0-0.3c0-0.1,0-0.2,0-0.3c0-0.1,0-0.2,0-0.3
			c0-0.1,0-0.1,0-0.2c-0.1-0.1,0-0.2,0-0.3c0-0.1,0-0.1,0-0.2c0-0.2,0-0.2-0.2-0.2c-0.2,0-0.4,0-0.6,0c-0.1,0-0.1,0-0.2-0.1
			c-0.1-0.1-0.2-0.1-0.3-0.1c-0.1,0-0.1,0-0.2,0c-0.1,0-0.2,0-0.4,0c-0.1,0-0.1,0-0.2,0c-0.1,0.1-0.2,0.1-0.3,0.1c0,0-0.1,0-0.1,0
			c-0.1,0.1-0.3,0.1-0.4,0c-0.1,0-0.2,0-0.2,0.1c0,0,0,0.1,0,0.1c0,0.2,0,0.3,0,0.5c0,0.2,0,0.3,0.1,0.5c0,0.1,0,0.2,0,0.3
			c-0.1,0.1-0.1,0.2,0,0.3c0,0.1,0,0.2,0.1,0.3c0,0.1,0,0.2,0,0.2C44,29.8,44,29.9,44,30c0,0.2,0,0.5,0,0.7c0,0.1,0,0.2,0,0.3
			c0.1,0.1,0.1,0.2,0.1,0.3c0,0,0,0,0,0c-0.3,0.1-0.3,0.2-0.2,0.5C44,32,44,32.2,44,32.4c0,0.1,0,0.1,0,0.2c0.1,0.2,0.1,0.4,0,0.6
			c0,0.1-0.1,0.2,0,0.2c0.1,0.1,0.1,0.2,0,0.3c0,0.1,0,0.1,0,0.2c0,0.1,0,0.3,0,0.4c0,0.2,0,0.3,0.1,0.4c0,0,0,0.1,0,0.1
			c0,0.1,0,0.3,0,0.4c0,0.1,0,0.3,0.1,0.4c0,0.1,0,0.1,0,0.2c0,0.1,0,0.1,0,0.2c0,0.1,0,0.2,0,0.3c0,0.1,0,0.3,0,0.4
			c0,0.1,0,0.2,0,0.2c0,0.1,0,0.1-0.1,0.2c-0.1,0.1-0.1,0.1-0.1,0.2c0.1,0.2,0.1,0.3,0.1,0.5c0,0.1,0,0.1,0,0.2c0,0.1,0,0.3,0.1,0.4
			c0,0.1,0,0.2,0,0.2c0,0.3,0,0.3,0.2,0.4c0,0,0,0,0,0c0.1,0,0.1,0.1,0.2,0c0,0,0.1,0,0.1,0c0.1,0,0.2,0,0.3,0c0.1,0,0.2,0,0.2,0.1
			c0.1,0.1,0.2,0.1,0.3,0c0.1,0,0.3-0.1,0.4,0c0,0,0.1,0,0.2,0c0.1,0,0.1,0,0.2,0c0.1,0.1,0.1,0.1,0.3,0c0.1-0.1,0.2-0.1,0.3,0
			c0,0,0.1,0,0.1,0c0.1,0,0.2,0,0.3-0.2c0,0,0-0.1,0.1-0.1c0.1-0.1,0.1-0.3,0-0.4C47.3,38.4,47.3,38.3,47.4,38.3z"/>
		<path class="st0" d="M28.8,16.2c-0.1-0.1-0.1-0.3,0-0.4c0-0.1,0-0.2,0-0.3c0,0,0-0.1,0-0.1c0-0.1,0-0.1,0-0.2c0-0.1,0-0.3-0.2-0.3
			c-0.1,0-0.2-0.1-0.4-0.1c-0.1,0-0.3,0-0.4,0.1c-0.1,0-0.2,0-0.2,0c0,0-0.1,0-0.1,0c-0.1,0-0.2,0-0.3,0c-0.1-0.1-0.3-0.1-0.4,0
			c0,0,0,0,0,0c-0.1,0-0.1-0.1-0.2-0.1c-0.1,0.1-0.1,0-0.2,0c0,0-0.1,0-0.1,0c-0.1,0-0.2,0-0.3,0c-0.1,0-0.3-0.1-0.4,0
			c-0.1,0.1-0.2,0.1-0.3,0c-0.1,0-0.2,0-0.3,0c-0.1,0-0.2,0-0.2,0c0,0,0,0,0,0c0-0.2,0.1-0.3,0.1-0.5c0-0.1,0-0.2,0-0.3
			c0,0,0-0.1,0-0.1c0-0.1,0-0.3-0.1-0.4c0-0.1,0-0.1,0-0.2c0.1-0.1,0.1-0.2,0.1-0.3c0-0.1-0.1-0.3-0.1-0.4c0-0.1-0.1-0.2,0-0.3
			c0.1-0.1,0.1-0.2,0-0.4c0-0.2,0-0.4,0-0.6c0-0.1,0-0.2,0-0.2c0-0.1,0-0.2,0-0.3c0-0.1,0-0.2,0-0.2c0.1-0.2,0.1-0.3,0-0.5
			c-0.1-0.1-0.1-0.1,0-0.2c0,0,0-0.1,0-0.1c0-0.1,0-0.2,0.1-0.3c0-0.1,0.1-0.2,0-0.3c-0.1-0.1-0.2-0.1-0.3-0.1c-0.1,0-0.2,0-0.2,0
			c-0.1,0.1-0.2,0-0.3,0c-0.1,0-0.2,0-0.2,0c-0.1,0.1-0.3,0-0.4-0.1c-0.1-0.1-0.2-0.1-0.3-0.1c-0.2,0.1-0.4,0-0.6,0
			c-0.2,0-0.4,0-0.6,0c-0.1,0-0.1,0.1-0.1,0.2c0,0.1,0,0.3,0,0.4c0,0.2,0.1,0.3,0.1,0.5c0,0.1,0,0.1,0,0.2c-0.1,0.1-0.1,0.2-0.1,0.4
			c0,0.1,0,0.3,0.1,0.4c0,0.1,0,0.1,0,0.2c-0.1,0.1-0.1,0.3,0,0.5c0,0.1,0,0.2,0,0.4c0,0.1,0,0.2,0,0.3c0,0.2,0.1,0.4-0.1,0.5
			c0,0,0,0.1,0,0.1c0.1,0.2,0.1,0.4,0.1,0.7c0,0.1-0.1,0.3,0,0.4c0.1,0.3,0.1,0.5,0,0.8c0,0-0.1,0-0.1,0.1c0,0,0,0,0,0c0,0,0,0,0,0
			c0-0.2-0.2-0.2-0.3-0.1c-0.1,0.1-0.2,0-0.3,0c-0.1,0-0.2,0-0.3-0.1c-0.1,0-0.1,0-0.2,0c-0.1,0-0.2,0.1-0.3,0
			C20,15,19.8,15,19.7,15c0,0-0.1,0-0.2,0c-0.1,0-0.1,0-0.2,0c-0.1,0-0.2-0.1-0.3-0.1c-0.1,0-0.2,0.1-0.2,0c-0.1,0-0.2-0.1-0.2,0
			c0-0.2,0-0.3,0.1-0.4c0-0.1,0-0.2,0-0.2c-0.2-0.1-0.2-0.2-0.1-0.4c0.1-0.1,0.1-0.3,0-0.4c-0.1-0.2-0.1-0.4-0.1-0.5
			c0-0.1,0-0.2,0-0.4c0-0.1,0-0.2,0.1-0.3c0.1-0.1,0.1-0.2,0-0.3c0,0,0-0.1-0.1-0.1c0,0,0-0.1,0-0.1c0.1-0.2,0.1-0.4,0.1-0.5
			c0-0.1,0-0.2,0-0.3c-0.1-0.1,0-0.2,0.1-0.3c0.1-0.1,0.1-0.1,0-0.2c0-0.1-0.1-0.1-0.1-0.2c-0.1-0.3,0-0.3,0-0.6c0,0,0,0,0-0.1
			c0-0.1,0-0.1-0.1-0.2c-0.1-0.1-0.2-0.1-0.3,0c-0.1,0.1-0.2,0.1-0.3,0c-0.2-0.1-0.4-0.1-0.6-0.2c0,0-0.1,0-0.1,0
			c-0.1,0.1-0.2,0.1-0.4,0.1c0,0-0.1,0-0.1,0c-0.1,0-0.1,0-0.2,0c-0.1,0-0.2,0-0.3,0c-0.1,0-0.2,0-0.3,0c0,0,0,0,0,0
			c0,0-0.1,0-0.1,0c-0.1-0.1-0.3-0.1-0.4-0.1c-0.1,0-0.2,0.1-0.2,0.2c0,0.1,0,0.1,0,0.1c0,0.1,0,0.1,0,0.2c0.1,0.2,0,0.3-0.1,0.5
			c0,0.1,0,0.1,0,0.2c0,0.1,0,0.1,0,0.2c0,0.2,0,0.5,0,0.7c0,0,0,0,0,0c0,0.2,0,0.3-0.1,0.5c-0.1,0.2,0,0.3,0,0.5
			c0.1,0.2,0.1,0.5,0,0.8c0,0.1-0.1,0.2,0,0.3c0,0.1,0,0.2,0,0.3c0,0.1,0,0.2,0,0.3c0,0.1,0,0.2,0,0.2c0,0.1,0,0.2,0,0.3
			c0,0.2,0.1,0.3,0,0.5c0,0,0,0,0,0c-0.2,0.1-0.3,0.1-0.5,0.1c0,0-0.1,0-0.1,0c-0.2,0-0.4,0.1-0.6,0c0,0,0,0,0,0c-0.1,0-0.2,0-0.3,0
			c-0.2,0-0.4-0.1-0.6-0.1c-0.1,0-0.1,0-0.2,0c-0.1,0.1-0.1,0.1-0.2,0c-0.1-0.1-0.2-0.1-0.3,0c-0.1,0.1-0.2,0.1-0.4,0
			c-0.1-0.1-0.2-0.1-0.3,0c-0.1,0.1-0.1,0-0.2,0c0,0-0.1-0.1-0.1-0.1c-0.1,0-0.2,0.1-0.3,0.1c-0.2,0-0.5,0-0.7,0
			c-0.1,0-0.2,0-0.2,0.1c0,0,0,0,0,0c0,0,0,0,0-0.1c-0.1-0.3-0.1-0.6,0-0.9c0-0.1,0-0.2,0-0.3c0-0.1,0-0.3,0-0.4c0-0.1,0-0.2,0-0.3
			c0-0.1,0-0.3,0-0.4c0.1-0.2,0-0.3,0-0.4c0-0.1,0-0.2,0-0.3c0-0.1,0-0.2,0-0.3c0-0.1,0-0.2-0.1-0.2c0-0.2,0-0.3,0.1-0.4
			c0.1-0.1,0.1-0.2,0.1-0.3c0-0.3,0-0.5,0.1-0.8c0-0.1,0-0.2,0-0.2c0-0.1-0.1-0.2-0.1-0.2c-0.2-0.1-0.3-0.1-0.5,0
			c-0.1,0-0.2,0.1-0.4,0c0,0-0.1,0-0.1,0c-0.1,0-0.1,0-0.2,0C9,9.6,8.9,9.6,8.8,9.6c-0.1,0.1-0.2,0.1-0.3,0c-0.1-0.1-0.3-0.1-0.4,0
			c-0.1,0-0.2,0.1-0.2,0c-0.1-0.1-0.2-0.1-0.4,0c0,0-0.1,0-0.1,0c-0.1,0-0.1,0.1-0.2,0.1C7.1,9.8,7.1,9.9,7.1,10
			c0,0.3,0.1,0.6,0.1,0.9c0,0.1,0,0.1-0.1,0.2c-0.1,0.1-0.1,0.2-0.1,0.3c0,0.1,0,0.2,0,0.2c0.1,0.4,0,0.9,0,1.3c0,0,0,0.1,0,0.1
			c0,0.2-0.1,0.3,0,0.5c0,0.1,0,0.2,0,0.3C7,14,7,14.1,7.1,14.3c0,0,0,0,0,0.1c0,0.1,0,0.1,0,0.2C7,14.6,7,14.7,7,14.8
			c0,0,0,0.1,0,0.1c-0.1,0-0.2,0-0.3,0c0,0-0.1,0-0.1,0c-0.1,0-0.2,0.1-0.3,0c0,0-0.1,0-0.1,0c-0.2,0.1-0.3,0.1-0.5,0
			c0,0-0.1,0-0.1,0c-0.1,0-0.1,0-0.2,0C5.2,15,5.1,15,5,15c-0.2,0-0.3-0.1-0.5-0.1c-0.1,0-0.1,0-0.2,0c-0.1,0-0.1,0-0.2,0
			c-0.1-0.1-0.2-0.1-0.3,0c-0.1,0-0.2,0-0.3,0c-0.2,0-0.4,0-0.6,0.1c-0.1,0.1-0.1,0.2-0.2,0.2c-0.2,0.2-0.1,0.3-0.1,0.5
			c0,0,0,0.1,0,0.1c0,0.1,0,0.2,0,0.2c0,0.1,0,0.2-0.1,0.3c0,0,0,0.1,0,0.1c0,0.2,0.1,0.4,0,0.6c0,0,0,0,0,0.1c0,0.2,0.1,0.4,0,0.6
			c0,0,0,0.1,0,0.1c0,0.1,0,0.1,0,0.2c0,0.1,0,0.2,0.2,0.2c0,0,0.1,0,0.1,0c0.1,0.1,0.3,0.1,0.4,0.2c0,0,0,0,0.1,0
			c0.2,0,0.3,0,0.5,0c0,0,0.1,0,0.1,0c0.1,0,0.2-0.1,0.3-0.1c0.1-0.1,0.3-0.1,0.4,0c0,0,0,0,0,0c0.1,0,0.3,0.1,0.4,0.1
			c0.2,0,0.3,0,0.5-0.1c0.1,0,0.2,0,0.3,0c0.2,0.1,0.5,0,0.7,0c0.1,0,0.2,0,0.3,0c0.1,0.1,0.2,0.1,0.3,0c0,0,0,0,0,0.1
			c-0.1,0.1-0.1,0.2,0,0.3c0.1,0.2,0.1,0.3,0,0.5c0,0.2,0,0.4,0,0.6c0,0.1,0,0.2,0,0.3c0,0.1,0,0.1,0,0.2c0,0.4,0,0.8,0,1.1
			c0,0.1,0,0.2-0.1,0.3c-0.1,0.1-0.2,0.2-0.1,0.4c0,0.1,0,0.1,0,0.2c0,0.4,0,0.8,0.1,1.2c0,0.1,0,0.3-0.1,0.4
			c-0.1,0.1-0.1,0.3,0,0.4c0.1,0.2,0.1,0.4,0,0.6C7,25,7,25.2,7,25.3c0,0.1,0,0.2,0,0.3c0,0.1,0,0.2,0,0.3c0.1,0.3,0.1,0.5,0,0.8
			C7,26.8,7,26.9,7,27c0,0.3,0,0.6,0.1,1c0,0.2,0,0.4-0.1,0.6c0,0.1-0.1,0.2,0,0.3C7,29,7.1,29.2,7,29.3c0,0.1,0,0.2,0,0.4
			c0,0.1,0,0.2,0,0.3c0,0.2,0,0.4,0,0.6c0,0.1,0,0.1,0,0.2c0.1,0.2,0.1,0.3,0.1,0.5c-0.1,0.2,0.2,0.4,0.4,0.3c0.1,0,0.3-0.1,0.4-0.1
			c0.1,0,0.3-0.1,0.4,0c0.1,0,0.3,0,0.4,0c0.1-0.1,0.2-0.1,0.3,0c0.1,0,0.2,0,0.2,0c0.2-0.1,0.3-0.1,0.5,0c0,0,0,0,0.1,0
			c0.1,0,0.2,0,0.3,0c0.1,0,0.1,0,0.2,0c0.1,0,0.2-0.1,0.3-0.1c0.1,0,0.2,0,0.3,0c0.1-0.1,0.3-0.1,0.4,0c0.1,0,0.1,0,0.2,0
			c0.2,0,0.4-0.1,0.6,0c0,0,0.1,0,0.1,0c0.1,0,0.2,0,0.3,0.1c0,0,0.1,0,0.1,0c0.1-0.1,0.3,0,0.4,0c0.1,0,0.2,0,0.3,0
			c0.1-0.1,0.3-0.1,0.4-0.1c0.1,0,0.2,0,0.3,0c0.1,0,0.3,0,0.4,0.1c0.1,0.1,0.1,0,0.2,0c0.1-0.1,0.1-0.1,0.2-0.2
			c0.2-0.1,0.3-0.1,0.5,0c0.1,0,0.1,0,0.2,0c0.1,0,0.1-0.1,0.2-0.1c0.1,0,0.2,0,0.3,0c0.1,0,0.2,0,0.4,0c0.2,0,0.2,0,0.3,0.1
			c0,0,0,0.1,0.1,0.1c0.1,0.1,0.1,0.1,0.2,0.1c0.3-0.1,0.6-0.1,0.9-0.1c0.3,0,0.6-0.1,0.9-0.1c0.1,0,0.2-0.1,0.3,0
			c0.1,0,0.2,0,0.3,0c0.1,0,0.1,0,0.2,0c0.1,0.1,0.2,0.1,0.3,0c0.2-0.1,0.4-0.1,0.6,0c0.1,0,0.2,0,0.3,0c0.1,0,0.2,0,0.3,0
			c0.1,0.1,0.2,0,0.3,0c0.2-0.2,0.5-0.2,0.7,0c0.1,0,0.1,0.1,0.2,0c0.1-0.1,0.2,0,0.3,0c0.1,0,0.1,0,0.2,0c0.1,0,0.2,0,0.3-0.1
			c0.1,0,0.2-0.1,0.3,0c0,0,0.1,0,0.1,0c0,0,0.1,0,0.1-0.1c0.1,0,0.2,0,0.3,0.1c0.1,0.1,0.2,0.1,0.3,0c0.1-0.1,0.2-0.1,0.3-0.1
			c0.1,0,0.2,0,0.3,0.1c0,0,0.1,0,0.1-0.1c0.2-0.1,0.3-0.1,0.4,0.1c0.1,0.1,0.1,0.1,0.2,0.1c0.2-0.1,0.4-0.1,0.6,0
			c0.1,0,0.1,0,0.2,0c0.1,0,0.1-0.1,0.2-0.1c0.2,0,0.4,0,0.6,0c0.1,0,0.1,0,0.2,0c0.1,0,0.1-0.1,0.2,0c0.1,0.1,0.2,0.1,0.3,0
			c0,0,0.1,0,0.1,0c0.2,0,0.3,0,0.4-0.1c0.1,0,0.1,0,0.2,0c0,0,0.1,0,0.1,0c0,0,0.1-0.1,0.1-0.2c0-0.1,0-0.1-0.1-0.2
			c-0.1-0.1-0.1-0.3,0-0.4c0-0.1,0-0.1,0-0.2c0-0.1,0-0.2,0-0.3c0-0.2,0-0.3,0-0.5c0,0,0-0.1,0-0.1c0-0.2,0.1-0.4,0-0.6c0,0,0,0,0,0
			c0.1-0.1,0-0.2,0-0.3c0-0.1,0-0.2-0.1-0.2c-0.1,0-0.2,0-0.3,0c-0.1,0-0.2,0-0.4,0c-0.1,0-0.3,0.1-0.4,0c0,0-0.1,0-0.1,0
			c-0.2,0.1-0.5,0.1-0.7,0.1c-0.1,0-0.2,0-0.3,0c-0.2,0-0.4,0-0.5,0c-0.1,0-0.3,0-0.4,0c-0.1,0-0.2,0-0.2,0c-0.1-0.1-0.2,0-0.3,0
			c-0.2,0.1-0.4,0.1-0.6,0c-0.1,0-0.2,0-0.3,0c-0.3,0.1-0.5,0.1-0.8,0c0,0-0.1,0-0.1,0c-0.1,0-0.1,0-0.2,0c-0.3,0.2-0.5,0.2-0.8,0.1
			c-0.1,0-0.1,0-0.2,0c-0.2,0-0.5,0-0.7,0.1c-0.1,0-0.1,0-0.2,0c0,0-0.1,0-0.1,0c-0.1,0-0.2,0-0.3,0c-0.2,0-0.5,0-0.7,0
			c-0.2,0-0.4,0-0.6-0.1c-0.1,0-0.3,0-0.4,0c-0.1,0-0.1,0-0.2,0c-0.1,0-0.3-0.1-0.4-0.1c-0.1,0-0.2,0-0.2,0c-0.2,0.1-0.5,0-0.7,0.2
			c0,0,0,0-0.1,0c-0.3,0-0.5,0-0.8-0.1c-0.1,0-0.1,0-0.2,0c-0.1,0.1-0.3,0.1-0.4,0c0,0-0.1,0-0.1,0c-0.1,0-0.1,0-0.1,0.1
			c-0.2,0.1-0.3,0.1-0.5,0c-0.1,0-0.2,0-0.3,0c-0.1,0-0.3,0-0.4,0c-0.4,0-0.7-0.1-1.1,0c-0.2,0-0.3,0-0.5-0.1c0,0-0.1-0.1-0.2,0
			c-0.1,0.1-0.2,0.1-0.3,0.1c-0.1,0-0.2,0-0.3,0c-0.1-0.1-0.2-0.1-0.3,0c0,0-0.1,0-0.1,0c-0.1-0.1-0.2,0-0.4,0c-0.1,0-0.1,0-0.2,0
			c-0.1-0.1-0.2-0.1-0.3,0c-0.1,0.1-0.3,0.1-0.4,0.1c-0.1-0.3-0.1-0.6-0.1-1c0-0.2,0-0.4,0.1-0.6c0-0.1,0.1-0.3,0.1-0.4
			c0-0.2-0.1-0.5-0.1-0.7c0-0.2,0-0.5,0.1-0.7c0-0.1,0-0.3,0-0.4c0-0.2-0.1-0.5-0.1-0.7c0-0.1,0-0.1,0-0.2c0-0.1,0-0.2,0-0.2
			c-0.1-0.1,0-0.2,0-0.3c0-0.1,0-0.1,0-0.2c0-0.1,0-0.2,0-0.3c0-0.1,0-0.2,0-0.3c-0.1-0.2-0.1-0.4,0-0.6c0,0,0,0,0,0
			c0-0.3,0.1-0.5,0-0.8c0-0.1-0.1-0.2,0-0.3c0,0,0-0.1,0-0.1c-0.1-0.2,0-0.4,0-0.6c0-0.1,0-0.3,0-0.4c0-0.2-0.1-0.4,0.1-0.5
			c0,0,0-0.1,0-0.1c0-0.2,0-0.4,0-0.6c0.1,0,0.2,0,0.3,0c0.1,0,0.2,0,0.3,0c0.1,0,0.2,0,0.2,0c0.2,0,0.3,0.1,0.5,0c0,0,0.1,0,0.2,0
			c0.2,0,0.4,0.1,0.5,0.1c0.1,0,0.1,0,0.2,0c0.2-0.1,0.4-0.1,0.5,0c0.2,0.1,0.3,0.1,0.5,0c0.1-0.1,0.2-0.1,0.3,0
			c0.2,0.1,0.3,0.1,0.5,0.1c0.2,0,0.3,0,0.5-0.1c0.2,0,0.3,0,0.5,0c0,0,0,0.1,0,0.1c0,0.1,0,0.2,0.1,0.3c0,0.1,0,0.2-0.1,0.3
			c-0.1,0.1-0.1,0.2,0,0.2c0.1,0.1,0.1,0.3,0.1,0.4c0,0.1,0,0.2,0,0.4c0,0.1,0,0.2,0,0.3c0,0.1,0,0.2,0,0.3c0.1,0.1,0.1,0.2,0.1,0.3
			c-0.1,0.2,0,0.3,0,0.5c0,0.1,0,0.2,0,0.3c0,0.1,0,0.2,0,0.2c0,0.1,0,0.1,0,0.2c0,0.2,0.1,0.3-0.1,0.5c0,0,0,0.1,0,0.2
			c0,0,0,0.1,0,0.1c0,0.2,0.1,0.3,0,0.5c0,0.1,0,0.1,0,0.2c0,0,0,0.1,0,0.1c0,0.1,0,0.2-0.1,0.3c0,0.1,0,0.3,0.2,0.3
			c0.1,0,0.3,0.1,0.4,0c0.1,0,0.3,0,0.4,0.1c0.1,0.1,0.2,0.1,0.3,0c0,0,0.1-0.1,0.2,0c0.2,0.1,0.5,0,0.7,0.1c0.1,0,0.2,0,0.3,0
			c0.2,0.1,0.5,0,0.6-0.1c0.1-0.1,0.2-0.1,0.2-0.1c0.1,0,0.2,0.1,0.3,0.1c0.1,0,0.3,0,0.4,0c0.2,0,0.4,0,0.5,0c0.2,0,0.3,0,0.5,0
			c0,0,0.1,0,0.1,0c0.1,0,0.2,0.1,0.3,0.1c0.1,0.1,0.2,0.1,0.4,0c0.1-0.1,0.3-0.1,0.4-0.1c0.1,0,0.3,0,0.4,0c0.2,0,0.3,0,0.5,0
			c0.1,0,0.3,0,0.4-0.1c0,0,0.1,0,0.1,0c0.1,0,0.1,0.1,0.2,0.1c0.1,0.1,0.3,0.1,0.4,0c0,0,0.1,0,0.1,0c0.2,0,0.4,0,0.6,0
			c0.1,0,0.2,0,0.3,0c0.1,0,0.1-0.1,0.1-0.2c0-0.1,0-0.1,0-0.2c0,0,0-0.1,0-0.1c-0.1-0.1-0.1-0.2,0-0.2c0.1-0.2,0.1-0.3,0-0.5
			c-0.1-0.2-0.1-0.5,0-0.7c0,0,0-0.1,0-0.1c-0.1-0.1-0.1-0.3-0.1-0.4c0-0.1,0-0.2,0.1-0.2c0.1-0.1,0.1-0.3,0-0.4
			c-0.1-0.2-0.1-0.4-0.1-0.6c0-0.1,0-0.1,0-0.2c0-0.2,0-0.5,0-0.7c0-0.1,0-0.2,0-0.3c0,0,0-0.1,0-0.1c0-0.1,0-0.2,0-0.4
			c0-0.1,0-0.3,0-0.4c0-0.1,0-0.2,0-0.3c0,0,0-0.1,0-0.1c0.1,0,0.2,0,0.3-0.1c0-0.1,0.1-0.2,0.2-0.1c0.2,0.1,0.4,0.1,0.6,0
			c0.1,0,0.2-0.1,0.3,0c0.2,0.1,0.5,0,0.7,0c0.1,0,0.2-0.1,0.4,0c0,0,0.1,0,0.2,0c0.2,0,0.4,0,0.6,0c0,0,0,0,0,0
			c0.1-0.1,0.3-0.1,0.4,0c0.2,0,0.3-0.1,0.3-0.2c0-0.1,0-0.2,0-0.3c0-0.1,0-0.3-0.1-0.4c0-0.1,0-0.1,0-0.2c0.1-0.1,0.1-0.2,0.1-0.3
			c0-0.1,0-0.1,0-0.2C28.8,16.3,28.8,16.2,28.8,16.2z M21.7,20c0,0.1,0,0.1,0,0.2c0.1,0.2-0.1,0.5,0,0.7c-0.1,0-0.3,0.1-0.4,0
			c-0.1,0-0.3,0-0.4,0.1c0,0-0.1,0.1-0.1,0.1c-0.1,0-0.3,0-0.4,0c-0.1,0-0.2-0.1-0.3,0c-0.1,0-0.2,0-0.3,0c-0.1,0-0.2,0-0.3,0.1
			c0,0-0.1,0.1-0.2,0C19.3,21,19.2,21,19.1,21c-0.1,0-0.2,0-0.2,0.1c-0.1,0-0.2,0-0.2,0c0-0.2,0-0.3,0-0.4c0-0.2,0-0.4,0-0.7
			c0.1-0.2,0.1-0.5,0-0.7c-0.1-0.1-0.1-0.3,0-0.4c0,0,0-0.1,0-0.1c0-0.2,0-0.4,0-0.6c0,0,0,0,0,0c0.1,0,0.1,0,0.2,0
			c0.1,0.1,0.2,0.1,0.4,0c0.1-0.1,0.2-0.1,0.3-0.1c0.1,0,0.2,0,0.2,0.1c0.1,0,0.2,0,0.3,0c0.2-0.1,0.3-0.1,0.5,0
			c0.1,0.1,0.3,0,0.4,0c0.2-0.1,0.3-0.1,0.5,0c0.1,0,0.1,0,0.2,0c0,0,0,0,0,0c0,0,0,0.1,0,0.1c0,0.2,0,0.3,0,0.5c0,0.1,0,0.2,0,0.3
			c0,0.1,0,0.2,0,0.3c0,0,0,0.1,0,0.1C21.7,19.7,21.7,19.8,21.7,20z"/>
	</g>
</g>
</svg>
