<?xml version="1.0" encoding="utf-8"?>
<!-- Generator: Adobe Illustrator 27.6.1, SVG Export Plug-In . SVG Version: 6.00 Build 0)  -->
<svg version="1.1" id="Layer_1" xmlns="http://www.w3.org/2000/svg" xmlns:xlink="http://www.w3.org/1999/xlink" x="0px" y="0px"
	 viewBox="0 0 322.9 70.8" style="enable-background:new 0 0 322.9 70.8;" xml:space="preserve">
<style type="text/css">
	.st0{fill:#FFFFFF;}
</style>
<g>
	<path class="st0" d="M5.5,70.8L0,60.3L11,8.6L20.5,0h7.1l-0.4,1.7h-5.1L16,10L5.4,60l2.5,9.1H13l-0.4,1.7H5.5z"/>
	<path class="st0" d="M63.3,20.3h-1.6l2.6-12.5l-4.2-6.2h-7.7L41.1,54.9h7.8v1.7H27v-1.7h8.5L46.7,1.7h-7.4l-6.9,6.2l-2.6,12.5h-1.6
		L32.5,0h35.1L63.3,20.3z"/>
	<path class="st0" d="M72.8,24.3h-4.5l-2.8,13.2h-1.8l2.8-13.4l6.1-6l4.8,9.3l-5.8,24.1h4.5l2.8-13.2h1.8l-2.8,13.4l-6.2,6l-4.8-9.3
		L72.8,24.3z M76,5.7h7.2L81.8,13h-7.2L76,5.7z"/>
	<path class="st0" d="M110.7,27.8l-2.3-6.9h-0.8l-8.4,8.9l-5.7,26.9h-5.3l6.9-32.4h-4.5l-2.8,13.2h-1.8l2.8-13.4l6.1-6l4.7,9.2
		l7.7-8.1h6l2.9,7.8l-0.1,0.2l7.6-8h6l2.9,7.8l-5.2,24.5h4.5l2.8-13.2h1.8l-2.8,13.4l-6.1,6l-4.8-9.3l4.3-20.6l-2.3-6.9H124
		l-8.5,8.9l-0.2,1.1l-0.1,0.7l-5.3,25h-5.3L110.7,27.8z"/>
	<path class="st0" d="M144.6,28.4l9.3-9.3h11.8l5.2,9.8l-1.1,5h-0.1v0.1h-21.1l-2.5,12.2l3.5,6.2h10.3l5.5-5.9l1.8-8.3h1.8l-1.9,8.9
		l-8.8,9.5h-11.9l-5.6-9.8L144.6,28.4z M164.9,32.3l0.6-3l-2.5-8.4h-7.1l-6.3,8.9l-0.5,2.5H164.9z"/>
	<path class="st0" d="M186.9,54.9h8.1l11.3-53.2h-7.4V0H220v1.7H212l-4.5,21.4h4.7l15.7-17.7l1.1-3.7h-4V0h16.7v1.7H238l-8.1,3.7
		l-12.2,13.7l5.6,35.8h6.4v1.7H210v-1.7h7.4l-4.7-30.2h-5.7l-6.4,30.2h7.4v1.7h-21.1V54.9z"/>
	<path class="st0" d="M237,28.4l9.3-9.3H258l5.2,9.8l-1.1,5h-0.1v0.1h-21.1l-2.5,12.2l3.5,6.2h10.3l5.5-5.9l1.8-8.3h1.8l-1.9,8.9
		l-8.8,9.5h-11.9l-5.6-9.8L237,28.4z M257.3,32.3l0.6-3l-2.5-8.4h-7.1l-6.3,8.9l-0.5,2.5H257.3z"/>
	<path class="st0" d="M294.4,52l-2.3,11l-9.6,7.9h-10.9l-4.2-5.2l1.3-6.4h6.4l-1.3,6.4h-4l2.8,3.4h8.4l5.9-7.2l1.6-7.4l1.6-7.2
		l-7.6,8h-7.9l-3.1-8.1l4.8-22.8h-4.5L269,37.5h-1.8l2.8-13.4l6.1-6l4.8,9.3l-4.1,19.5l2.3,6.6h3l8.5-8.9l5.4-25.4h5.3L294.4,52z"/>
	<path class="st0" d="M317.4,0l5.5,10.5l-11,51.7l-9.5,8.6h-7.1l0.4-1.7h5.1l6.2-8.3l10.6-50L315,1.7h-5.1l0.4-1.7H317.4z"/>
</g>
</svg>
