<?xml version="1.0" encoding="utf-8"?>
<!-- Generator: Adobe Illustrator 27.6.1, SVG Export Plug-In . SVG Version: 6.00 Build 0)  -->
<svg version="1.1" id="Layer_1" xmlns="http://www.w3.org/2000/svg" xmlns:xlink="http://www.w3.org/1999/xlink" x="0px" y="0px"
	 viewBox="0 0 293 70.8" style="enable-background:new 0 0 293 70.8;" xml:space="preserve">
<style type="text/css">
	.st0{fill:#FFFFFF;}
</style>
<g>
	<path class="st0" d="M0,13.4c0-1.3,0.6-1.5,1.9-0.6c0.2,0.2,0.4,0.4,0.7,0.5c1.2,1,2.4,1.4,3.4,1.4h5c1.1,0,2.1-0.5,3.1-1.5
		c1.1-1.1,2.2-0.9,3.5,0.4c2.8,2.1,2.9,3.6,0.5,4.5C17.4,18.3,17,18.9,17,20v39.3c0.4,2.2-0.8,3.1-3.6,2.6c-0.2-0.2-0.3-0.9-0.3-2.2
		v-1.6c0-1.1-0.5-1.6-1.6-1.6h-6c-1.1,0-1.6,0.5-1.6,1.6c0,1.8,0,3.6-0.1,5.4c-1,0.7-2.2,0.9-3.5,0.5C0.1,63.7,0,63,0,61.6V13.4z
		 M13.2,18.1c0-1.1-0.5-1.7-1.5-1.7H5.5c-1.1,0-1.6,0.5-1.6,1.6v14.8c0,1.1,0.5,1.6,1.6,1.6h6.1c1.1,0,1.6-0.5,1.6-1.6
		C13.2,32.8,13.2,18.1,13.2,18.1z M13.2,37.8c0-1.1-0.5-1.7-1.5-1.7H5.5c-1.1,0-1.6,0.5-1.6,1.6v15.2c0,1.1,0.5,1.6,1.6,1.6h6.1
		c1.1,0,1.6-0.5,1.6-1.6C13.2,52.9,13.2,37.8,13.2,37.8z M36.3,10.1c0-1.3,0.6-1.9,1.9-1.7c0.4,0,0.9,0.1,1.3,0.2
		c1.3,0.3,2.1,0.5,2.3,0.7c0.1,0.3-0.2,1-1.1,2.3c-0.4,0.5-0.6,1.3-0.6,2.4v2c0,1.1,0.5,1.6,1.6,1.6h3.7c1.1,0,2.2-0.7,3.5-2
		c1.4-1.4,2.7-1.5,4-0.5l0.7,0.5c1.6,1.3,2.3,2.2,2,2.8s-1.1,0.9-2.3,0.9H41.8c-1.1,0-1.6,0.5-1.6,1.6v7.9c0,1.1,0.5,1.6,1.6,1.6
		h7.1c1.1,0,2.2-0.7,3.5-2c1.4-1.4,2.7-1.6,4-0.6l0.7,0.5c1.6,1.3,2.3,2.3,2,2.8c-0.3,0.6-1,0.9-2.3,0.9H22.1
		c-1.3,0-2.1-0.2-2.2-0.7c-0.2-0.7,0.4-1,1.6-1h13.2c1.1,0,1.6-0.5,1.6-1.6v-7.9c0-1.1-0.5-1.6-1.6-1.6h-9.3c-1.3,0-2.1-0.2-2.2-0.7
		c-0.2-0.7,0.4-1,1.6-1h9.8c1.1,0,1.6-0.5,1.6-1.6L36.3,10.1L36.3,10.1z M44.7,36.4c0-1.3,0.6-1.9,1.9-1.7l2,0.3c1,0,1.7,0.5,2,1.2
		c0.1,0.7-0.3,1.2-1.2,1.4c-0.6,0.1-0.9,0.7-0.9,1.8v2.1c0,1.1,0.4,1.6,1.2,1.6s1.9-0.6,3.2-1.9c1.3-1.2,2.6-1.3,3.9-0.3l0.8,0.7
		c1.2,1,1.6,1.7,1.4,2.3c-0.3,0.6-1.1,0.9-2.4,0.9h-6.4c-1.1,0-1.6,0.5-1.6,1.6v18.3c0.4,3-1.1,4.9-4.2,5.7
		c-1.7,0.4-2.5,0.3-2.6-0.2c-0.1-1-0.9-1.8-2.2-2.5c-1.5-0.7-2.2-1.2-2.1-1.6c0.1-0.6,0.9-0.8,2.2-0.7l2.6,0.3
		c1.1,0.2,1.9,0.1,2.4-0.3c0.1-0.3,0.2-0.9,0.2-1.9V46.4c0-1.1-0.5-1.6-1.6-1.6H22.6c-1.3,0-2.1-0.2-2.2-0.7c-0.2-0.7,0.4-1,1.6-1
		h21.1c1.1,0,1.6-0.5,1.6-1.6C44.7,41.5,44.7,36.4,44.7,36.4z M24.7,48.4c0.3-0.4,1.1-0.2,2.4,0.7c4.8,3.4,6.9,6.7,6.5,9.7
		c-0.5,1.3-1.5,1.5-3,0.6c-1.1-3.1-2.4-5.8-3.9-8.2C25.1,49.7,24.4,48.8,24.7,48.4z"/>
	<path class="st0" d="M105.5,10.4c0-1.4,0.6-2,1.9-1.8c0.5,0,1.1,0.2,1.8,0.3c1.3,0.4,2,0.8,2,1.1c-0.1,0.3-0.5,0.8-1.2,1.7
		c-0.4,0.6-0.7,1.4-0.7,2.4v19.1c0,1.1,0.5,1.6,1.6,1.6h15.8c1.1,0,2.2-0.7,3.5-2c1.4-1.4,2.7-1.5,4-0.5l0.7,0.5
		c1.6,1.3,2.3,2.3,2.1,2.8c-0.3,0.7-1.1,1-2.3,1h-18.2c-1.1,0-1.6,0.5-1.6,1.6v22c-0.4,2.9,1,4.5,4.2,4.6c3,0.3,6.3,0.3,10,0
		c1.6,0,2.7-0.9,3.3-2.4l0.9-2.6c0.4-1.7,0.9-2.5,1.4-2.4c0.3,0,0.5,0.8,0.5,2.3c-0.3,2.3,0.2,3.9,1.4,4.8c0.8,1.3,0.3,2.3-1.5,3.1
		c-5.9,1.6-12.2,1.9-18.8,0.9c-3.4-0.6-5.2-2.5-5.3-5.5V38.3c0-1.1-0.5-1.6-1.6-1.6h-7c-1.1,0-1.7,0.7-1.7,2
		c-0.1,6.4-1.2,11.6-3.3,15.6c-3.6,6.6-9.3,11.5-16.9,14.7c-1.5,0.7-2.5,0.7-2.8,0.1c-0.2-0.4,0.4-0.9,1.8-1.6
		c6.9-3.9,11.5-8.1,13.7-12.6c2.3-4.7,3.5-10.2,3.7-16.6c0-1.1-0.5-1.6-1.6-1.6H79.6c-1.3,0-2-0.2-2.2-0.7c-0.2-0.7,0.3-1.1,1.5-1.1
		h24.8c1.1,0,1.6-0.5,1.6-1.6V10.4H105.5z M86.6,14c0.4-0.3,1.1,0.2,2.4,1.4c4.6,4.4,7.2,8.6,7.9,12.5c0.1,1.1-0.3,2-1.2,2.8
		c-1.5,0.5-2.5-0.1-3.2-1.8c-0.5-4.1-2.2-8.2-5-12.5C86.6,15.1,86.3,14.3,86.6,14z M124.5,14.9c0.4-1.4,1.3-1.8,2.5-1.3l1.9,0.8
		c0.8,0.3,1.2,0.5,1.4,0.7c0.6,1,0.2,1.5-1.2,1.6c-0.5,0-1.2,0.7-2,2.1c-1.9,3.3-4.5,6.8-7.6,10.5c-1.3,1.4-2.1,1.9-2.6,1.6
		s-0.3-1.1,0.6-2.2C120.7,24.4,123,19.8,124.5,14.9z"/>
	<path class="st0" d="M164.6,10.1c0.5-1.5,1.4-2.1,2.7-1.6l2,0.7c0.6,0,1.1,0.4,1.4,1.1c-0.2,0.6-0.5,0.9-1.1,0.9
		c-0.3,0,0.2,0.6,1.5,1.8c3.6,3.5,5.3,6.6,4.9,9.1c-0.5,1.5-1.6,1.8-3.2,0.7c-0.7-3-1.8-5.8-3.4-8.2c-1-1.3-1.8-1.3-2.5-0.1
		c-1.8,3.6-4.2,7.1-7,10.5c-1.1,1.4-1.2,2.1-0.1,2.1h6.6c1.1,0,2.1-0.7,3-2c0.9-1.2,1.9-1.2,3.2,0.1s1.8,2.1,1.7,2.6
		c-0.1,0.7-0.8,1-2.1,1h-3.7c-1.1,0-1.6,0.5-1.6,1.6V37c0,1.1,0.4,1.6,1.2,1.6s1.7-0.7,2.6-2c0.9-1.2,1.9-1.2,3.2,0.1
		c1.3,1.3,1.8,2.1,1.7,2.6c-0.1,0.7-0.8,1-2.1,1h-5c-1.1,0-1.6,0.5-1.6,1.6v17.8c0,1.1,0.7,1.4,2,1L173,59c1.4-0.7,2.3-0.9,2.5-0.6
		c0.4,0.6,0,1.3-1.2,2.1c-4.2,2.7-9,4.9-14.5,6.7c-1.1,0.5-1.6,1-1.6,1.4c0,0.9-0.4,1.4-1.2,1.5c-0.9-0.3-1.6-1.1-1.9-2.5
		c-0.1-0.4-0.2-0.9-0.5-1.3c-0.6-1.6-0.2-2.5,1.2-2.6c1.9-0.2,3.8-0.5,5.6-0.9c1.1-0.3,1.6-0.9,1.6-2V41.9c0-1.1-0.5-1.6-1.6-1.6h-5
		c-1.3,0-2.1-0.2-2.2-0.7c-0.2-0.7,0.4-1,1.6-1h5.5c1.1,0,1.6-0.5,1.6-1.6v-6.6c0-1.1-0.5-1.6-1.6-1.6h-2.1c-1.3,0-2-0.1-2.2-0.4
		c-0.1-0.3-0.6,0-1.4,0.7c-0.9,0.8-1.6,1-1.9,0.7c-0.3-0.3,0.2-1.2,1.4-2.6C159.6,22,162.7,16.3,164.6,10.1z M155.5,45.1
		c0.4-0.3,1.2,0.4,2.4,1.9c0.8,1.4,1.5,3.2,2.1,5.3c0.8,2.5,0.6,4.3-0.5,5.5c-0.9,0.9-1.9,0.7-3-0.6l0.2-5.8
		c-0.1-1.5-0.4-2.8-0.9-3.9C155.3,46.1,155.2,45.3,155.5,45.1z M171.7,46.4c0.1-1.4,0.8-2,2.1-1.8c1.9,0.1,3,0.6,3.2,1.4
		c0.2,0.7-0.2,1.1-1.1,1.2c-0.5,0.1-0.9,0.7-1.2,1.7c-0.7,2.5-1.6,4.6-2.6,6.1c-1.1,1.5-1.9,2.1-2.4,1.8c-0.4-0.2-0.3-1.1,0.3-2.5
		C170.8,52.1,171.4,49.4,171.7,46.4z M192,10.4c0.7-1.8,1.7-2.3,3.2-1.6c1.8,0.6,2.7,1.4,2.7,2.6c-0.3,0.4,0,1.2,0.9,2.3
		c4.6,5.4,9.5,8.8,14.8,10.4c1.3,0.4,2,0.7,2,0.9c0,0.4-0.3,0.6-0.9,0.9c-0.7,0.4-1.3,0.9-1.9,1.6c-0.5,0.7-1.6,0.5-3.2-0.5
		c-6-4-10.2-8.4-12.9-13.1c-0.7-1.1-1.4-0.9-2.4,0.4c-4.7,7-10.2,12.1-16.6,15.4c-1.4,0.7-2.3,0.9-2.5,0.6c-0.3-0.4,0.3-1.1,1.6-2
		C184.1,22.7,189.1,16.8,192,10.4z M177.5,32.1c0-1.3,0.6-1.6,1.9-1c0.7,0.7,1.7,0.9,2.8,0.7c1.1,0,1.9-0.3,2.6-0.8
		c0.7-0.5,1.6-0.4,2.7,0.3c1.2,0.9,1.8,1.6,1.8,1.9c-0.1,0.6-0.4,1-1.1,1.2c-0.4,0.2-0.6,0.8-0.6,1.8v5.6c0,1.3-0.1,2.1-0.2,2.2
		c-0.2,0.1-0.7,0.2-1.7,0.3c-1.1,0-1.6-0.4-1.6-1.2c0-0.9-0.5-1.4-1.4-1.4c-1.1,0-1.6,0.4-1.6,1.3c0,1-0.6,1.6-1.8,1.8
		c-1.2,0.1-1.8-0.6-1.8-2L177.5,32.1L177.5,32.1z M178.9,48.1c0-1.4,0.6-1.7,1.9-1c0.7,0.6,1.6,0.8,2.6,0.6h23
		c1.1,0,1.9-0.3,2.4-0.9c0.6-0.5,1.6-0.2,3.1,0.9c2.1,1.1,2.4,2.3,0.9,3.4c-0.6,0.3-0.9,0.9-0.9,2v14.3c-0.1,1.5-1,2.5-2.8,3.2
		c-1.6,0.3-2.4,0.1-2.6-0.7c0-0.9-0.8-1.7-2.3-2.4c-0.8-0.4-1.2-0.9-1-1.4s0.9-0.5,2.2,0.1c2.1,0.9,3,0.3,2.6-1.8v-4.5
		c0-1.1-0.5-1.6-1.6-1.6h-3c-1.1,0-1.6,0.5-1.6,1.6v7.6c0,1.4-0.6,2.2-1.8,2.4c-1.3,0.2-2-0.4-2-1.7V60c0-1.1-0.5-1.6-1.6-1.6H194
		c-1.1,0-1.6,0.5-1.6,1.6v7.6c0,1.4-0.6,2.2-1.8,2.4c-1.4,0.2-2-0.4-2-1.6v-8.3c0-1.1-0.5-1.6-1.6-1.6h-2.7c-1.1,0-1.6,0.5-1.6,1.6
		v7.8c0,1.3,0,2.1-0.1,2.2c-0.2,0.2-0.8,0.4-1.9,0.7c-1.2,0-1.8-0.6-1.8-2L178.9,48.1L178.9,48.1z M184,35.2c0-1.1-0.5-1.7-1.4-1.7
		c-1.1,0-1.6,0.5-1.6,1.6v3.5c0,1.1,0.5,1.6,1.4,1.6c1.1,0,1.6-0.5,1.6-1.6V35.2z M188.6,51.3c0-1.2-0.5-1.8-1.4-1.8h-2.8
		c-1.1,0-1.6,0.5-1.6,1.6v3.7c0,1.1,0.5,1.6,1.6,1.6h2.7c1.1,0,1.6-0.5,1.6-1.6v-3.5H188.6z M198.1,22.4c0.9-1.3,2-1.2,3.3,0.1
		c1.2,1.2,1.8,2.1,1.7,2.6c-0.1,0.7-0.8,1-2.1,1h-12.6c-1.3,0-2.1-0.2-2.2-0.7c-0.2-0.7,0.4-1,1.6-1h7.3
		C196.1,24.4,197.1,23.7,198.1,22.4z M189.6,32.1c0-1.3,0.7-1.6,2-0.9c0.7,0.6,1.7,0.8,2.8,0.6c1.1,0,1.9-0.3,2.6-0.8
		c0.7-0.5,1.6-0.4,2.7,0.3c2,0.9,2.3,1.9,0.9,3c-0.5,0.3-0.8,0.9-0.8,1.9v5.6c0,1.3-0.1,2.1-0.2,2.2c-0.2,0.1-0.7,0.2-1.7,0.3
		c-1.1,0-1.6-0.4-1.6-1.2c0-0.9-0.5-1.4-1.4-1.4c-1.1,0-1.6,0.4-1.6,1.3c0,1-0.6,1.6-1.8,1.8c-1.2,0.1-1.8-0.6-1.8-2L189.6,32.1
		L189.6,32.1z M198.1,51.3c0-1.2-0.5-1.8-1.4-1.8h-2.6c-1.1,0-1.6,0.5-1.6,1.6v3.7c0,1.1,0.5,1.6,1.6,1.6h2.4c1.1,0,1.6-0.5,1.6-1.6
		V51.3z M196.1,35.2c0-1.1-0.5-1.7-1.4-1.7c-1.1,0-1.6,0.5-1.6,1.6v3.5c0,1.1,0.5,1.6,1.4,1.6c1.1,0,1.6-0.5,1.6-1.6V35.2z
		 M208.1,51.3c0-1.2-0.5-1.8-1.4-1.8h-3.1c-1.1,0-1.6,0.5-1.6,1.6v3.7c0,1.1,0.5,1.6,1.6,1.6h3c1.1,0,1.6-0.5,1.6-1.6v-3.5H208.1z
		 M202.2,32.4c0-1.4,0.6-1.7,1.9-0.9c0.4,0.2,1.2,0.3,2.5,0.3s2.3-0.3,2.9-0.8c0.7-0.5,1.6-0.4,2.7,0.3c2,0.9,2.3,1.9,0.9,3
		c-0.5,0.3-0.8,0.9-0.8,1.9v5.9c0,1.3-0.1,2.1-0.2,2.2c-0.2,0.1-0.7,0.2-1.7,0.3c-1.1,0-1.6-0.4-1.6-1.4s-0.5-1.4-1.4-1.4
		c-1.1,0-1.6,0.4-1.6,1.2c0,0.9-0.6,1.4-1.8,1.6c-1.2,0-1.8-0.6-1.8-2L202.2,32.4L202.2,32.4z M208.7,35.2c0-1.1-0.5-1.7-1.4-1.7
		c-1.1,0-1.6,0.5-1.6,1.6v3.5c0,1.1,0.5,1.6,1.4,1.6c1.1,0,1.6-0.5,1.6-1.6V35.2z"/>
	<path class="st0" d="M260.2,34.5c1.3-1.3,2.6-1.5,3.8-0.6l1.2,0.9c1.3,1.1,1.9,1.9,1.7,2.5c-0.4,0.6-1.2,0.9-2.5,0.9h-11.2
		c-1.1,0-1.6,0.5-1.6,1.6v7.6c0,1.1,0.7,1.6,2,1.6c1.4,0,2.8-0.7,4.1-2c1.4-1.4,2.7-1.5,4-0.5l0.7,0.5c1.5,1.2,2.1,2.2,2,2.8
		c-0.2,0.6-0.9,0.9-2.2,0.9h-9c-1.1,0-1.6,0.5-1.6,1.6v8c0,1.1,0.7,1.8,2,2.4c4.2,1.1,9.3,1.7,15.4,1.8h10l11.8-0.5
		c1.4-0.1,2.2,0,2.3,0.3c0.1,0.4-0.2,0.8-0.7,1.2c-0.6,0.6-1.1,1.3-1.5,2c-0.3,0.8-1.1,1.2-2.4,1.2h-11.6c-9.4-0.1-17-0.9-22.8-2.4
		c-5.4-1.3-9.8-5.1-13.2-11.3c-0.7-1.3-1.2-1.3-1.5,0c-1.1,4.3-3,8.1-5.6,11.2c-1.3,1.4-2.1,2-2.4,1.8c-0.4-0.3-0.2-1.1,0.7-2.4
		c3.3-6.1,5-13.3,5.1-21.7c0-1.5,0.7-2.2,2-2c1.1,0.1,2.3,0.4,3.6,0.7c0.9,0.7,0.7,1.3-0.6,1.8c-0.9,0.2-1.3,0.9-1.2,2.2l-0.4,2.6
		c-0.1,0.6,0.2,1.5,0.9,2.6c1.1,2,2.6,4.1,4.8,6.5c1.1,0.9,1.6,0.9,1.6-0.2V39.8c0-1.1-0.5-1.6-1.6-1.6h-11.6c-1.3,0-2-0.2-2.2-0.7
		c-0.2-0.7,0.3-1.1,1.5-1.1h22.7C257.6,36.4,258.8,35.8,260.2,34.5z M256.7,9.7c0.8-0.7,1.9-0.6,3.2,0.1l0.6,0.4
		c1.3,0.8,2,1.4,2.1,1.6c0.1,0.9-0.3,1.5-1.2,1.8c-1.1,0.3-1.5,1.1-1.2,2.5v14c0,1.4-0.6,2.1-1.9,2.3c-1.3,0.1-1.9-0.2-1.9-1.1
		c0-0.8-0.5-1.2-1.6-1.2h-12.4c-1.1,0-1.6,0.3-1.6,1c0.3,1-0.1,1.6-1.2,1.7c-1.7,0.1-2.6-0.5-2.6-1.8V10.8c0-1.3,0.7-1.6,2-0.9
		c0.9,0.9,1.9,1.2,3,0.9h12C255,10.7,255.9,10.4,256.7,9.7z M256.4,14.2c0-1.1-0.5-1.7-1.5-1.7h-12.5c-1.1,0-1.6,0.5-1.6,1.6v3.7
		c0,1.1,0.5,1.6,1.6,1.6h12.4c1.1,0,1.6-0.5,1.6-1.6V14.2z M256.4,22.8c0-1.1-0.5-1.6-1.6-1.6h-12.4c-1.1,0-1.6,0.5-1.6,1.6v4
		c0,1.1,0.5,1.6,1.6,1.6h12.4c1.1,0,1.6-0.5,1.6-1.6V22.8z M269.3,10.6c0-1.4,0.6-2,1.9-1.7l1.8,0.4c1.1,0.1,1.8,0.5,2.1,1.1
		c0.2,0.5-0.2,1.1-1.1,1.6c-0.7,0.3-1,0.9-1,2v16c0,1.1,0.7,1.2,2,0.1c4.2-3.2,7.5-6.9,9.7-11c0.7-1.3,1.8-1.6,3.2-0.9
		c1.6,1.1,2.3,1.7,2.3,2c-0.1,0.8-0.6,1.1-1.4,0.9c-0.4,0-1.2,0.5-2.3,1.8c-3.2,4-7,7.1-11.5,9.3c-1.3,0.7-2,1.6-2,2.6v15.1
		c0.3,1.8,1.8,2.6,4.4,2.4c1.8,0.2,3.5,0.1,5.3-0.2c1.9-0.1,3.2-0.6,3.9-1.6c0.7-1.2,1.4-2.8,2-4.7c0.3-1.4,0.7-2.1,1.2-2.1
		c0.7,0,0.9,0.7,0.9,1.8c-0.4,2.5-0.1,4.2,0.9,5.2c1.5,1.3,1.4,2.6-0.3,3.7c-3.1,1.2-7.8,1.8-14.1,1.6c-2.9,0.1-5.1-0.4-6.6-1.5
		c-0.7-0.8-1.2-1.9-1.4-3.2L269.3,10.6L269.3,10.6z"/>
</g>
</svg>
