<?xml version="1.0" encoding="utf-8"?>
<!-- Generator: Adobe Illustrator 27.6.1, SVG Export Plug-In . SVG Version: 6.00 Build 0)  -->
<svg version="1.1" id="Layer_1" xmlns="http://www.w3.org/2000/svg" xmlns:xlink="http://www.w3.org/1999/xlink" x="0px" y="0px"
	 viewBox="0 0 463.8 70.8" style="enable-background:new 0 0 463.8 70.8;" xml:space="preserve">
<style type="text/css">
	.st0{fill:#FFFFFF;}
</style>
<g>
	<path class="st0" d="M27.7,9.8c0-1.3,0.6-1.9,1.9-1.7c2.1,0.1,3.4,0.6,3.9,1.4c-1.6,1.7-2.3,3-1.9,4c0,1.1,0.5,1.6,1.6,1.6h17.1
		c1.1,0,2-0.4,2.9-1.1c1-0.8,2.2-0.5,3.5,0.8c1.9,1.2,2.5,2.4,2,3.4c-0.3,0.4-0.8,0.5-1.7,0.5c-1-0.4-2.3,0.5-4,2.6
		c-1.3,1.1-2.2,1.6-2.6,1.2c-0.3-0.4,0-1.2,0.8-2.6l0.6-1.2c0.4-1.2,0.2-1.8-0.7-1.8H8.7c-1.1,0-1.7,0.7-2,2c-0.2,2.1-1,4-2.2,5.9
		c-1.4,1.7-2.8,2-4.1,0.9c-0.7-0.9-0.5-1.9,0.7-3.1c2.7-2.4,4.2-4.9,4.7-7.6c0.1-1.3,0.4-2,0.8-2s0.6,0.4,0.6,1
		c0,0.7,0.5,1.1,1.6,1.1h17.3c1.1,0,1.6-0.5,1.6-1.6C27.7,13.5,27.7,9.8,27.7,9.8z M12.2,23.2c0-1.4,0.6-1.7,1.9-0.9
		c0.9,0.9,1.9,1.2,3,0.9h23.6c1.1,0,2-0.3,2.8-1.1c0.8-0.7,1.9-0.6,3.2,0.2c2,0.7,2.8,1.7,2.6,2.8C49,25.7,48.6,26,48.1,26
		c-1,0.4-1.3,1.1-1.1,2.4v14.2c0,1.4-0.6,2.1-1.9,2.3c-1.3,0-1.9-0.5-1.9-1.5c0-1.1-0.5-1.6-1.6-1.6h-8.4c-1.1,0-1.6,0.5-1.6,1.6
		v2.9c0,1.1,0.5,1.6,1.6,1.6h15.6c1.1,0,2-0.3,2.9-1.1c1-0.7,2.1-0.5,3.3,0.6c1.4,1.1,2.1,1.9,2.1,2.6c-0.2,0.4-0.5,0.7-1,0.9
		c-0.6,0.2-0.9,0.9-0.9,1.9v14.3c-0.7,2-2.1,3.2-4.3,3.6c-1.3,0.3-2.1,0.1-2.3-0.4c-0.3-1-1.3-1.8-3-2.2c-1.4-0.5-2.1-0.9-2.1-1.2
		c0-0.6,0.8-0.8,2.2-0.7c2.8,0.3,4.6,0,5.5-0.8c0.1-0.1,0.1-0.7,0.1-1.8V51.2c0-1.1-0.5-1.6-1.6-1.6H33.3c-1.1,0-1.6,0.5-1.6,1.6
		v4.5c0,1.1,0.7,1.5,2,1.2l5.1-1.1c1.1-0.3,1.3-0.8,0.7-1.6c-0.7-0.8-1-1.4-0.7-1.8c0.4-0.3,1.3,0,2.8,1.1c2,1.9,3.4,3.6,4.3,5.2
		c0.6,1.4,0.4,2.6-0.4,3.5c-1.7,0.9-2.7,0.2-3.2-2c0-0.3-0.2-0.7-0.3-1.1c-0.4-1.1-1.2-1.5-2.5-1.1c-4.5,1.4-9.5,2.5-15,3.3
		c-2.4,0.3-4,0.6-4.9,1c-0.2,0.2-0.4,0.4-0.4,0.8c0,0.7-0.4,1.1-1.1,1.3c-0.7,0-1.2-0.3-1.5-0.9l-1.2-3.4c-0.3-1.3,0.2-1.9,1.5-1.9
		c3.4,0.1,6.4,0,9-0.3c1.2-0.1,1.8-0.7,1.8-1.6v-5.2c0-1.1-0.5-1.6-1.6-1.6h-16c-1.1,0-1.6,0.5-1.6,1.6v16.7c0,1.3,0,2.1-0.1,2.2
		c-0.2,0.2-0.8,0.4-1.9,0.7c-1.2,0-1.8-0.6-1.8-2V48c0-1.3,0.7-1.6,2-1c0.9,0.8,1.9,1.1,3,0.8h16.5c1.1,0,1.6-0.5,1.6-1.6v-2.9
		c0-1.1-0.5-1.6-1.6-1.6h-8.4c-1.1,0-1.6,0.4-1.6,1.3c0,0.9,0,1.5-0.1,1.6c-0.2,0.2-0.9,0.4-2.2,0.7c-0.7,0.1-1.1,0.1-1.3,0
		c-0.1-0.1-0.2-0.8-0.2-2.1v-20H12.2z M27.7,26.5c0-1.1-0.5-1.6-1.6-1.6h-8.4c-1.1,0-1.6,0.5-1.6,1.6V30c0,1.1,0.5,1.6,1.6,1.6h8.4
		c1.1,0,1.6-0.5,1.6-1.6V26.5z M27.7,35c0-1.1-0.5-1.7-1.5-1.7h-8.5c-1.1,0-1.6,0.5-1.6,1.6v3.5c0,1.1,0.5,1.6,1.6,1.6h8.4
		c1.1,0,1.6-0.5,1.6-1.6V35z M43.2,26.5c0-1.1-0.5-1.6-1.6-1.6h-8.4c-1.1,0-1.6,0.5-1.6,1.6V30c0,1.1,0.5,1.6,1.6,1.6h8.4
		c1.1,0,1.6-0.5,1.6-1.6C43.2,30,43.2,26.5,43.2,26.5z M43.2,35c0-1.1-0.5-1.7-1.5-1.7h-8.5c-1.1,0-1.6,0.5-1.6,1.6v3.5
		c0,1.1,0.5,1.6,1.6,1.6h8.4c1.1,0,1.6-0.5,1.6-1.6C43.2,38.4,43.2,35,43.2,35z"/>
	<path class="st0" d="M91.8,11.8c1-0.5,2.1-0.2,3.3,0.9c1.8,1.2,1.9,2.2,0.1,3.1c-0.9,0.4-1.4,1-1.5,1.8c-1.9,4.1-3.9,8.2-6,12.4
		c-0.5,1.1-0.2,1.6,0.9,1.6h3.9c1.1,0,2-0.4,3-1.1s2.1-0.6,3.3,0.5c2.3,1.4,2.3,2.6,0.1,3.6c-0.4,0.1-0.8,0.8-1.2,2.1
		c-1.4,7-3,12.6-4.9,17c-0.6,1.2-0.4,2.2,0.5,3c3.1,2.2,6.4,4,10,5.2c8.8,2.2,19.5,2.7,32.2,1.6c1.3-0.1,2,0,2.1,0.3
		c0,0.3-0.5,1-1.8,2l-0.4,0.5c-0.5,1.5-1.5,2.3-2.8,2.3l-1.8,0.1h-7.2c-3.6-0.1-7.3-0.4-11.2-0.9c-7.7-1.3-14.3-4.1-19.7-8.5
		c-1.2-1.1-2.4-0.9-3.4,0.5c-2.7,3.5-5.8,6.3-9.3,8.5c-1.3,0.7-2.1,1-2.4,0.7c-0.4-0.4,0.1-1.1,1.3-2.1c3.9-3.2,6.8-6.5,8.8-10.2
		c0.5-1,0.3-2.2-0.8-3.5c-0.8-1.1-1.5-2.2-2.1-3.3c-0.5-1.2-1-1.1-1.4,0.3c-0.6,1.5-1.2,3-2,4.5c-0.3,0.4-0.4,0.9-0.3,1.5
		c0.3,0.9,0,1.5-0.9,1.9c-0.7,0.1-1.5-0.4-2.2-1.7c-1.1-1.4-0.9-2.8,0.6-4.1c1.8-1.3,3.1-2.7,4-4.3c0.8-1.3,1.3-2,1.4-2.1
		c0.2,0,0.7,0.7,1.6,2c0.7,1.2,1.6,2.4,2.5,3.5s1.6,0.9,2.2-0.5c2-5.3,3.3-10.6,3.9-16c0-1.1-0.5-1.6-1.5-1.6h-4.9
		c-1.1,0-2,0.6-2.8,1.8c-0.7,1.3-1.2,2-1.4,2.1c-0.8,0-1.7,0-2.6-0.1c-0.5-0.1-0.9-0.2-1.1-0.3c-0.1-0.1,0.2-0.9,1-2.2
		c4.1-7,7.4-13.2,9.9-18.7c0.4-1.1,0.1-1.6-0.9-1.6H80c-1.3,0-2-0.2-2.2-0.7c-0.2-0.7,0.4-1.1,1.6-1.1H89
		C90,12.6,90.9,12.3,91.8,11.8z M126.3,10.4c1.8-1,3.4-1.1,4.9-0.5c1.3,0.5,2.3,1.1,2.9,1.7c0,0.7-0.5,1.1-1.4,1.2
		c-0.6-0.1-1.1-0.2-1.7-0.1c-3.5,1.3-6.5,2.3-8.9,2.9c-1.1,0.3-1.6,1-1.6,2v13.6c0,1.1,0.5,1.6,1.6,1.6h1.5c1.1,0,2.2-0.7,3.5-2
		c1.4-1.4,2.7-1.5,4-0.5l0.7,0.5c1.5,1.2,2.2,2.2,2,2.8c-0.2,0.6-0.9,0.9-2.2,0.9h-9.5c-1.1,0-1.6,0.5-1.6,1.6v15.6
		c0,1.1,0.5,1.6,1.6,1.6l9.7-0.5c2.1,0.4,2.8,1.4,2,3.1c-0.8,0.7-2.6,1-5.3,1h-9.2c-5.7-0.1-10.2-0.7-13.6-1.8
		c-1.1-0.4-1.8-1.4-1.8-3v-23c0-1.3,0.7-1.9,2-1.8l2,0.3c0.6,0,1.1,0.2,1.5,0.7c0,0.2-0.4,1-1.2,2.4c-0.3,0.4-0.4,1.1-0.4,2.2v16.2
		c-0.3,1.8,0.3,3.1,1.6,3.7c1.4,0.4,3.3,0.5,5.7,0.6c1.1,0,1.6-0.5,1.6-1.5V18.4c0-1.1-0.7-1.5-2-1.3c-5.1,0.9-9.7,1.5-13.9,1.7
		c-1.3,0.1-2.1-0.2-2.2-0.7c-0.1-0.6,0.6-1,2-1.2C110.8,15.6,119.4,13.5,126.3,10.4z"/>
	<path class="st0" d="M161.5,12.5c0-1.3,0.7-1.9,2-1.6c0.7,0,1.3,0.2,2,0.3c1.1,0,1.7,0.4,1.8,1.1c-1.5,1.6-2.2,2.9-1.9,4v10.2
		c0,1.1,0.5,1.6,1.5,1.6c1.1,0,2.1-0.7,3-2c0.9-1.2,1.9-1.1,3.2,0.1c1.3,1.3,1.9,2.2,1.7,2.7c-0.1,0.6-0.8,0.9-2,0.9H167
		c-1.1,0-1.6,0.5-1.6,1.6v19.8c0,1.1,0.7,1.3,2,0.5c1.7-1,3.4-2,5.2-3.2c1.3-0.9,2.2-1.2,2.6-0.8c0.4,0.4-0.1,1.2-1.4,2.5
		c-3.7,3.3-8.3,6.3-13.9,9.1c-1.4,0.7-2.1,1.1-2.2,1.2c0.1,0.6,0.1,1.3,0,2c-0.3,0.4-0.7,0.6-1.2,0.5c-0.8-0.4-1.7-1.6-2.7-3.4
		c-0.8-1.4-0.6-2.3,0.7-2.7c1.8-0.5,3.7-1.1,5.5-1.8c1.1-0.4,1.6-1.2,1.6-2.2V31.5c0-1.1-0.5-1.6-1.6-1.6h-4.7c-1.3,0-2-0.2-2.2-0.7
		c-0.2-0.7,0.3-1.1,1.5-1.1h5.3c1.1,0,1.6-0.5,1.6-1.6L161.5,12.5L161.5,12.5z M192.5,10c0-1.4,0.7-1.9,2-1.6c1.8,0,3.2,0.4,4.1,1.2
		c0.3,1-0.3,1.8-1.9,2.4c-0.2,0.3-0.3,1-0.3,2v11.2c0,1.1,0.7,1.4,2,0.9l7.2-2.6c0.7-0.3,1.4-0.8,2-1.6c0.6-0.7,1.5-0.8,2.8-0.1
		c0.9,0.5,1.8,1,2.8,1.6c0.6,0.7,0.3,1.4-0.9,2c-0.6,0.5-0.9,1.3-0.9,2.4c0,7.7-0.4,14.2-1.2,19.6c-0.1,2.7-1.5,4.7-4.1,5.8
		c-1.5,0.3-2.3,0-2.4-0.9c-0.2-1.1-1-2-2.4-2.6c-1-0.3-1.4-0.7-1.2-1.1c0.2-0.6,0.9-0.7,2.1-0.3c2.1,1,3.3,0.6,3.7-1.1
		c1.2-5.2,1.8-12.1,1.7-20.6c0-1.4-0.6-1.8-2-1.3l-7.4,2.6c-1.1,0.4-1.6,1.2-1.6,2.2v23.1c0,1.4-0.6,2.2-1.8,2.5
		c-1.3,0.1-2-0.5-2-1.9V31.6c0-1.1-0.7-1.4-2-0.9c-1.9,0.6-3.9,1.3-5.8,2c-1.2,0.4-1.8,1.1-1.8,2v26.6c-0.1,1.2,0.1,2.3,0.7,3.2
		c1.1,1,3.3,1.4,6.8,1.4h8.3l6.8-0.3c2.1,0.2,3.6-0.8,4.3-2.9c0.5-1.3,0.9-2.6,1.1-3.9c0.3-1.7,0.8-2.5,1.3-2.4c0.6,0,0.8,0.7,0.8,2
		c0,1.9,0,3.3,0.2,4.2c0,0.9,0.3,1.5,1,1.8c1.2,0.8,1.3,1.8,0.5,2.9c-1.4,1-3.3,1.6-5.6,1.8c-8.5,1-17.1,1-25.8-0.1
		c-2.9-0.7-4.3-2.8-4.1-6.1V36.4c0-1.1-0.7-1.4-2-0.9l-3.2,1.1c-1.3,0.5-2.2,0.5-2.6,0.1c-0.5-0.4-0.1-0.9,1.2-1.4l5-1.8
		c1.1-0.4,1.6-1.1,1.6-2.2v-14c0-1.3,0.7-1.9,2-1.7l2,0.4c1.1,0.1,1.7,0.5,1.9,1.4c-0.2,0.8-0.8,1.4-1.8,1.7
		c-0.1,0.1-0.2,0.7-0.2,1.8V30c0,1.1,0.7,1.4,2,1l5.8-2c1.2-0.4,1.8-1.1,1.8-2.1V10H192.5z"/>
	<path class="st0" d="M284.1,30.1c1.4-1.4,2.7-1.6,3.9-0.7c0.2,0.2,0.4,0.4,0.5,0.5c1.7,1.3,2.5,2.3,2.3,2.9
		c-0.3,0.7-1.1,1.1-2.4,1.1h-46.1c-1.1,0-1.6,0.7-1.7,2c0.1,6.8-0.4,12.8-1.5,18.1c-0.8,4.4-2.7,8.8-5.6,13.1
		c-1.3,1.7-2.2,2.4-2.6,2.1c-0.4-0.3-0.1-1.2,0.7-2.6c1.4-2.3,2.6-5.7,3.5-10c1-5.2,1.5-10.5,1.6-16v-8.4c0-1.4,0.7-1.8,2-1.1
		c1.4,0.9,2.6,1.2,3.6,1.1h38.1C281.6,32,282.8,31.4,284.1,30.1z M258.7,10.4c0-1.4,0.6-2,1.9-1.8l3.5,0.8c0.5,0.6,0.2,1.3-1,2.3
		c-0.4,0.6-0.7,1.4-0.7,2.4c0,1.1,0.5,1.6,1.6,1.6h13.2c1.1,0,2.2-0.7,3.5-2c1.4-1.4,2.7-1.6,4-0.6l0.7,0.5c1.6,1.4,2.3,2.3,2,2.8
		c-0.3,0.6-1,0.9-2.3,0.9H236c-1.3,0-2.1-0.2-2.2-0.7c-0.2-0.7,0.4-1,1.6-1H257c1.1,0,1.6-0.5,1.6-1.6v-3.6H258.7z M263.4,37.8
		c0-1.3,0.6-1.9,1.9-1.7c0.7,0,1.3,0.2,2,0.3c1.1,0,1.8,0.4,1.9,1.1c-1.6,1.6-2.3,3-1.9,4.1v2.3c0,1.1,0.5,1.6,1.6,1.6h7.3
		c1.1,0,2.2-0.7,3.5-2c1.4-1.4,2.7-1.6,4-0.6l0.7,0.5c1.5,1.3,2.1,2.2,2,2.9c-0.2,0.6-0.9,0.9-2.2,0.9H269c-1.1,0-1.6,0.5-1.6,1.6
		v5.8c0,1.1,0.5,1.6,1.6,1.6h5.5c1.1,0,2.3-0.7,3.6-2c1.3-1.3,2.6-1.5,3.9-0.5l0.7,0.5c1.6,1.3,2.3,2.3,2.1,2.8
		c-0.3,0.6-1.1,0.9-2.4,0.9H269c-1.1,0-1.6,0.5-1.6,1.6v5.6c0,1.1,0.5,1.6,1.6,1.6h12.1c1.1,0,2.2-0.7,3.5-2c1.4-1.4,2.7-1.5,4-0.5
		l0.7,0.5c1.6,1.3,2.3,2.2,2,2.8s-1.1,0.9-2.4,0.9h-45.4c-1.3,0-2.1-0.2-2.2-0.7c-0.2-0.7,0.4-1,1.6-1h19c1.1,0,1.6-0.5,1.6-1.6
		v-5.6c0-1.1-0.5-1.6-1.6-1.6h-10.3c-1.3,0-2-0.2-2.2-0.7c-0.2-0.7,0.3-1.1,1.5-1.1h10.9c1.1,0,1.6-0.5,1.6-1.6v-5.8
		c0-1.1-0.5-1.6-1.6-1.6h-9.3c-1.1,0-1.9,0.7-2.7,2c-1.1,2-2.7,4.2-5,6.8c-1.7,1.6-2.6,2.3-3,2c-0.3-0.4,0.1-1.2,1.1-2.7
		c3.8-5.2,6.1-10.4,7.1-15.8c0.2-1.5,1-2.1,2.4-1.8c1.9,0.2,3,0.7,3.3,1.6c-0.2,0.5-0.6,0.8-1.3,0.8c-0.4,0-0.9,0.7-1.4,2.2
		l-0.7,1.6c-0.4,1.1-0.1,1.6,1,1.6h8.4c1.1,0,1.6-0.5,1.6-1.6L263.4,37.8L263.4,37.8z M270.9,20.3c1.4-0.9,2.7-1,3.9-0.3
		c1.3,0.8,1.9,1.4,2,1.6c0,0.8-0.4,1.2-1.2,1.1c-0.6-0.1-1.2,0-1.9,0.3l-2.2,0.9c-1.1,0.5-0.9,1,0.5,1.5c2.2,0.7,3.7,1.8,4.5,3.5
		c-0.4,1.8-1.3,2.3-2.8,1.6c-2.4-1.2-5-2.4-7.9-3.4c-0.9-0.3-1.8-0.3-2.6-0.1c-5.8,1.8-11.7,3-17.7,3.5c-1.3,0-2.1-0.2-2.2-0.7
		c-0.2-0.5,0.4-0.8,1.8-0.9c3.9-0.5,8.5-1.6,13.7-3.2c1.1-0.4,1.1-0.8-0.3-1.3c-2.3-0.7-5.3-1.3-9.2-2c-1.4-0.2-2.1-0.5-2.2-0.8
		c0-0.5,0.7-0.8,2.1-0.8c5.1,0.3,9.9,0.9,14.4,1.9c1.1,0.3,2,0.2,2.6-0.1C267.9,22,269.4,21.2,270.9,20.3z"/>
	<path class="st0" d="M335.9,30.7l-21.7,33h15.2l5.4-5.4V46.1h1.5v19.3h-28.5v-1.3l22.7-34.7v-8.3l-5.7-7.9h-8.1l-5.6,5.2v0.8h3.6
		v6.9h-6.9v-6.9l8.2-7.7h13.9l6.1,7.9v11.3H335.9z"/>
	<path class="st0" d="M343.8,56.3V20.6l7.3-9.1h14.5l7.3,9.1v35.6l-7.3,9.1h-14.5L343.8,56.3z M353.4,63.7h10.1l4.1-8.3v-34
		l-4.1-8.3h-10.1l-4.2,8.3v34L353.4,63.7z"/>
	<path class="st0" d="M410.7,20.6v35.5l-7.4,9.3h-13.9l-8.2-7.7v-6.9h6.9v6.9h-3.6v0.8l5.6,5.2h8.1l7.1-9.2V38.7l-2.9,5.9h-14.3
		l-7.3-9.1V20.6l7.3-9.1h15.2L410.7,20.6z M390.4,42.9h10.8l4.2-8.3V21.4l-4.2-8.3h-10.8l-4.1,8.3v13.2L390.4,42.9z"/>
	<path class="st0" d="M448.5,20.6v35.5l-7.4,9.3h-13.9l-8.2-7.7v-6.9h6.9v6.9h-3.6v0.8l5.6,5.2h8.1l7.1-9.2V38.7l-2.9,5.9H426
		l-7.3-9.1V20.6l7.3-9.1h15.2L448.5,20.6z M428.2,42.9H439l4.2-8.3V21.4l-4.2-8.2h-10.8l-4.1,8.3v13.2L428.2,42.9z"/>
	<path class="st0" d="M456.9,29.7h6.9v6.9h-6.9V29.7z M463.8,58.5v6.9h-6.9v-6.9H463.8z"/>
</g>
</svg>
