<?xml version="1.0" encoding="utf-8"?>
<!-- Generator: Adobe Illustrator 27.6.1, SVG Export Plug-In . SVG Version: 6.00 Build 0)  -->
<svg version="1.1" id="Layer_1" xmlns="http://www.w3.org/2000/svg" xmlns:xlink="http://www.w3.org/1999/xlink" x="0px" y="0px"
	 viewBox="0 0 726.3 70.8" style="enable-background:new 0 0 726.3 70.8;" xml:space="preserve">
<style type="text/css">
	.st0{fill:#FFFFFF;}
</style>
<g>
	<g>
		<path class="st0" d="M0,1.7V0h37.5v20.3h-1.6V7.9l-5.5-6.2h-17v20.8h10.3l4-4v-6.4h1.6v22.5h-1.6v-6.4l-4-4H13.4v30.7H25v1.7H0
			v-1.7h7.7V1.7H0z"/>
		<path class="st0" d="M40,47.1V28.7l7.4-9.6h11.8l7.3,9.6v18.4l-7.3,9.6H47.4L40,47.1z M49.7,54.9h7.1l4.3-8.6V29.5l-4.3-8.6h-7.1
			l-4.4,8.6v16.7L49.7,54.9z"/>
		<path class="st0" d="M70.7,54.9h5.6V20.8h-5.6v-1.7h10.9v11.5h0.8l6.3-11.5h7.5v7.3H89v-2.8h-0.8L83,33.1v0.2h-0.1l-1.2,2.2v19.4
			h8.4v1.7H70.7V54.9z"/>
		<path class="st0" d="M101.3,28.7l7.4-9.6h11.8l7.3,9.6v5.4h-21.1V46l4.8,6.4h10.3l4.2-5.8v-8.4h1.8v8.9l-6.8,9.6h-12.2l-7.4-9.6
			V28.7H101.3z M122.4,32.3v-2.8l-4.3-8.6H111l-4.4,8.6v2.8H122.4z"/>
		<path class="st0" d="M158.5,32.9h-1.7v-6.3l-5.7-5.7h-6.9l-4.1,5.1v5.2l3.2,3.7h10.5l5.7,6.4v9.3l-6.7,6h-17.6V41.5h1.7v7.7
			l5.7,5.7h8.3l3.8-5.1v-6.7l-3.2-3.5H141l-5.7-6.4v-8l6.7-6h16.6v13.7H158.5z"/>
		<path class="st0" d="M166.8,28.7l7.4-9.6H186l7.3,9.6v5.4h-21.1V46l4.8,6.4h10.3l4.2-5.8v-8.4h1.8v8.9l-6.8,9.6h-12.2l-7.4-9.6
			V28.7H166.8z M187.9,32.3v-2.8l-4.3-8.6h-7.1l-4.4,8.6v2.8H187.9z"/>
		<path class="st0" d="M200.4,28.7l7.4-9.6h11.8l7.3,9.6v5.4h-21.1V46l4.8,6.4h10.3l4.2-5.8v-8.4h1.8v8.9l-6.8,9.6h-12.2l-7.4-9.6
			V28.7H200.4z M221.5,32.3v-2.8l-4.3-8.6h-7.1l-4.4,8.6v2.8H221.5z"/>
		<path class="st0" d="M231.1,54.9h5.6V20.8h-5.6v-1.7H242v8.1l5.9-8.1h8.1l4.5,7.8v28h5.6v1.7h-16.5v-1.7h5.6V27.8l-3.8-6.9h-3
			l-6.6,8.9v25.1h5.6v1.7h-16.5v-1.7H231.1z"/>
		<path class="st0" d="M286.4,54.9h7.7V1.7h-7.7V0h26.7l8.7,7.5v16.6l-8.7,7.4h-13.3v23.4h7.7v1.7h-21.1L286.4,54.9L286.4,54.9z
			 M310.8,29.7l5.3-6.5V8.4l-5.3-6.6h-11v28L310.8,29.7L310.8,29.7z"/>
		<path class="st0" d="M326.5,54.9h5.6V20.8h-5.6v-1.7h10.9v11.5h0.8l6.3-11.5h7.5v7.3h-7.3v-2.8h-0.8l-5.2,9.5v0.2h-0.1l-1.2,2.2
			v19.4h8.4v1.7h-19.3L326.5,54.9L326.5,54.9z"/>
		<path class="st0" d="M357.1,47.1V28.7l7.4-9.6h11.8l7.3,9.6v18.4l-7.3,9.6h-11.8L357.1,47.1z M366.8,54.9h7.1l4.3-8.6V29.5
			l-4.3-8.6h-7.1l-4.4,8.6v16.7L366.8,54.9z"/>
		<path class="st0" d="M398.6,25.6l3.5-6.4h10.3l7.3,9.6v18.4l-7.3,9.6h-10.3l-3.5-6.7v19.2h11.2V71h-22.1v-1.7h5.6V20.8h-5.6v-1.7
			h10.9V25.6z M403,54.9h7.1l4.4-8.6V29.5l-4.4-8.6H403l-4.5,8.3v17.1L403,54.9z"/>
		<path class="st0" d="M427.1,28.7l7.4-9.6h11.8l7.3,9.6v5.4h-21.1V46l4.8,6.4h10.3l4.2-5.8v-8.4h1.8v8.9l-6.8,9.6h-12.2l-7.4-9.6
			L427.1,28.7L427.1,28.7z M448.2,32.3v-2.8l-4.3-8.6h-7.1l-4.4,8.6v2.8H448.2z"/>
		<path class="st0" d="M457.8,54.9h5.6V20.8h-5.6v-1.7h10.9v11.5h0.8l6.3-11.5h7.5v7.3H476v-2.8h-0.8l-5.2,9.5v0.2h-0.1l-1.2,2.2
			v19.4h8.4v1.7h-19.3V54.9z"/>
		<path class="st0" d="M491.9,52.5V20.9h-3.3v-1.8h3.3l3.5-4.6V7.4h1.8v11.7h7.8v1.8h-7.8v31.2h5.9V38.2h1.8v14.1l-6.2,5.3
			L491.9,52.5z"/>
		<path class="st0" d="M513.9,20.8h-5.5v-1.7h15.9v1.7h-5.2l7.4,29.9h0.8l6.4-26.8l-1.6-3.2H528V19h14.7v1.7h-2.8l-4,3.2l-11.5,46.8
			h-7.3v-7.4h7.2l1.7-6.8h-3.3L513.9,20.8z"/>
		<path class="st0" d="M591.6,20.2l-22.9,34.7h16l5.7-5.7V36.3h1.6v20.3h-29.9v-1.4L586,18.7v-8.6l-6-8.3h-8.6l-5.9,5.5v0.8h3.8v7.3
			H562V8.1l8.6-8.1h14.6l6.4,8.4V20.2z"/>
		<path class="st0" d="M600,47.1V9.6l7.7-9.6H623l7.6,9.6v37.5l-7.6,9.6h-15.3L600,47.1z M610,54.9h10.6l4.3-8.7V10.4l-4.3-8.7H610
			l-4.4,8.7v35.8L610,54.9z"/>
		<path class="st0" d="M670.4,9.6v37.3l-7.8,9.8H648l-8.6-8.1v-7.3h7.3v7.3h-3.8v0.8l5.9,5.5h8.6l7.4-9.7V28.5l-3,6.2h-15l-7.6-9.6
			V9.6l7.6-9.6h16L670.4,9.6z M649,33h11.3l4.4-8.7V10.4l-4.4-8.7H649l-4.3,8.7v13.9L649,33z"/>
		<path class="st0" d="M710.2,9.6v37.3l-7.8,9.8h-14.6l-8.6-8.1v-7.3h7.3v7.3h-3.8v0.8l5.9,5.5h8.6l7.4-9.7V28.5l-3,6.2h-15
			l-7.6-9.6V9.6l7.6-9.6h16L710.2,9.6z M688.8,33h11.3l4.4-8.7V10.4l-4.4-8.7h-11.3l-4.3,8.7v13.9L688.8,33z"/>
		<path class="st0" d="M719.1,19.1h7.2v7.2h-7.2V19.1z M726.3,49.4v7.2h-7.2v-7.2H726.3z"/>
	</g>
</g>
</svg>
