{
	"asset":{
		"generator":"Khronos glTF Blender I/O v4.2.60",
		"version":"2.0"
	},
	"extensionsUsed":[
		"EXT_texture_webp"
	],
	"extensionsRequired":[
		"EXT_texture_webp"
	],
	"scene":0,
	"scenes":[
		{
			"name":"Scene",
			"nodes":[
				0
			]
		}
	],
	"nodes":[
		{
			"mesh":0,
			"name":"Mesh_0.010"
		}
	],
	"materials":[
		{
			"doubleSided":true,
			"name":"Material_0.010",
			"normalTexture":{
				"index":0
			},
			"pbrMetallicRoughness":{
				"baseColorTexture":{
					"index":1
				},
				"metallicRoughnessTexture":{
					"index":2
				}
			}
		}
	],
	"meshes":[
		{
			"name":"Mesh_0.010",
			"primitives":[
				{
					"attributes":{
						"POSITION":0,
						"NORMAL":1,
						"TEXCOORD_0":2
					},
					"indices":3,
					"material":0
				}
			]
		}
	],
	"textures":[
		{
			"extensions":{
				"EXT_texture_webp":{
					"source":0
				}
			},
			"sampler":0
		},
		{
			"extensions":{
				"EXT_texture_webp":{
					"source":1
				}
			},
			"sampler":0
		},
		{
			"extensions":{
				"EXT_texture_webp":{
					"source":2
				}
			},
			"sampler":0
		}
	],
	"images":[
		{
			"mimeType":"image/webp",
			"name":"Normal",
			"uri":"Normal.webp"
		},
		{
			"mimeType":"image/webp",
			"name":"BaseColor",
			"uri":"BaseColor.webp"
		},
		{
			"mimeType":"image/webp",
			"name":"MetallicRoughness",
			"uri":"MetallicRoughness.webp"
		}
	],
	"accessors":[
		{
			"bufferView":0,
			"componentType":5126,
			"count":2445,
			"max":[
				0.1729373037815094,
				0.03589526191353798,
				0.04811254143714905
			],
			"min":[
				-0.1729373037815094,
				-0.03589526191353798,
				-0.04811256751418114
			],
			"type":"VEC3"
		},
		{
			"bufferView":1,
			"componentType":5126,
			"count":2445,
			"type":"VEC3"
		},
		{
			"bufferView":2,
			"componentType":5126,
			"count":2445,
			"type":"VEC2"
		},
		{
			"bufferView":3,
			"componentType":5123,
			"count":4155,
			"type":"SCALAR"
		}
	],
	"bufferViews":[
		{
			"buffer":0,
			"byteLength":29340,
			"byteOffset":0,
			"target":34962
		},
		{
			"buffer":0,
			"byteLength":29340,
			"byteOffset":29340,
			"target":34962
		},
		{
			"buffer":0,
			"byteLength":19560,
			"byteOffset":58680,
			"target":34962
		},
		{
			"buffer":0,
			"byteLength":8310,
			"byteOffset":78240,
			"target":34963
		}
	],
	"samplers":[
		{
			"magFilter":9729,
			"minFilter":9987
		}
	],
	"buffers":[
		{
			"byteLength":86552,
			"uri":"screw.bin"
		}
	]
}
