{"asset":{"generator":"glTF-Transform v3.10.0","version":"2.0"},"accessors":[{"type":"SCALAR","componentType":5125,"count":9132,"bufferView":0,"byteOffset":0},{"type":"SCALAR","componentType":5125,"count":108,"bufferView":0,"byteOffset":36528},{"type":"SCALAR","componentType":5125,"count":6960,"bufferView":0,"byteOffset":36960},{"type":"SCALAR","componentType":5125,"count":4308,"bufferView":0,"byteOffset":64800},{"type":"SCALAR","componentType":5125,"count":4314,"bufferView":0,"byteOffset":82032},{"type":"SCALAR","componentType":5125,"count":11532,"bufferView":0,"byteOffset":99288},{"type":"SCALAR","componentType":5125,"count":312,"bufferView":0,"byteOffset":145416},{"type":"SCALAR","componentType":5125,"count":6156,"bufferView":0,"byteOffset":146664},{"type":"SCALAR","componentType":5125,"count":3456,"bufferView":0,"byteOffset":171288},{"type":"SCALAR","componentType":5125,"count":792,"bufferView":0,"byteOffset":185112},{"type":"SCALAR","componentType":5125,"count":15834,"bufferView":0,"byteOffset":188280},{"type":"SCALAR","componentType":5125,"count":1332,"bufferView":0,"byteOffset":251616},{"type":"SCALAR","componentType":5125,"count":12906,"bufferView":0,"byteOffset":256944},{"type":"VEC3","componentType":5126,"count":2297,"max":[-0.04605327919125557,0.010180588811635971,0.0057155112735927105],"min":[-0.04905824363231659,0.0071769882924854755,-0.02336965687572956],"bufferView":1,"byteOffset":0},{"type":"VEC3","componentType":5126,"count":2297,"bufferView":1,"byteOffset":12},{"type":"VEC2","componentType":5126,"count":2297,"bufferView":1,"byteOffset":24},{"type":"VEC3","componentType":5126,"count":48,"max":[-0.04632987082004547,0.0049172500148415565,0.0056020235642790794],"min":[-0.04875492677092552,-0.008420639671385288,-0.02336965687572956],"bufferView":2,"byteOffset":0},{"type":"VEC3","componentType":5126,"count":48,"bufferView":2,"byteOffset":12},{"type":"VEC2","componentType":5126,"count":48,"bufferView":2,"byteOffset":24},{"type":"VEC3","componentType":5126,"count":1757,"max":[0.007710020523518324,-0.0016097023617476225,0.00608930503949523],"min":[0.0020607251208275557,-0.006932494696229696,-0.02336965687572956],"bufferView":3,"byteOffset":0},{"type":"VEC3","componentType":5126,"count":1757,"bufferView":3,"byteOffset":12},{"type":"VEC2","componentType":5126,"count":1757,"bufferView":3,"byteOffset":24},{"type":"VEC3","componentType":5126,"count":1105,"max":[0.054474759846925735,0.01070435345172882,0.0055206650868058205],"min":[0.048990748822689056,-0.01175500825047493,-0.02336965687572956],"bufferView":4,"byteOffset":0},{"type":"VEC3","componentType":5126,"count":1105,"bufferView":4,"byteOffset":12},{"type":"VEC2","componentType":5126,"count":1105,"bufferView":4,"byteOffset":24},{"type":"VEC3","componentType":5126,"count":1107,"max":[-0.024284029379487038,0.010704463347792625,0.005526016931980848],"min":[-0.02979569137096405,-0.01175500638782978,-0.02336965687572956],"bufferView":5,"byteOffset":0},{"type":"VEC3","componentType":5126,"count":1107,"bufferView":5,"byteOffset":12},{"type":"VEC2","componentType":5126,"count":1107,"bufferView":5,"byteOffset":24},{"type":"VEC3","componentType":5126,"count":2920,"max":[0.032373782247304916,0.005192802287638187,0.005611102096736431],"min":[0.021846700459718704,-0.008696072734892368,-0.02336965687572956],"bufferView":6,"byteOffset":0},{"type":"VEC3","componentType":5126,"count":2920,"bufferView":6,"byteOffset":12},{"type":"VEC2","componentType":5126,"count":2920,"bufferView":6,"byteOffset":24},{"type":"VEC3","componentType":5126,"count":124,"max":[-0.05137321352958679,0.010153139010071754,0.005596619565039873],"min":[-0.061376772820949554,-0.008420647121965885,-0.02336965687572956],"bufferView":7,"byteOffset":0},{"type":"VEC3","componentType":5126,"count":124,"bufferView":7,"byteOffset":12},{"type":"VEC2","componentType":5126,"count":124,"bufferView":7,"byteOffset":24},{"type":"VEC3","componentType":5126,"count":1584,"max":[0.04651062190532684,0.011145001277327538,0.005665110424160957],"min":[0.03515717014670372,-0.008420580066740513,-0.02336965687572956],"bufferView":8,"byteOffset":0},{"type":"VEC3","componentType":5126,"count":1584,"bufferView":8,"byteOffset":12},{"type":"VEC2","componentType":5126,"count":1584,"bufferView":8,"byteOffset":24},{"type":"VEC3","componentType":5126,"count":922,"max":[0.02024848200380802,0.008747611194849014,0.005612412933260202],"min":[0.012339731678366661,-0.008696014061570168,-0.02336965687572956],"bufferView":9,"byteOffset":0},{"type":"VEC3","componentType":5126,"count":922,"bufferView":9,"byteOffset":12},{"type":"VEC2","componentType":5126,"count":922,"bufferView":9,"byteOffset":24},{"type":"VEC3","componentType":5126,"count":259,"max":[-0.03189009428024292,0.004917545709758997,0.0056304847821593285],"min":[-0.04409807175397873,-0.008420843631029129,-0.02336965687572956],"bufferView":10,"byteOffset":0},{"type":"VEC3","componentType":5126,"count":259,"bufferView":10,"byteOffset":12},{"type":"VEC2","componentType":5126,"count":259,"bufferView":10,"byteOffset":24},{"type":"VEC3","componentType":5126,"count":4002,"max":[0.010273076593875885,0.005219967570155859,0.005647975951433182],"min":[-0.00036393431946635246,-0.00872370507568121,-0.02336965687572956],"bufferView":11,"byteOffset":0},{"type":"VEC3","componentType":5126,"count":4002,"bufferView":11,"byteOffset":12},{"type":"VEC2","componentType":5126,"count":4002,"bufferView":11,"byteOffset":24},{"type":"VEC3","componentType":5126,"count":402,"max":[-0.0006399959092959762,0.010153139941394329,0.005683428607881069],"min":[-0.023319780826568604,-0.008420715108513832,-0.02336965687572956],"bufferView":12,"byteOffset":0},{"type":"VEC3","componentType":5126,"count":402,"bufferView":12,"byteOffset":12},{"type":"VEC2","componentType":5126,"count":402,"bufferView":12,"byteOffset":24},{"type":"VEC3","componentType":5126,"count":3689,"max":[0.1385154128074646,0.07854162156581879,0.02336965687572956],"min":[-0.1385154128074646,-0.07854162156581879,-0.02336965687572956],"bufferView":13,"byteOffset":0},{"type":"VEC3","componentType":5126,"count":3689,"bufferView":13,"byteOffset":12},{"type":"VEC2","componentType":5126,"count":3689,"bufferView":13,"byteOffset":24}],"bufferViews":[{"buffer":0,"byteOffset":0,"byteLength":308568,"target":34963},{"buffer":0,"byteOffset":308568,"byteLength":73504,"byteStride":32,"target":34962},{"buffer":0,"byteOffset":382072,"byteLength":1536,"byteStride":32,"target":34962},{"buffer":0,"byteOffset":383608,"byteLength":56224,"byteStride":32,"target":34962},{"buffer":0,"byteOffset":439832,"byteLength":35360,"byteStride":32,"target":34962},{"buffer":0,"byteOffset":475192,"byteLength":35424,"byteStride":32,"target":34962},{"buffer":0,"byteOffset":510616,"byteLength":93440,"byteStride":32,"target":34962},{"buffer":0,"byteOffset":604056,"byteLength":3968,"byteStride":32,"target":34962},{"buffer":0,"byteOffset":608024,"byteLength":50688,"byteStride":32,"target":34962},{"buffer":0,"byteOffset":658712,"byteLength":29504,"byteStride":32,"target":34962},{"buffer":0,"byteOffset":688216,"byteLength":8288,"byteStride":32,"target":34962},{"buffer":0,"byteOffset":696504,"byteLength":128064,"byteStride":32,"target":34962},{"buffer":0,"byteOffset":824568,"byteLength":12864,"byteStride":32,"target":34962},{"buffer":0,"byteOffset":837432,"byteLength":118048,"byteStride":32,"target":34962}],"samplers":[{"magFilter":9729,"minFilter":9729,"wrapS":10497,"wrapT":10497}],"textures":[{"source":0,"sampler":0},{"source":1,"sampler":0},{"source":2,"sampler":0},{"source":3,"sampler":0},{"source":4,"sampler":0}],"images":[{"name":"BaseColor","mimeType":"image/png","uri":"baseColor_1.png"},{"name":"Normal","mimeType":"image/png","uri":"normal_1.png"},{"name":"AO","mimeType":"image/png","uri":"occlusion_1.png"},{"name":"MetallicRoughness","mimeType":"image/png","uri":"metallicRoughness_1.png"},{"name":"BaseColor","mimeType":"image/png","uri":"baseColor_2.png"}],"buffers":[{"uri":"Asset6.bin","byteLength":955480}],"materials":[{"doubleSided":true,"pbrMetallicRoughness":{"baseColorTexture":{"index":0},"metallicRoughnessTexture":{"index":3}},"normalTexture":{"index":1},"occlusionTexture":{"index":2}},{"doubleSided":true,"pbrMetallicRoughness":{"baseColorTexture":{"index":4},"metallicRoughnessTexture":{"index":3}},"normalTexture":{"index":1},"occlusionTexture":{"index":2}}],"meshes":[{"primitives":[{"attributes":{"NORMAL":14,"POSITION":13,"TEXCOORD_0":15},"mode":4,"material":0,"indices":0}]},{"primitives":[{"attributes":{"NORMAL":17,"POSITION":16,"TEXCOORD_0":18},"mode":4,"material":0,"indices":1}]},{"primitives":[{"attributes":{"NORMAL":20,"POSITION":19,"TEXCOORD_0":21},"mode":4,"material":0,"indices":2}]},{"primitives":[{"attributes":{"NORMAL":23,"POSITION":22,"TEXCOORD_0":24},"mode":4,"material":0,"indices":3}]},{"primitives":[{"attributes":{"NORMAL":26,"POSITION":25,"TEXCOORD_0":27},"mode":4,"material":0,"indices":4}]},{"primitives":[{"attributes":{"NORMAL":29,"POSITION":28,"TEXCOORD_0":30},"mode":4,"material":0,"indices":5}]},{"primitives":[{"attributes":{"NORMAL":32,"POSITION":31,"TEXCOORD_0":33},"mode":4,"material":0,"indices":6}]},{"primitives":[{"attributes":{"NORMAL":35,"POSITION":34,"TEXCOORD_0":36},"mode":4,"material":0,"indices":7}]},{"primitives":[{"attributes":{"NORMAL":38,"POSITION":37,"TEXCOORD_0":39},"mode":4,"material":0,"indices":8}]},{"primitives":[{"attributes":{"NORMAL":41,"POSITION":40,"TEXCOORD_0":42},"mode":4,"material":0,"indices":9}]},{"primitives":[{"attributes":{"NORMAL":44,"POSITION":43,"TEXCOORD_0":45},"mode":4,"material":0,"indices":10}]},{"primitives":[{"attributes":{"NORMAL":47,"POSITION":46,"TEXCOORD_0":48},"mode":4,"material":0,"indices":11}]},{"primitives":[{"attributes":{"NORMAL":50,"POSITION":49,"TEXCOORD_0":51},"mode":4,"material":1,"indices":12}]}],"nodes":[{"mesh":0},{"mesh":1},{"mesh":2},{"mesh":3},{"mesh":4},{"mesh":5},{"mesh":6},{"mesh":7},{"mesh":8},{"mesh":9},{"mesh":10},{"mesh":11},{"mesh":12}],"scenes":[{"nodes":[0,1,2,3,4,5,6,7,8,9,10,11,12]}]}