{"asset":{"generator":"glTF-Transform v3.10.0","version":"2.0"},"accessors":[{"type":"SCALAR","componentType":5125,"count":41916,"bufferView":0,"byteOffset":0},{"type":"SCALAR","componentType":5125,"count":68280,"bufferView":0,"byteOffset":167664},{"type":"VEC3","componentType":5126,"count":7800,"max":[0.004389465786516666,0.004389429930597544,0.004441504366695881],"min":[-0.004389464855194092,-0.004389500245451927,-0.004441504366695881],"bufferView":1,"byteOffset":0},{"type":"VEC3","componentType":5126,"count":7800,"bufferView":1,"byteOffset":12},{"type":"VEC2","componentType":5126,"count":7800,"bufferView":1,"byteOffset":24},{"type":"VEC3","componentType":5126,"count":15172,"max":[0.00480498094111681,0.00480498094111681,0.0000318525308102835],"min":[-0.00480498094111681,-0.00480498094111681,-0.004441504366695881],"bufferView":2,"byteOffset":0},{"type":"VEC3","componentType":5126,"count":15172,"bufferView":2,"byteOffset":12},{"type":"VEC2","componentType":5126,"count":15172,"bufferView":2,"byteOffset":24}],"bufferViews":[{"buffer":0,"byteOffset":0,"byteLength":440784,"target":34963},{"buffer":0,"byteOffset":440784,"byteLength":249600,"byteStride":32,"target":34962},{"buffer":0,"byteOffset":690384,"byteLength":485504,"byteStride":32,"target":34962}],"buffers":[{"uri":"box.bin","byteLength":1175888}],"materials":[{"doubleSided":true,"pbrMetallicRoughness":{"roughnessFactor":0.4000000059604645,"metallicFactor":0}},{"doubleSided":true,"pbrMetallicRoughness":{"baseColorFactor":[0.16015625,0.66796875,0.8828125,1],"roughnessFactor":0.4000000059604645,"metallicFactor":0}}],"meshes":[{"primitives":[{"attributes":{"NORMAL":3,"POSITION":2,"TEXCOORD_0":4},"mode":4,"material":0,"indices":0}]},{"primitives":[{"attributes":{"NORMAL":6,"POSITION":5,"TEXCOORD_0":7},"mode":4,"material":1,"indices":1}]}],"nodes":[{"mesh":0},{"mesh":1}],"scenes":[{"nodes":[0,1]}]}